<svg xmlns="http://www.w3.org/2000/svg" width="48" height="48" fill="none"><g clip-path="url(#a)"><path fill="#FF9327" d="M48 35.906V48.02h-8.98V35.906H48Z"/><path fill="#C9C8C4" d="M48 .074V12.07h-8.98V.074H48Z"/><path fill="#47D86F" d="M48 23.79v12.116h-8.98V23.79H48Z"/><path fill="#4FC9F8" d="M48 11.844V23.84h-8.98V11.844H48Z"/><path fill="#A6A6A6" fill-opacity=".5" d="M39.02 0h1.021v48H39.02z"/><path fill="#E0E2E2" d="M0 0h39.02v48H0z"/><path fill="#A6A6A6" d="M14.51 20a5 5 0 1 1 10 0 5 5 0 0 1-10 0Z"/><path fill="#A6A6A6" fill-rule="evenodd" d="M19.51 9c-8.284 0-15 6.716-15 15 0 8.284 6.716 15 15 15 8.284 0 15-6.716 15-15 0-8.284-6.715-15-15-15Zm-13 15c0-7.18 5.82-13 13-13s13 5.82 13 13c0 3.7-1.545 7.037-4.025 9.405A7 7 0 0 0 21.51 27h-4a7 7 0 0 0-6.975 6.405A12.963 12.963 0 0 1 6.51 24Z" clip-rule="evenodd"/></g><defs><clipPath id="a"><path fill="#fff" d="M0 0h48v48H0z"/></clipPath></defs></svg>