<svg xmlns="http://www.w3.org/2000/svg" width="48" height="48" fill="none"><path fill="#001E36" d="M0 0h48v48H0z"/><path fill="#31A8FF" d="M10.8 33.661V12.554c0-.144.06-.226.2-.226.34 0 .66 0 1.12-.02.48-.02.98-.02 1.52-.041.54-.02 1.12-.02 1.74-.041.62-.02 1.22-.02 1.82-.02 1.64 0 3 .204 4.12.635 1 .349 1.92.923 2.68 1.682a6.553 6.553 0 0 1 1.46 2.338c.3.862.46 1.744.46 2.667 0 1.764-.4 3.22-1.2 4.37A6.873 6.873 0 0 1 21.5 26.4c-1.36.513-2.86.697-4.5.697-.48 0-.8 0-1-.02-.2-.02-.48-.02-.86-.02v6.584a.254.254 0 0 1-.22.287h-3.88c-.16 0-.24-.082-.24-.267Zm4.36-17.374v6.893c.28.02.54.04.78.04H17c.78 0 1.56-.123 2.3-.369.64-.184 1.2-.574 1.64-1.087.42-.513.62-1.21.62-2.113a3.444 3.444 0 0 0-.46-1.825 2.917 2.917 0 0 0-1.4-1.17c-.74-.307-1.54-.43-2.36-.41-.52 0-.98 0-1.36.02-.4-.02-.68 0-.82.021ZM38.4 21.928a6.964 6.964 0 0 0-1.92-.697c-.74-.164-1.48-.267-2.24-.267-.4-.02-.82.041-1.2.144-.26.061-.48.205-.62.41-.1.164-.16.37-.16.554 0 .184.08.369.2.533.18.226.42.41.68.554.46.246.94.472 1.42.677 1.08.37 2.12.882 3.08 1.497.66.431 1.2 1.006 1.58 1.703.32.656.48 1.374.46 2.113.02.964-.26 1.928-.78 2.728a5.036 5.036 0 0 1-2.24 1.826c-.98.43-2.18.656-3.62.656-.92 0-1.82-.082-2.72-.267-.7-.123-1.4-.348-2.04-.656-.14-.082-.24-.226-.22-.39v-3.57c0-.06.02-.143.08-.184.06-.04.12-.02.18.02.78.473 1.6.8 2.48 1.006.76.205 1.56.308 2.36.308.76 0 1.3-.103 1.66-.288a.955.955 0 0 0 .54-.861c0-.287-.16-.554-.48-.82-.32-.267-.98-.575-1.96-.965-1.02-.369-1.96-.861-2.84-1.477a5.27 5.27 0 0 1-1.52-1.743 4.495 4.495 0 0 1-.46-2.093c0-.882.24-1.723.68-2.482a4.97 4.97 0 0 1 2.1-1.887c.94-.492 2.12-.718 3.54-.718.82 0 1.66.062 2.48.185.6.082 1.18.246 1.72.472.08.02.16.102.2.184.02.082.04.164.04.247v3.343c0 .082-.04.164-.1.205-.18.041-.28.041-.36 0Z"/></svg>