<svg width="48" height="48" viewBox="0 0 48 48" fill="none" xmlns="http://www.w3.org/2000/svg">
<g clip-path="url(#clip0_16_116)">
<rect width="48" height="48" fill="url(#paint0_linear_16_116)"/>
<path d="M10.5615 13.6844C10.3094 13.6844 10.0719 13.7278 9.84718 13.8172L14.3488 18.4518L18.9003 23.1694L18.9834 23.2691L19.1163 23.402L19.2492 23.5349L19.515 23.8172L23.4186 27.8206C23.4836 27.861 23.6719 28.0354 23.8191 28.109C24.0086 28.2037 24.2141 28.2911 24.4259 28.2986C24.6544 28.3068 24.888 28.2413 25.0936 28.1413C25.2476 28.0664 25.3161 27.959 25.495 27.8206L30.0133 23.1528L34.5814 18.4518L38.9834 13.9169C38.7008 13.7638 38.3878 13.6844 38.0532 13.6844H10.5615ZM9.18272 14.2491C8.70266 14.704 8.40199 15.3878 8.40199 16.1594V31.3754C8.40199 32.0002 8.60266 32.5677 8.93355 33.0033L9.56478 32.4053L14.2658 27.8372L18.4352 23.8006L18.3522 23.701L13.7841 19L9.21595 14.2824L9.18272 14.2491ZM39.5814 14.3986L35.1296 19L30.5781 23.701L30.495 23.784L34.8306 27.9867L39.5316 32.5548L39.814 32.8206C40.0671 32.4144 40.2126 31.9142 40.2126 31.3754V16.1594C40.2126 15.4715 39.9742 14.8476 39.5814 14.3986ZM18.9668 24.3488L14.814 28.3854L10.0963 32.9535L9.49834 33.5349C9.81361 33.7379 10.1724 33.8671 10.5615 33.8671H38.0532C38.5209 33.8671 38.9452 33.6871 39.299 33.402L39 33.103L34.2824 28.5349L29.9468 24.3488L26.0432 28.3687C25.8319 28.5088 25.6907 28.6642 25.4844 28.7596C25.1524 28.9131 24.7885 29.043 24.4228 29.0374C24.056 29.0317 23.6964 28.8882 23.3673 28.7263C23.2021 28.6451 23.1141 28.5643 22.9203 28.402L18.9668 24.3488Z" fill="white"/>
</g>
<defs>
<linearGradient id="paint0_linear_16_116" x1="24" y1="0" x2="24" y2="48" gradientUnits="userSpaceOnUse">
<stop stop-color="#5770FF"/>
<stop offset="1" stop-color="#70EEFF"/>
</linearGradient>
<clipPath id="clip0_16_116">
<rect width="48" height="48" fill="white"/>
</clipPath>
</defs>
</svg>
