<svg xmlns="http://www.w3.org/2000/svg" xml:space="preserve" style="enable-background:new 0 0 740 740" viewBox="0 0 740 740"><style>.st0{fill:#aa0e0e}</style><g id="林家丞"><path id="外框" d="M0 0v740h740V0H0zm720 720H20V20h700v700z" class="st0"/><g id="標準_1_"><path d="M40 40v140h140V40H40zm120 120H60V60h100v100z" class="st0"/><path d="M80 80h60v60H80zm480-40v140h140V40H560zm120 120H580V60h100v100z" class="st0"/><path d="M600 80h60v60h-60zM40 560v140h140V560H40zm120 120H60V580h100v100z" class="st0"/><path d="M80 600h60v60H80zm480-40h20v20h-20z" class="st0"/><path d="M520 520v100h100V520H520zm80 80h-60v-60h60v60z" class="st0"/></g><path id="點點點" d="M160 280h20v20h-20zm0 40h20v20h-20zm0 40h20v20h-20zm0 40h20v20h-20zm0 40h20v20h-20zm0 40h20v20h-20zm0 40h20v20h-20zm0-280h20v20h-20zm0-40h20v20h-20zm120-40h20v20h-20zm40 0h20v20h-20zm40 0h20v20h-20zm40 0h20v20h-20zm40 0h20v20h-20zm40 0h20v20h-20zm40 0h20v20h-20zm-280 0h20v20h-20zm-40 0h20v20h-20z" class="st0"/><g id="內文"><path d="M500 300h20V180h-20v100h-40V40h-20v240h-40V180h-20v120h60v60h-60v340h20V380h40v320h20V380h40v320h20V360h-60v-60zm180 0h20V200h-20v80h-40v-80h-20v80h-40v-80h-20v100h60v60h-60v160h20V380h40v320h20V380h40v320h20V360h-60v-60zM40 200h20v160H40zm300-20h20v180h-20zM40 380h120v20H40zm80-40h40v20h-40z" class="st0"/><path d="M100 280H80v80h20v-60h60v-20zm-20-60h80v20H80zM220 60V40h-20v40h140v80h20V60zm160 0h20v100h-20zm120 0h20v100h-20zm60 560h20v80h-20zM340 520v140h-20V500h-20v160h-20V520h-20v160h40v20h20v-20h40V520zM220 680V520h-40v20h20v160h60v-20zm-60-200v-20H40v80h120v-20H60v-40zm20-100v100h180V380H180zm140 80H220v-60h100v60zm-20-280v40h-60v-40h-20v40h-40v20h40v40h-40v20h40v40h-40v20h60V240h60v120h20V180z" class="st0"/><path d="M200 120v20h60v20h20v-20h40v-20z" class="st0"/></g></g></svg>