<svg xmlns="http://www.w3.org/2000/svg" width="40" height="40"><path d="M0 0v40h40V0Zm38.918 38.918H1.082V1.082h37.836Zm0 0" style="stroke:none;fill-rule:nonzero;fill:#aa0e0e;fill-opacity:1"/><path d="M2.164 2.164V9.73H9.73V2.164Zm6.484 6.484H3.242V3.242h5.406Zm0 0" style="stroke:none;fill-rule:nonzero;fill:#aa0e0e;fill-opacity:1"/><path d="M4.324 4.324h3.242v3.242H4.324Zm25.946-2.16V9.73h7.566V2.164Zm6.488 6.484h-5.406V3.242h5.406Zm0 0" style="stroke:none;fill-rule:nonzero;fill:#aa0e0e;fill-opacity:1"/><path d="M32.434 4.324h3.242v3.242h-3.242ZM2.164 30.27v7.566H9.73V30.27Zm6.484 6.488H3.242v-5.406h5.406Zm0 0" style="stroke:none;fill-rule:nonzero;fill:#aa0e0e;fill-opacity:1"/><path d="M4.324 32.434h3.242v3.242H4.324ZM30.27 30.27h1.082v1.082H30.27Zm0 0" style="stroke:none;fill-rule:nonzero;fill:#aa0e0e;fill-opacity:1"/><path d="M28.11 28.11v5.402h5.402v-5.403Zm4.324 4.324h-3.246v-3.246h3.246ZM8.648 15.137H9.73v1.078H8.648Zm0 2.16H9.73v1.082H8.648Zm0 2.164H9.73v1.078H8.648Zm0 2.16H9.73v1.082H8.648Zm0 2.164H9.73v1.078H8.648Zm0 2.16H9.73v1.082H8.648Zm0 2.164H9.73v1.078H8.648Zm0-15.136H9.73v1.082H8.648Zm0-2.16H9.73v1.078H8.648Zm6.489-2.165h1.078V9.73h-1.078Zm2.16 0h1.082V9.73h-1.082Zm2.164 0h1.078V9.73h-1.078Zm2.16 0h1.082V9.73h-1.082Zm2.164 0h1.078V9.73h-1.078Zm2.16 0h1.082V9.73h-1.082Zm2.164 0h1.078V9.73H28.11Zm-15.136 0h1.082V9.73h-1.082Zm-2.16 0h1.078V9.73h-1.079Zm0 0" style="stroke:none;fill-rule:nonzero;fill:#aa0e0e;fill-opacity:1"/><path d="M27.027 16.215h1.082V9.73h-1.082v5.407h-2.164V2.164h-1.078v12.973h-2.164V9.73H20.54v6.485h3.246v3.246H20.54v18.375h1.082V20.539h2.164v17.297h1.078V20.539h2.164v17.297h1.082V19.46h-3.246v-3.246Zm9.73 0h1.079v-5.402h-1.078v4.324h-2.164v-4.325h-1.082v4.325h-2.16v-4.325H30.27v5.403h3.242v3.246H30.27v8.648h1.082v-7.57h2.16v17.297h1.082V20.539h2.164v17.297h1.078V19.46h-3.242v-3.246ZM2.165 10.813h1.078v8.648H2.164ZM18.38 9.73h1.082v9.73h-1.082ZM2.164 20.54h6.484v1.081H2.164Zm4.324-2.161h2.16v1.082h-2.16Zm0 0" style="stroke:none;fill-rule:nonzero;fill:#aa0e0e;fill-opacity:1"/><path d="M5.406 15.137H4.324v4.324h1.082v-3.246h3.242v-1.078ZM4.324 11.89h4.324v1.082H4.324Zm7.567-8.649V2.164h-1.079v2.16h7.567v4.324h1.082V3.242Zm8.648 0h1.082v5.406H20.54Zm6.488 0h1.082v5.406h-1.082Zm3.243 30.27h1.082v4.324H30.27Zm-11.891-5.403v7.567h-1.082v-8.649h-1.082v8.649h-1.078v-7.567h-1.082v8.649h2.16v1.078h1.082v-1.078h2.164v-8.649Zm-6.488 8.649v-8.649H9.73v1.078h1.082v8.649h3.242v-1.078ZM8.648 25.945v-1.082H2.164v4.325h6.484v-1.079H3.242v-2.164ZM9.73 20.54v5.406h9.73V20.54Zm7.567 4.324H11.89v-3.242h5.406ZM16.215 9.73v2.16h-3.242V9.73H11.89v2.16H9.73v1.083h2.16v2.164H9.73v1.078h2.16v2.164H9.73v1.082h3.242v-6.488h3.242v6.488h1.082V9.73Zm0 0" style="stroke:none;fill-rule:nonzero;fill:#aa0e0e;fill-opacity:1"/><path d="M10.813 6.488v1.078h3.242v1.082h1.082V7.566h2.16V6.488Zm0 0" style="stroke:none;fill-rule:nonzero;fill:#aa0e0e;fill-opacity:1"/></svg>