<svg xmlns="http://www.w3.org/2000/svg" viewBox="0 0 183 55"><path fill="#ffc20e" d="M0 0h183v55H0z"/><path d="M27.7 17.6H49v3.8H32.2v2.8h16.9v4.2H32.2v6.8h-4.5zm24.2 0h4.4v13.2h14.3v4.4H51.9zm32.8 17.6h-8.6s-3-.1-3.3-3.3V17.6h4.4v13.5h15.4V17.6H97v14.3c-.4 3.2-3.3 3.3-3.3 3.3h-9zm16.7-17.6v17.6h4.4v-6.6l10.5 6.6h7.9l-14-9 13.3-8.6h-7.8l-9.9 6.1v-6.1zm25.3 0v17.6h22.2v-4.1h-17.8v-2.5h17.8v-4.1h-17.8v-2.7h17.8v-4.2zM157 30c-1.4 0-2.6 1.2-2.6 2.6 0 1.4 1.2 2.6 2.6 2.6 1.4 0 2.6-1.2 2.6-2.6 0-1.4-1.2-2.6-2.6-2.6zm-.1.4c.1 0 .1 0 0 0 1.3 0 2.2.9 2.2 2.2 0 1.2-.9 2.2-2.1 2.2-1.2 0-2.1-1-2.1-2.2 0-1.2.8-2.1 2-2.2zm-.9.7v3h.5v-1.3h.5l.8 1.3h.4l-.8-1.3c.4-.1.7-.4.7-.8 0-.6-.4-.9-1-.9H156zm.4 1.3v-.9h.6c.5 0 .6.1.6.5 0 .3-.2.5-.5.5h-.7v-.1z" class="st1"/></svg>