<svg xmlns="http://www.w3.org/2000/svg" xml:space="preserve" style="enable-background:new 0 0 740 740" viewBox="0 0 740 740"><style>.st0{fill:#aa0e0e}</style><g id="皇家聖"><path id="圖層_5" d="M0 0v740h740V0H0zm720 720H20V20h700v700z" class="st0"/><g id="標準"><path d="M40 40v140h140V40H40zm120 120H60V60h100v100z" class="st0"/><path d="M80 80h60v60H80zm480-40v140h140V40H560zm120 120H580V60h100v100z" class="st0"/><path d="M600 80h60v60h-60zM40 560v140h140V560H40zm120 120H60V580h100v100z" class="st0"/><path d="M80 600h60v60H80zm480-40h20v20h-20z" class="st0"/><path d="M520 520v100h100V520H520zm80 80h-60v-60h60v60z" class="st0"/></g><g id="點點"><path d="M160 200h20v20h-20zm0 40h20v20h-20zm0 40h20v20h-20zm0 39.6h20v20h-20zm0 80.4h20v20h-20zm480 120v40h-20v20h20v120h20V520zm-480-40h20v20h-20zm260 80h100v20H420zm0 60v80h20v-60h120v40H460v20h120v-80zm0-160v20h180v20H420v20h200v-40h40v-20zM40 440v100h20v-80h120v-20zm120 80h20v20h-20z" class="st0"/><path d="M60 360v-80h100v-20H60v-60H40v180h300v60H220v120h-20v20h20v100h-20v20h160v-20H240V580h120v-20H240V460h120V360zm140-200h20v20h-20zm20-60h20v60h-20zm120 0h20v60h-20zM200 60h160v20H200zm40 100h20v20h-20zm40 0h20v20h-20zm280 240v-20h-40v20H380v300h20V420h280v280h20V420h.1v-20z" class="st0"/><path d="M340 180v100H240V180h-20v120h140V180zm-20.4-20h20v20h-20zM700 240v-20H380v20h140v40H380v20h140v40H380v20h320v-20H560v-40h140v-20H560v-40zm-340-80h20v20h-20zm160 0v20h-20v-20h-20v20h-20v-20h-20v20h-20v-20h-20v20h-20v20h160v-40zm0-120v20H400V40h-20v120h20v-20h140v-20H400V80h140V40z" class="st0"/></g></g></svg>