<svg xmlns="http://www.w3.org/2000/svg" width="107" height="27" fill="none"><path fill="#B1B1B1" d="M14.207 18.317h-3.555v7.305h3.555v-7.305Z"/><path fill="#626464" d="M39.587 18.317h-3.684v7.305h3.684v-7.305Z"/><path fill="#909090" d="M26.842 18.317H23.27v7.305h3.57v-7.305Z"/><path fill="#000" d="M106.072 18.317h-57.42v7.305h57.42v-7.305Z"/><path fill="#E50012" d="M38.397 3.498s-.476.14-.47.298c.014.165 0 3.652 0 3.652s-.066.074.203.074c.267 0 1.85-.06 2.318 1.399.153 1.72.093 1.713.093 1.713V27h6.986V0h-4.14c-.003-.003-2.054 2.482-4.99 3.498Zm-12.546 0s-.479.14-.462.298c.01.165 0 3.652 0 3.652s-.073.074.193.074 1.855-.06 2.314 1.399c.156 1.72.096 1.713.096 1.713V27h6.986V0h-4.146c.003-.003-2.042 2.482-4.981 3.498Zm-12.738 0s-.469.14-.462.298c.013.165 0 3.652 0 3.652s-.067.074.2.074c.262 0 1.851-.06 2.317 1.399.153 1.72.096 1.713.096 1.713V27h6.986V0h-4.146c0-.003-2.048 2.482-4.991 3.498Zm-12.642 0s-.469.14-.462.298c.013.165 0 3.652 0 3.652s-.073.074.203.074c.259 0 1.845-.06 2.31 1.399.16 1.72.097 1.713.097 1.713V27h6.99V0H5.461c0-.003-2.052 2.482-4.991 3.498Z"/><path fill="#231815" d="M58.593 4.474c-.013.52-.027 1.23-.096 2.039.19 1.71 1.017 7.166 5.749 9.286-.366.288-.745.738-.921 1.08-3.186-1.52-4.666-4.528-5.384-6.976-.678 2.572-2.114 5.332-5.18 7.043-.216-.329-.625-.738-1.044-1.013 5.546-2.898 5.396-9.273 5.436-11.46h1.44ZM76.675 7.33s-.014.454-.027.631c-.3 5.537-.555 7.563-1.154 8.26-.365.436-.718.574-1.247.63-.488.055-1.356.041-2.154 0a3.18 3.18 0 0 0-.45-1.31c.895.08 1.723.08 2.062.08.3 0 .463-.04.622-.205.462-.436.745-2.31.978-6.78h-4.243c-.203 2.817-1.124 6.127-4.974 8.424-.203-.316-.679-.795-.978-1.026 3.525-2.04 4.406-4.937 4.609-7.399h-4.2V7.338h4.27V4.466h1.33v2.872h5.556V7.33Zm6.723 7.003.11 1.067c-1.723.422-3.551.888-4.935 1.217l-.312-1.23a202.65 202.65 0 0 0 2.168-.423v-3.625h-1.965v-1.107h1.965V8.947h-1.26V8.33c-.19.165-.38.329-.556.453-.08-.258-.379-.915-.542-1.217 1.084-.738 2.225-1.915 2.886-3.146l1.044.396c-.08.137-.162.302-.255.453.8.613 1.612 1.341 2.1 1.874l-.757.902c-.476-.52-1.234-1.244-1.939-1.86-.449.6-.947 1.176-1.463 1.683h3.146v1.08h-1.3v1.284h1.829v1.107h-1.83v3.39l1.866-.396Zm-3.81-2.404c.259.778.502 1.777.581 2.448l-.907.258c-.053-.67-.3-1.71-.529-2.502l.855-.204Zm2.17 2.2a21.68 21.68 0 0 0 .583-2.395l.95.275c-.259.795-.541 1.75-.787 2.365l-.745-.245Zm8.746-1.861a19.388 19.388 0 0 1-1.979 1.421c.582.89 1.3 1.614 2.181 2.053-.299.245-.678.738-.867 1.08-1.83-1.08-2.916-3.186-3.552-5.745h-.947v4.128l2.035-.56c0 .342.053.835.11 1.12-2.754.849-3.2 1.027-3.472 1.244-.066-.301-.256-.835-.432-1.093.256-.11.542-.328.542-.835V5.017h5.912v6.057H87.39c.177.587.38 1.15.625 1.683.582-.409 1.247-.942 1.683-1.368l.805.879Zm-5.168-6.151v1.395h3.472V6.117h-3.472Zm0 3.853h3.472V8.548h-3.472V9.97Zm10.777-2.173a18.372 18.372 0 0 1-1.476 2.093v7.123h-1.26v-5.715c-.45.453-.908.876-1.344 1.231a6.816 6.816 0 0 0-.868-1.08c1.383-1 2.846-2.555 3.758-4.101l1.19.45Zm-.515-2.87c-.921 1.217-2.331 2.572-3.582 3.46a5.928 5.928 0 0 0-.718-1.026c1.124-.738 2.428-1.955 3.093-2.941l1.207.506Zm8.133 5.251h-1.952v5.265c0 .725-.163 1.094-.678 1.298-.503.191-1.3.205-2.564.205-.053-.37-.23-.902-.406-1.271a34.88 34.88 0 0 0 2.022.013c.256 0 .339-.067.339-.258v-5.252h-4.283V8.961h7.525v1.217h-.003Zm-.379-3.736h-6.577V5.225h6.577v1.217Z"/><path fill="#fff" d="m52.79 24.092-1.02-3.061h.582l.532 1.767.2.657.172-.63.532-1.794h.582l.499 1.777.166.587.193-.59.572-1.771h.549l-1.044 3.062h-.589l-.532-1.835-.13-.523-.671 2.354h-.592Zm4.603 0-1.021-3.061h.585l.532 1.767.2.657.172-.63.533-1.794h.581l.5 1.777.165.587.193-.59.572-1.771h.549l-1.044 3.062h-.589l-.532-1.835-.13-.523-.675 2.354h-.591Zm4.598 0-1.02-3.061h.585l.532 1.767.2.657.172-.63.532-1.794h.582l.499 1.777.166.587.193-.59.572-1.771h.548l-1.044 3.062h-.588l-.532-1.835-.13-.523-.675 2.354h-.592Zm4.123.008v-.591h.649v.59h-.649Zm3.648-.008H69.2v-3.306a2.94 2.94 0 0 1-.532.359c-.22.12-.419.207-.592.268v-.503c.316-.138.592-.302.825-.497.236-.194.402-.382.502-.563h.362v4.242h-.003Zm3.561 0h-.565v-3.306c-.137.12-.316.238-.536.359-.22.12-.419.207-.595.268v-.503c.316-.138.592-.302.828-.497.236-.194.406-.382.502-.563h.366v4.242Zm3.561 0h-.568v-3.306a2.9 2.9 0 0 1-.539.359 3.97 3.97 0 0 1-.599.268v-.503a3.49 3.49 0 0 0 .832-.497c.236-.194.405-.382.505-.563h.366v4.242h.003Zm3.555 0h-.566v-3.306c-.136.12-.315.238-.535.359-.22.12-.419.207-.595.268v-.503c.316-.138.592-.302.828-.497.236-.194.406-.382.502-.563h.366v4.242Zm1.719.008v-.591h.648v.59h-.648Zm3.843-1.121.556.067c-.06.352-.216.627-.466.825-.25.198-.558.299-.924.299-.459 0-.825-.138-1.1-.41-.28-.275-.416-.667-.416-1.177 0-.332.06-.62.18-.868a1.19 1.19 0 0 1 .544-.557c.243-.124.51-.184.799-.184.362 0 .658.083.89.251.23.168.38.406.443.718l-.552.077a.83.83 0 0 0-.28-.463.756.756 0 0 0-.481-.154c-.287 0-.52.094-.695.282-.18.187-.266.482-.266.888 0 .413.086.711.259.896a.867.867 0 0 0 .671.278.832.832 0 0 0 .556-.188c.146-.127.243-.322.282-.58Zm.829-.409c0-.567.172-.986.515-1.261.286-.228.638-.339 1.05-.339.46 0 .835.138 1.128.413.292.275.435.657.435 1.143 0 .396-.063.705-.193.93a1.32 1.32 0 0 1-.562.526 1.77 1.77 0 0 1-.808.188c-.468 0-.844-.138-1.133-.413-.29-.275-.433-.67-.433-1.187Zm.581 0c0 .392.093.684.28.882a.924.924 0 0 0 .704.292.92.92 0 0 0 .702-.296c.186-.194.28-.496.28-.895 0-.379-.094-.664-.283-.862a.937.937 0 0 0-.698-.291.936.936 0 0 0-.706.291c-.186.195-.279.486-.279.879Zm3.169 1.53v-3.063h.505v.43a1.11 1.11 0 0 1 .42-.363 1.27 1.27 0 0 1 .595-.137c.246 0 .449.047.608.14a.77.77 0 0 1 .336.396c.263-.358.608-.536 1.03-.536.333 0 .586.084.766.251.179.168.266.426.266.779v2.102h-.562v-1.928c0-.208-.02-.356-.057-.45a.454.454 0 0 0-.2-.22.653.653 0 0 0-.339-.085.825.825 0 0 0-.585.215c-.156.144-.233.372-.233.687v1.778h-.565v-1.989c0-.231-.046-.402-.14-.52-.093-.114-.242-.174-.452-.174a.878.878 0 0 0-.442.114.649.649 0 0 0-.293.339c-.06.15-.09.362-.09.64v1.59h-.568v.003Zm5.46 0v-.591h.631v.59h-.631Zm2.876-.464.083.46a2.38 2.38 0 0 1-.432.047c-.206 0-.37-.03-.482-.09a.535.535 0 0 1-.243-.236c-.046-.097-.07-.301-.07-.613v-1.76h-.419v-.403h.42v-.758l.568-.312v1.07h.575v.402h-.575v1.79c0 .148.01.246.03.286.02.044.053.077.1.1.046.024.11.038.196.038.06 0 .146-.007.249-.02Zm1.223.456-1.027-3.061h.589l.535 1.767.199.657.173-.63.536-1.794h.585l.502 1.777.166.587.193-.59.575-1.771h.552l-1.05 3.062h-.592l-.536-1.835-.129-.523-.682 2.354h-.589Z"/></svg>