<svg xmlns="http://www.w3.org/2000/svg" width="40" height="40"><path d="M0 0v40h40V0Zm38.918 38.918H1.082V1.082h37.836Zm0 0" style="stroke:none;fill-rule:nonzero;fill:#aa0e0e;fill-opacity:1"/><path d="M2.164 2.164V9.73H9.73V2.164Zm6.484 6.484H3.242V3.242h5.406Zm0 0" style="stroke:none;fill-rule:nonzero;fill:#aa0e0e;fill-opacity:1"/><path d="M4.324 4.324h3.242v3.242H4.324Zm25.946-2.16V9.73h7.566V2.164Zm6.488 6.484h-5.406V3.242h5.406Zm0 0" style="stroke:none;fill-rule:nonzero;fill:#aa0e0e;fill-opacity:1"/><path d="M32.434 4.324h3.242v3.242h-3.242ZM2.164 30.27v7.566H9.73V30.27Zm6.484 6.488H3.242v-5.406h5.406Zm0 0" style="stroke:none;fill-rule:nonzero;fill:#aa0e0e;fill-opacity:1"/><path d="M4.324 32.434h3.242v3.242H4.324ZM30.27 30.27h1.082v1.082H30.27Zm0 0" style="stroke:none;fill-rule:nonzero;fill:#aa0e0e;fill-opacity:1"/><path d="M28.11 28.11v5.402h5.402v-5.403Zm4.324 4.324h-3.246v-3.246h3.246ZM8.648 10.813H9.73v1.078H8.648Zm0 2.16H9.73v1.082H8.648Zm0 2.164H9.73v1.078H8.648Zm0 2.14H9.73v1.078H8.648Zm0 4.344H9.73v1.082H8.648Zm25.946 6.488v2.16h-1.082v1.083h1.082v6.484h1.082v-9.727ZM8.648 25.945H9.73v1.082H8.648Zm14.055 4.325h5.406v1.082h-5.406Zm0 3.242v4.324h1.082v-3.242h6.485v2.164h-5.407v1.078h6.489v-4.324Zm0-8.649v1.082h9.73v1.082h-9.73v1.082h10.809v-2.164h2.164v-1.082ZM2.164 23.785v5.402h1.078v-4.324H9.73v-1.078Zm6.484 4.324H9.73v1.078H8.648Zm0 0" style="stroke:none;fill-rule:nonzero;fill:#aa0e0e;fill-opacity:1"/><path d="M3.242 19.46v-4.323h5.406v-1.082H3.242v-3.242H2.164v9.726H18.38v3.246H11.89v6.485h-1.079v1.082h1.079v5.406h-1.079v1.078h8.649v-1.078h-6.488v-5.406h6.488V30.27h-6.488v-5.407h6.488v-5.402Zm7.57-10.812h1.079V9.73h-1.079Zm1.079-3.242h1.082v3.242H11.89Zm6.488 0h1.082v3.242h-1.082Zm-7.567-2.164h8.649v1.082h-8.648Zm2.16 5.406h1.083V9.73h-1.082Zm2.165 0h1.078V9.73h-1.078ZM30.27 21.621V20.54h-2.16v1.082h-7.57v16.215h1.081V22.703h15.137v15.133h1.078V22.703h.008v-1.082Zm0 0" style="stroke:none;fill-rule:nonzero;fill:#aa0e0e;fill-opacity:1"/><path d="M18.379 9.73v5.407h-5.406V9.73H11.89v6.485h7.57V9.73Zm-1.102-1.082h1.078V9.73h-1.078Zm20.559 4.325V11.89H20.539v1.082h7.57v2.164h-7.57v1.078h7.57v2.164h-7.57v1.082h17.297v-1.082H30.27v-2.164h7.566v-1.078H30.27v-2.164ZM19.46 8.648h1.078V9.73h-1.078Zm8.648 0V9.73h-1.082V8.648h-1.082V9.73h-1.082V8.648h-1.078V9.73h-1.082V8.648h-1.082V9.73H20.54v1.082h8.648V8.649Zm0-6.484v1.078h-6.488V2.164H20.54v6.484h1.082V7.566h7.567V6.488H21.62V4.324h7.567v-2.16Zm0 0" style="stroke:none;fill-rule:nonzero;fill:#aa0e0e;fill-opacity:1"/></svg>