<svg xmlns="http://www.w3.org/2000/svg" width="410" height="410"><path d="M40 40h10v10H40zM50 40h10v10H50zM60 40h10v10H60zM70 40h10v10H70zM80 40h10v10H80zM90 40h10v10H90zM100 40h10v10h-10zM140 40h10v10h-10zM160 40h10v10h-10zM170 40h10v10h-10zM200 40h10v10h-10zM240 40h10v10h-10zM270 40h10v10h-10zM280 40h10v10h-10zM300 40h10v10h-10zM310 40h10v10h-10zM320 40h10v10h-10zM330 40h10v10h-10zM340 40h10v10h-10zM350 40h10v10h-10zM360 40h10v10h-10zM40 50h10v10H40zM100 50h10v10h-10zM130 50h10v10h-10zM150 50h10v10h-10zM200 50h10v10h-10zM220 50h10v10h-10zM230 50h10v10h-10zM240 50h10v10h-10zM250 50h10v10h-10zM260 50h10v10h-10zM270 50h10v10h-10zM300 50h10v10h-10zM360 50h10v10h-10zM40 60h10v10H40zM60 60h10v10H60zM70 60h10v10H70zM80 60h10v10H80zM100 60h10v10h-10zM140 60h10v10h-10zM150 60h10v10h-10zM200 60h10v10h-10zM220 60h10v10h-10zM230 60h10v10h-10zM240 60h10v10h-10zM260 60h10v10h-10zM270 60h10v10h-10zM300 60h10v10h-10zM320 60h10v10h-10zM330 60h10v10h-10zM340 60h10v10h-10zM360 60h10v10h-10zM40 70h10v10H40zM60 70h10v10H60zM70 70h10v10H70zM80 70h10v10H80zM100 70h10v10h-10zM140 70h10v10h-10zM160 70h10v10h-10zM190 70h10v10h-10zM200 70h10v10h-10zM260 70h10v10h-10zM270 70h10v10h-10zM300 70h10v10h-10zM320 70h10v10h-10zM330 70h10v10h-10zM340 70h10v10h-10zM360 70h10v10h-10zM40 80h10v10H40zM60 80h10v10H60zM70 80h10v10H70zM80 80h10v10H80zM100 80h10v10h-10zM120 80h10v10h-10zM160 80h10v10h-10zM170 80h10v10h-10zM180 80h10v10h-10zM190 80h10v10h-10zM230 80h10v10h-10zM240 80h10v10h-10zM260 80h10v10h-10zM270 80h10v10h-10zM300 80h10v10h-10zM320 80h10v10h-10zM330 80h10v10h-10zM340 80h10v10h-10zM360 80h10v10h-10zM40 90h10v10H40zM100 90h10v10h-10zM190 90h10v10h-10zM210 90h10v10h-10zM260 90h10v10h-10zM280 90h10v10h-10zM300 90h10v10h-10zM360 90h10v10h-10zM40 100h10v10H40zM50 100h10v10H50zM60 100h10v10H60zM70 100h10v10H70zM80 100h10v10H80zM90 100h10v10H90zM100 100h10v10h-10zM120 100h10v10h-10zM140 100h10v10h-10zM160 100h10v10h-10zM180 100h10v10h-10zM200 100h10v10h-10zM220 100h10v10h-10zM240 100h10v10h-10zM260 100h10v10h-10zM280 100h10v10h-10zM300 100h10v10h-10zM310 100h10v10h-10zM320 100h10v10h-10zM330 100h10v10h-10zM340 100h10v10h-10zM350 100h10v10h-10zM360 100h10v10h-10zM120 110h10v10h-10zM130 110h10v10h-10zM140 110h10v10h-10zM150 110h10v10h-10zM160 110h10v10h-10zM230 110h10v10h-10zM240 110h10v10h-10zM270 110h10v10h-10zM60 120h10v10H60zM70 120h10v10H70zM100 120h10v10h-10zM110 120h10v10h-10zM120 120h10v10h-10zM150 120h10v10h-10zM160 120h10v10h-10zM190 120h10v10h-10zM200 120h10v10h-10zM210 120h10v10h-10zM220 120h10v10h-10zM240 120h10v10h-10zM250 120h10v10h-10zM280 120h10v10h-10zM290 120h10v10h-10zM300 120h10v10h-10zM320 120h10v10h-10zM60 130h10v10H60zM70 130h10v10H70zM90 130h10v10H90zM130 130h10v10h-10zM150 130h10v10h-10zM160 130h10v10h-10zM170 130h10v10h-10zM220 130h10v10h-10zM230 130h10v10h-10zM240 130h10v10h-10zM260 130h10v10h-10zM270 130h10v10h-10zM290 130h10v10h-10zM300 130h10v10h-10zM340 130h10v10h-10zM350 130h10v10h-10zM360 130h10v10h-10zM40 140h10v10H40zM50 140h10v10H50zM60 140h10v10H60zM80 140h10v10H80zM90 140h10v10H90zM100 140h10v10h-10zM110 140h10v10h-10zM140 140h10v10h-10zM160 140h10v10h-10zM170 140h10v10h-10zM190 140h10v10h-10zM210 140h10v10h-10zM220 140h10v10h-10zM230 140h10v10h-10zM240 140h10v10h-10zM250 140h10v10h-10zM260 140h10v10h-10zM270 140h10v10h-10zM280 140h10v10h-10zM330 140h10v10h-10zM340 140h10v10h-10zM350 140h10v10h-10zM360 140h10v10h-10zM40 150h10v10H40zM90 150h10v10H90zM130 150h10v10h-10zM150 150h10v10h-10zM200 150h10v10h-10zM210 150h10v10h-10zM240 150h10v10h-10zM250 150h10v10h-10zM260 150h10v10h-10zM290 150h10v10h-10zM310 150h10v10h-10zM320 150h10v10h-10zM330 150h10v10h-10zM360 150h10v10h-10zM40 160h10v10H40zM80 160h10v10H80zM90 160h10v10H90zM100 160h10v10h-10zM110 160h10v10h-10zM130 160h10v10h-10zM140 160h10v10h-10zM150 160h10v10h-10zM160 160h10v10h-10zM170 160h10v10h-10zM210 160h10v10h-10zM220 160h10v10h-10zM240 160h10v10h-10zM250 160h10v10h-10zM260 160h10v10h-10zM280 160h10v10h-10zM310 160h10v10h-10zM70 170h10v10H70zM110 170h10v10h-10zM140 170h10v10h-10zM230 170h10v10h-10zM250 170h10v10h-10zM290 170h10v10h-10zM310 170h10v10h-10zM320 170h10v10h-10zM340 170h10v10h-10zM40 180h10v10H40zM50 180h10v10H50zM90 180h10v10H90zM100 180h10v10h-10zM140 180h10v10h-10zM150 180h10v10h-10zM160 180h10v10h-10zM180 180h10v10h-10zM200 180h10v10h-10zM220 180h10v10h-10zM240 180h10v10h-10zM250 180h10v10h-10zM300 180h10v10h-10zM340 180h10v10h-10zM40 190h10v10H40zM60 190h10v10H60zM80 190h10v10H80zM110 190h10v10h-10zM120 190h10v10h-10zM130 190h10v10h-10zM140 190h10v10h-10zM150 190h10v10h-10zM170 190h10v10h-10zM180 190h10v10h-10zM190 190h10v10h-10zM220 190h10v10h-10zM230 190h10v10h-10zM240 190h10v10h-10zM250 190h10v10h-10zM260 190h10v10h-10zM280 190h10v10h-10zM320 190h10v10h-10zM330 190h10v10h-10zM360 190h10v10h-10zM70 200h10v10H70zM80 200h10v10H80zM100 200h10v10h-10zM110 200h10v10h-10zM170 200h10v10h-10zM190 200h10v10h-10zM200 200h10v10h-10zM230 200h10v10h-10zM240 200h10v10h-10zM250 200h10v10h-10zM270 200h10v10h-10zM280 200h10v10h-10zM300 200h10v10h-10zM320 200h10v10h-10zM330 200h10v10h-10zM40 210h10v10H40zM90 210h10v10H90zM120 210h10v10h-10zM130 210h10v10h-10zM170 210h10v10h-10zM190 210h10v10h-10zM220 210h10v10h-10zM240 210h10v10h-10zM260 210h10v10h-10zM270 210h10v10h-10zM290 210h10v10h-10zM300 210h10v10h-10zM310 210h10v10h-10zM320 210h10v10h-10zM340 210h10v10h-10zM350 210h10v10h-10zM50 220h10v10H50zM60 220h10v10H60zM90 220h10v10H90zM100 220h10v10h-10zM110 220h10v10h-10zM120 220h10v10h-10zM140 220h10v10h-10zM150 220h10v10h-10zM180 220h10v10h-10zM210 220h10v10h-10zM220 220h10v10h-10zM230 220h10v10h-10zM260 220h10v10h-10zM340 220h10v10h-10zM60 230h10v10H60zM140 230h10v10h-10zM150 230h10v10h-10zM170 230h10v10h-10zM200 230h10v10h-10zM210 230h10v10h-10zM290 230h10v10h-10zM300 230h10v10h-10zM310 230h10v10h-10zM350 230h10v10h-10zM40 240h10v10H40zM50 240h10v10H50zM60 240h10v10H60zM100 240h10v10h-10zM110 240h10v10h-10zM150 240h10v10h-10zM160 240h10v10h-10zM170 240h10v10h-10zM180 240h10v10h-10zM190 240h10v10h-10zM200 240h10v10h-10zM220 240h10v10h-10zM230 240h10v10h-10zM240 240h10v10h-10zM250 240h10v10h-10zM290 240h10v10h-10zM310 240h10v10h-10zM330 240h10v10h-10zM340 240h10v10h-10zM360 240h10v10h-10zM60 250h10v10H60zM70 250h10v10H70zM110 250h10v10h-10zM120 250h10v10h-10zM140 250h10v10h-10zM180 250h10v10h-10zM190 250h10v10h-10zM230 250h10v10h-10zM240 250h10v10h-10zM250 250h10v10h-10zM290 250h10v10h-10zM330 250h10v10h-10zM340 250h10v10h-10zM350 250h10v10h-10zM360 250h10v10h-10zM40 260h10v10H40zM50 260h10v10H50zM60 260h10v10H60zM70 260h10v10H70zM80 260h10v10H80zM90 260h10v10H90zM100 260h10v10h-10zM110 260h10v10h-10zM120 260h10v10h-10zM150 260h10v10h-10zM160 260h10v10h-10zM180 260h10v10h-10zM200 260h10v10h-10zM210 260h10v10h-10zM230 260h10v10h-10zM300 260h10v10h-10zM320 260h10v10h-10zM340 260h10v10h-10zM350 260h10v10h-10zM360 260h10v10h-10zM40 270h10v10H40zM60 270h10v10H60zM110 270h10v10h-10zM120 270h10v10h-10zM140 270h10v10h-10zM160 270h10v10h-10zM170 270h10v10h-10zM180 270h10v10h-10zM220 270h10v10h-10zM260 270h10v10h-10zM270 270h10v10h-10zM280 270h10v10h-10zM290 270h10v10h-10zM330 270h10v10h-10zM50 280h10v10H50zM60 280h10v10H60zM80 280h10v10H80zM90 280h10v10H90zM100 280h10v10h-10zM110 280h10v10h-10zM120 280h10v10h-10zM140 280h10v10h-10zM150 280h10v10h-10zM160 280h10v10h-10zM170 280h10v10h-10zM180 280h10v10h-10zM190 280h10v10h-10zM200 280h10v10h-10zM210 280h10v10h-10zM230 280h10v10h-10zM240 280h10v10h-10zM270 280h10v10h-10zM280 280h10v10h-10zM290 280h10v10h-10zM300 280h10v10h-10zM310 280h10v10h-10zM320 280h10v10h-10zM330 280h10v10h-10zM350 280h10v10h-10zM120 290h10v10h-10zM140 290h10v10h-10zM150 290h10v10h-10zM190 290h10v10h-10zM200 290h10v10h-10zM220 290h10v10h-10zM240 290h10v10h-10zM270 290h10v10h-10zM280 290h10v10h-10zM320 290h10v10h-10zM330 290h10v10h-10zM350 290h10v10h-10zM40 300h10v10H40zM50 300h10v10H50zM60 300h10v10H60zM70 300h10v10H70zM80 300h10v10H80zM90 300h10v10H90zM100 300h10v10h-10zM120 300h10v10h-10zM130 300h10v10h-10zM140 300h10v10h-10zM180 300h10v10h-10zM190 300h10v10h-10zM210 300h10v10h-10zM260 300h10v10h-10zM270 300h10v10h-10zM280 300h10v10h-10zM300 300h10v10h-10zM320 300h10v10h-10zM330 300h10v10h-10zM340 300h10v10h-10zM40 310h10v10H40zM100 310h10v10h-10zM140 310h10v10h-10zM170 310h10v10h-10zM200 310h10v10h-10zM210 310h10v10h-10zM220 310h10v10h-10zM250 310h10v10h-10zM260 310h10v10h-10zM270 310h10v10h-10zM280 310h10v10h-10zM320 310h10v10h-10zM330 310h10v10h-10zM340 310h10v10h-10zM350 310h10v10h-10zM360 310h10v10h-10zM40 320h10v10H40zM60 320h10v10H60zM70 320h10v10H70zM80 320h10v10H80zM100 320h10v10h-10zM140 320h10v10h-10zM150 320h10v10h-10zM160 320h10v10h-10zM170 320h10v10h-10zM190 320h10v10h-10zM230 320h10v10h-10zM270 320h10v10h-10zM280 320h10v10h-10zM290 320h10v10h-10zM300 320h10v10h-10zM310 320h10v10h-10zM320 320h10v10h-10zM330 320h10v10h-10zM340 320h10v10h-10zM350 320h10v10h-10zM40 330h10v10H40zM60 330h10v10H60zM70 330h10v10H70zM80 330h10v10H80zM100 330h10v10h-10zM120 330h10v10h-10zM140 330h10v10h-10zM160 330h10v10h-10zM170 330h10v10h-10zM210 330h10v10h-10zM250 330h10v10h-10zM280 330h10v10h-10zM310 330h10v10h-10zM40 340h10v10H40zM60 340h10v10H60zM70 340h10v10H70zM80 340h10v10H80zM100 340h10v10h-10zM120 340h10v10h-10zM190 340h10v10h-10zM200 340h10v10h-10zM220 340h10v10h-10zM230 340h10v10h-10zM240 340h10v10h-10zM260 340h10v10h-10zM270 340h10v10h-10zM290 340h10v10h-10zM300 340h10v10h-10zM330 340h10v10h-10zM340 340h10v10h-10zM40 350h10v10H40zM100 350h10v10h-10zM140 350h10v10h-10zM150 350h10v10h-10zM170 350h10v10h-10zM220 350h10v10h-10zM230 350h10v10h-10zM240 350h10v10h-10zM250 350h10v10h-10zM280 350h10v10h-10zM300 350h10v10h-10zM330 350h10v10h-10zM360 350h10v10h-10zM40 360h10v10H40zM50 360h10v10H50zM60 360h10v10H60zM70 360h10v10H70zM80 360h10v10H80zM90 360h10v10H90zM100 360h10v10h-10zM200 360h10v10h-10zM220 360h10v10h-10zM290 360h10v10h-10zM310 360h10v10h-10zM320 360h10v10h-10zM330 360h10v10h-10z"/></svg>