<svg xmlns="http://www.w3.org/2000/svg" width="100" height="100"><defs><clipPath id="a"><path d="M6 30h3v3H6zM6 36h3v3H6zM6 42h3v3H6zM6 45h3v3H6zM6 51h3v3H6zM6 57h3v3H6zM6 60h3v3H6zM6 63h3v3H6zM6 66h3v3H6zM9 33h3v3H9zM9 36h3v3H9zM9 39h3v3H9zM9 42h3v3H9zM9 45h3v3H9zM9 54h3v3H9zM9 57h3v3H9zM9 66h3v3H9zM12 30h3v3h-3zM12 33h3v3h-3zM12 36h3v3h-3zM12 51h3v3h-3zM12 60h3v3h-3zM12 66h3v3h-3zM15 30h3v3h-3zM15 33h3v3h-3zM15 36h3v3h-3zM15 42h3v3h-3zM15 48h3v3h-3zM15 57h3v3h-3zM15 63h3v3h-3zM18 30h3v3h-3zM18 39h3v3h-3zM18 42h3v3h-3zM18 48h3v3h-3zM18 51h3v3h-3zM18 63h3v3h-3zM18 66h3v3h-3zM21 36h3v3h-3zM21 39h3v3h-3zM21 45h3v3h-3zM21 57h3v3h-3zM21 60h3v3h-3zM21 63h3v3h-3zM24 30h3v3h-3zM24 36h3v3h-3zM24 42h3v3h-3zM24 48h3v3h-3zM24 54h3v3h-3zM24 60h3v3h-3zM24 66h3v3h-3zM27 36h3v3h-3zM27 42h3v3h-3zM27 51h3v3h-3zM27 57h3v3h-3zM27 60h3v3h-3zM27 63h3v3h-3zM27 66h3v3h-3zM30 6h3v3h-3zM30 9h3v3h-3zM30 12h3v3h-3zM30 15h3v3h-3zM30 24h3v3h-3zM30 30h3v3h-3zM30 36h3v3h-3zM30 39h3v3h-3zM30 42h3v3h-3zM30 45h3v3h-3zM30 57h3v3h-3zM30 63h3v3h-3zM30 69h3v3h-3zM30 78h3v3h-3zM30 81h3v3h-3zM30 84h3v3h-3zM30 90h3v3h-3zM33 18h3v3h-3zM33 36h3v3h-3zM33 42h3v3h-3zM33 45h3v3h-3zM33 48h3v3h-3zM33 51h3v3h-3zM33 54h3v3h-3zM33 57h3v3h-3zM33 60h3v3h-3zM33 63h3v3h-3zM33 66h3v3h-3zM33 72h3v3h-3zM33 78h3v3h-3zM33 90h3v3h-3zM36 9h3v3h-3zM36 12h3v3h-3zM36 24h3v3h-3zM36 27h3v3h-3zM36 33h3v3h-3zM36 36h3v3h-3zM36 39h3v3h-3zM36 42h3v3h-3zM36 45h3v3h-3zM36 54h3v3h-3zM36 60h3v3h-3zM36 75h3v3h-3zM36 84h3v3h-3zM36 87h3v3h-3zM39 15h3v3h-3zM39 18h3v3h-3zM39 21h3v3h-3zM39 27h3v3h-3zM39 30h3v3h-3zM39 33h3v3h-3zM39 36h3v3h-3zM39 51h3v3h-3zM39 60h3v3h-3zM39 63h3v3h-3zM39 66h3v3h-3zM39 72h3v3h-3zM39 78h3v3h-3zM39 90h3v3h-3zM42 9h3v3h-3zM42 15h3v3h-3zM42 18h3v3h-3zM42 24h3v3h-3zM42 27h3v3h-3zM42 30h3v3h-3zM42 33h3v3h-3zM42 36h3v3h-3zM42 42h3v3h-3zM42 48h3v3h-3zM42 57h3v3h-3zM42 66h3v3h-3zM42 69h3v3h-3zM42 75h3v3h-3zM42 81h3v3h-3zM42 84h3v3h-3zM45 6h3v3h-3zM45 9h3v3h-3zM45 12h3v3h-3zM45 18h3v3h-3zM45 27h3v3h-3zM45 33h3v3h-3zM45 39h3v3h-3zM45 42h3v3h-3zM45 48h3v3h-3zM45 51h3v3h-3zM45 54h3v3h-3zM45 57h3v3h-3zM45 60h3v3h-3zM45 63h3v3h-3zM45 69h3v3h-3zM45 72h3v3h-3zM45 84h3v3h-3zM45 87h3v3h-3zM45 90h3v3h-3zM48 6h3v3h-3zM48 9h3v3h-3zM48 15h3v3h-3zM48 24h3v3h-3zM48 30h3v3h-3zM48 33h3v3h-3zM48 39h3v3h-3zM48 45h3v3h-3zM48 63h3v3h-3zM48 72h3v3h-3zM48 78h3v3h-3zM48 84h3v3h-3zM48 87h3v3h-3zM48 90h3v3h-3zM51 9h3v3h-3zM51 21h3v3h-3zM51 27h3v3h-3zM51 39h3v3h-3zM51 48h3v3h-3zM51 51h3v3h-3zM51 60h3v3h-3zM51 69h3v3h-3zM51 87h3v3h-3zM54 9h3v3h-3zM54 15h3v3h-3zM54 18h3v3h-3zM54 24h3v3h-3zM54 30h3v3h-3zM54 42h3v3h-3zM54 48h3v3h-3zM54 51h3v3h-3zM54 60h3v3h-3zM54 63h3v3h-3zM54 66h3v3h-3zM54 78h3v3h-3zM54 81h3v3h-3zM54 87h3v3h-3zM57 18h3v3h-3zM57 21h3v3h-3zM57 30h3v3h-3zM57 33h3v3h-3zM57 36h3v3h-3zM57 48h3v3h-3zM57 51h3v3h-3zM57 57h3v3h-3zM57 66h3v3h-3zM57 75h3v3h-3zM57 81h3v3h-3zM57 84h3v3h-3zM57 87h3v3h-3zM60 6h3v3h-3zM60 12h3v3h-3zM60 15h3v3h-3zM60 18h3v3h-3zM60 24h3v3h-3zM60 27h3v3h-3zM60 45h3v3h-3zM60 48h3v3h-3zM60 51h3v3h-3zM60 57h3v3h-3zM60 72h3v3h-3zM60 75h3v3h-3zM60 84h3v3h-3zM63 12h3v3h-3zM63 18h3v3h-3zM63 21h3v3h-3zM63 27h3v3h-3zM63 30h3v3h-3zM63 33h3v3h-3zM63 39h3v3h-3zM63 45h3v3h-3zM63 48h3v3h-3zM63 54h3v3h-3zM63 57h3v3h-3zM63 60h3v3h-3zM63 72h3v3h-3zM63 84h3v3h-3zM66 9h3v3h-3zM66 18h3v3h-3zM66 21h3v3h-3zM66 24h3v3h-3zM66 30h3v3h-3zM66 36h3v3h-3zM66 45h3v3h-3zM66 48h3v3h-3zM66 51h3v3h-3zM66 54h3v3h-3zM66 57h3v3h-3zM66 60h3v3h-3zM66 63h3v3h-3zM66 66h3v3h-3zM66 69h3v3h-3zM66 72h3v3h-3zM66 75h3v3h-3zM66 78h3v3h-3zM66 81h3v3h-3zM66 84h3v3h-3zM69 30h3v3h-3zM69 33h3v3h-3zM69 36h3v3h-3zM69 54h3v3h-3zM69 63h3v3h-3zM69 66h3v3h-3zM69 78h3v3h-3zM69 81h3v3h-3zM69 84h3v3h-3zM69 87h3v3h-3zM69 90h3v3h-3zM72 36h3v3h-3zM72 48h3v3h-3zM72 54h3v3h-3zM72 63h3v3h-3zM72 66h3v3h-3zM72 72h3v3h-3zM72 78h3v3h-3zM72 81h3v3h-3zM72 87h3v3h-3zM75 33h3v3h-3zM75 36h3v3h-3zM75 39h3v3h-3zM75 42h3v3h-3zM75 45h3v3h-3zM75 48h3v3h-3zM75 51h3v3h-3zM75 66h3v3h-3zM75 78h3v3h-3zM75 81h3v3h-3zM75 90h3v3h-3zM78 36h3v3h-3zM78 39h3v3h-3zM78 57h3v3h-3zM78 66h3v3h-3zM78 69h3v3h-3zM78 72h3v3h-3zM78 75h3v3h-3zM78 78h3v3h-3zM78 84h3v3h-3zM81 30h3v3h-3zM81 33h3v3h-3zM81 36h3v3h-3zM81 39h3v3h-3zM81 45h3v3h-3zM81 51h3v3h-3zM81 54h3v3h-3zM81 57h3v3h-3zM81 60h3v3h-3zM81 63h3v3h-3zM81 66h3v3h-3zM81 69h3v3h-3zM81 78h3v3h-3zM81 81h3v3h-3zM81 90h3v3h-3zM84 30h3v3h-3zM84 42h3v3h-3zM84 48h3v3h-3zM84 54h3v3h-3zM84 60h3v3h-3zM84 63h3v3h-3zM84 66h3v3h-3zM84 75h3v3h-3zM84 84h3v3h-3zM84 90h3v3h-3zM87 30h3v3h-3zM87 33h3v3h-3zM87 42h3v3h-3zM87 45h3v3h-3zM87 54h3v3h-3zM87 60h3v3h-3zM87 66h3v3h-3zM87 75h3v3h-3zM87 81h3v3h-3zM87 87h3v3h-3zM90 30h3v3h-3zM90 39h3v3h-3zM90 60h3v3h-3zM90 63h3v3h-3zM90 66h3v3h-3zM90 69h3v3h-3zM90 72h3v3h-3zM90 75h3v3h-3zM90 81h3v3h-3zM90 87h3v3h-3z"/></clipPath><clipPath id="b"><path d="M6 6v21h21V6zm3 3h15v15H9z" clip-rule="evenodd"/><path d="M12 12h3v3h-3zM12 15h3v3h-3zM12 18h3v3h-3zM15 12h3v3h-3zM15 15h3v3h-3zM15 18h3v3h-3zM18 12h3v3h-3zM18 15h3v3h-3zM18 18h3v3h-3z"/></clipPath><clipPath id="c"><path d="M93 6H72v21h21zm-3 3v15H75V9z" clip-rule="evenodd"/><path d="M78 12h3v3h-3zM78 15h3v3h-3zM78 18h3v3h-3zM81 12h3v3h-3zM81 15h3v3h-3zM81 18h3v3h-3zM84 12h3v3h-3zM84 15h3v3h-3zM84 18h3v3h-3z"/></clipPath><clipPath id="d"><path d="M6 93h21V72H6zm3-3V75h15v15z" clip-rule="evenodd"/><path d="M12 78h3v3h-3zM12 81h3v3h-3zM12 84h3v3h-3zM15 78h3v3h-3zM15 81h3v3h-3zM15 84h3v3h-3zM18 78h3v3h-3zM18 81h3v3h-3zM18 84h3v3h-3z"/></clipPath></defs><path fill="#fff" d="M0 0h100v100H0z" clip-path="url('#clip-path-background-color')"/><path d="M6 6h87v87H6z" clip-path="url('#a')"/><path d="M6 6h21v21H6z" clip-path="url('#b')"/><path d="M72 6h21v21H72z" clip-path="url('#c')"/><path d="M6 72h21v21H6z" clip-path="url('#d')"/></svg>