<svg xmlns="http://www.w3.org/2000/svg" width="40" height="40" fill="none"><path fill="url(#a)" d="M0 0h40v40H0z"/><path fill="#44A8B3" d="M15 15c.667-2.667 2.333-4 5-4 4 0 4.5 3 6.5 3.5 1.333.333 2.5-.167 3.5-1.5-.667 2.667-2.333 4-5 4-4 0-4.5-3-6.5-3.5-1.333-.333-2.5.167-3.5 1.5Zm-5 6c.667-2.667 2.333-4 5-4 4 0 4.5 3 6.5 3.5 1.333.333 2.5-.167 3.5-1.5-.667 2.667-2.333 4-5 4-4 0-4.5-3-6.5-3.5-1.333-.333-2.5.167-3.5 1.5Z"/><path fill="#4B5563" d="M10.675 33v-3.085h-1.04v-.62h2.825v.62h-1.045V33h-.74Zm2.614.07a.884.884 0 0 1-.434-.105.783.783 0 0 1-.29-.3.909.909 0 0 1-.1-.43c0-.297.128-.527.385-.69.256-.167.665-.28 1.225-.34a.682.682 0 0 0-.05-.245.364.364 0 0 0-.15-.175.501.501 0 0 0-.275-.065c-.13 0-.259.025-.386.075a2.46 2.46 0 0 0-.385.195l-.26-.49a2.488 2.488 0 0 1 .74-.315c.137-.037.279-.055.426-.055.236 0 .434.047.595.14.16.093.28.232.36.415.08.183.12.41.12.68V33h-.6l-.05-.3h-.026a1.79 1.79 0 0 1-.39.265c-.14.07-.291.105-.454.105Zm.245-.575a.563.563 0 0 0 .28-.07c.087-.05.174-.118.26-.205v-.56a2.38 2.38 0 0 0-.54.115.656.656 0 0 0-.285.18.338.338 0 0 0-.085.225c0 .11.034.19.1.24.07.05.16.075.27.075ZM15.56 33v-2.8h.735V33h-.735Zm.37-3.255a.442.442 0 0 1-.31-.105.389.389 0 0 1-.115-.295c0-.12.038-.217.115-.29a.43.43 0 0 1 .31-.11c.123 0 .225.037.305.11.08.073.12.17.12.29a.38.38 0 0 1-.12.295.446.446 0 0 1-.305.105Zm1.843 3.325a.704.704 0 0 1-.41-.105.632.632 0 0 1-.22-.3 1.423 1.423 0 0 1-.065-.45V29.01h.735v3.235c0 .083.015.142.045.175.034.033.067.05.1.05h.045a.578.578 0 0 1 .055-.01l.09.545a1.051 1.051 0 0 1-.375.065ZM19.12 33l-.72-2.8h.73l.31 1.38c.024.14.045.277.065.41.02.133.042.27.065.41h.025c.03-.14.059-.277.085-.41.027-.137.057-.273.09-.41l.34-1.38h.65l.35 1.38c.034.14.064.277.09.41.027.133.057.27.09.41h.02a27.07 27.07 0 0 1 .145-.82l.295-1.38h.685l-.69 2.8h-.865l-.295-1.22c-.03-.133-.058-.265-.085-.395-.023-.133-.05-.275-.08-.425h-.025c-.023.15-.046.292-.07.425-.023.133-.05.265-.08.395L19.96 33h-.84Zm3.852 0v-2.8h.735V33h-.735Zm.37-3.255a.442.442 0 0 1-.31-.105.389.389 0 0 1-.115-.295c0-.12.038-.217.115-.29a.43.43 0 0 1 .31-.11c.123 0 .225.037.305.11.08.073.12.17.12.29a.38.38 0 0 1-.12.295.446.446 0 0 1-.305.105ZM24.489 33v-2.8h.6l.055.37h.015c.124-.12.259-.223.405-.31a.974.974 0 0 1 .505-.13c.304 0 .524.1.66.3.137.197.205.472.205.825V33H26.2v-1.655c0-.217-.031-.368-.095-.455-.06-.087-.16-.13-.3-.13a.561.561 0 0 0-.3.08 1.743 1.743 0 0 0-.28.235V33h-.735Zm4.188.07c-.233 0-.436-.058-.61-.175a1.126 1.126 0 0 1-.395-.505 2.015 2.015 0 0 1-.14-.79c0-.303.055-.563.165-.78.114-.22.26-.39.44-.51s.37-.18.57-.18c.157 0 .289.028.395.085.11.053.215.127.315.22l-.025-.44v-.985h.735V33h-.6l-.055-.29h-.02a1.53 1.53 0 0 1-.355.255.892.892 0 0 1-.42.105Zm.19-.605c.1 0 .192-.022.275-.065a.816.816 0 0 0 .25-.225v-1.23a.725.725 0 0 0-.26-.16.733.733 0 0 0-.265-.05c-.103 0-.2.033-.29.1a.657.657 0 0 0-.21.285c-.053.127-.08.283-.08.47 0 .193.022.355.065.485.047.13.114.228.2.295a.52.52 0 0 0 .315.095Z"/><defs><linearGradient id="a" x1="20" x2="20" y1="0" y2="40" gradientUnits="userSpaceOnUse"><stop stop-color="#F9FAFB"/><stop offset="1" stop-color="#E5E7EB"/></linearGradient></defs></svg>