<svg xmlns="http://www.w3.org/2000/svg" width="40" height="40" fill="none"><path fill="url(#a)" d="M0 0h40v40H0z"/><g clip-path="url(#b)"><path fill="#185C37" d="m22.558 16.46-7.907-1.393v10.292a.85.85 0 0 0 .853.85h13.642a.85.85 0 0 0 .854-.85v-3.792l-7.442-5.107Z"/><path fill="#21A366" d="M22.558 7.638h-7.054a.85.85 0 0 0-.853.851v3.792l7.907 4.643 4.186 1.393L30 16.924v-4.643l-7.442-4.643Z"/><path fill="#107C41" d="M14.651 12.281h7.907v4.643H14.65v-4.643Z"/><path fill="#000" d="M20.31 11.353H14.65V22.96h5.659a.857.857 0 0 0 .853-.85v-9.906a.857.857 0 0 0-.853-.851Z" opacity=".1"/><path fill="#000" d="M19.845 11.817H14.65v11.607h5.194a.858.858 0 0 0 .853-.85v-9.906a.858.858 0 0 0-.853-.85Z" opacity=".2"/><path fill="#000" d="M19.845 11.817H14.65v10.679h5.194a.857.857 0 0 0 .853-.851v-8.977a.858.858 0 0 0-.853-.85Z" opacity=".2"/><path fill="#000" d="M19.38 11.817H14.65v10.679h4.729a.857.857 0 0 0 .853-.851v-8.977a.858.858 0 0 0-.853-.85Z" opacity=".2"/><path fill="url(#c)" d="M10.853 11.817h8.527a.853.853 0 0 1 .853.85v8.514a.852.852 0 0 1-.853.85h-8.527a.85.85 0 0 1-.853-.85v-8.513a.85.85 0 0 1 .853-.85Z"/><path fill="#fff" d="m12.643 19.69 1.793-2.774-1.643-2.758h1.32l.896 1.766c.083.167.143.292.17.374h.012c.059-.133.12-.263.186-.39l.959-1.747h1.214l-1.685 2.742 1.728 2.79H16.3l-1.036-1.937a1.71 1.71 0 0 1-.122-.26h-.017c-.03.088-.07.172-.12.25l-1.067 1.945h-1.296Z"/><path fill="#33C481" d="M29.147 7.638h-6.59v4.643H30V8.49a.85.85 0 0 0-.853-.85Z"/><path fill="#107C41" d="M22.558 16.924H30v4.643h-7.442v-4.643Z"/></g><path fill="#4B5563" d="M14.754 33.076V29.37h2.27v.62h-1.53v.855h1.295v.62h-1.295v.99h1.585v.62h-2.325Zm2.437 0 .875-1.455-.82-1.345h.79l.28.495.12.24.13.235h.02c.034-.077.067-.155.1-.235l.11-.24.23-.495h.76l-.82 1.425.875 1.375h-.79l-.31-.515a5.708 5.708 0 0 0-.135-.245 4.078 4.078 0 0 0-.135-.24h-.025a8.13 8.13 0 0 0-.235.485l-.255.515h-.765Zm4.152.07c-.257 0-.488-.058-.695-.175a1.262 1.262 0 0 1-.49-.5c-.12-.22-.18-.485-.18-.795 0-.31.065-.573.195-.79.133-.22.308-.388.525-.505.22-.117.456-.175.71-.175.173 0 .326.03.46.09.133.057.252.132.355.225l-.35.465a.751.751 0 0 0-.205-.135.553.553 0 0 0-.22-.045.67.67 0 0 0-.63.41c-.057.13-.085.283-.085.46 0 .177.028.33.085.46.06.13.141.232.245.305a.68.68 0 0 0 .65.04c.093-.043.178-.097.255-.16l.29.485a1.334 1.334 0 0 1-.445.26 1.48 1.48 0 0 1-.47.08Zm2.49 0c-.26 0-.494-.058-.704-.175a1.312 1.312 0 0 1-.505-.505 1.59 1.59 0 0 1-.185-.79c0-.227.035-.43.105-.61.073-.18.171-.333.295-.46.126-.13.266-.228.42-.295.156-.07.318-.105.485-.105.256 0 .471.058.645.175.173.113.303.272.39.475.09.2.135.43.135.69 0 .067-.004.132-.01.195a.987.987 0 0 1-.025.145h-1.725c.02.15.065.277.135.38.07.103.16.182.27.235.11.05.235.075.375.075.113 0 .22-.015.32-.045.1-.033.201-.082.305-.145l.25.45c-.137.093-.29.168-.46.225-.17.057-.342.085-.515.085Zm-.694-1.755h1.145c0-.187-.044-.335-.13-.445-.084-.113-.217-.17-.4-.17a.572.572 0 0 0-.275.07.56.56 0 0 0-.22.205.82.82 0 0 0-.12.34Zm3.075 1.755a.704.704 0 0 1-.41-.105.632.632 0 0 1-.22-.3 1.423 1.423 0 0 1-.065-.45v-3.205h.735v3.235c0 .083.015.142.045.175.033.033.067.05.1.05h.045a.612.612 0 0 1 .055-.01l.09.545a1.051 1.051 0 0 1-.375.065Z"/><defs><linearGradient id="a" x1="20" x2="20" y1="0" y2="40" gradientUnits="userSpaceOnUse"><stop stop-color="#F9FAFB"/><stop offset="1" stop-color="#E5E7EB"/></linearGradient><linearGradient id="c" x1="11.781" x2="18.451" y1="11.149" y2="22.7" gradientUnits="userSpaceOnUse"><stop stop-color="#18884F"/><stop offset=".5" stop-color="#117E43"/><stop offset="1" stop-color="#0B6631"/></linearGradient><clipPath id="b"><path fill="#fff" d="M10 6.924h20v20H10z"/></clipPath></defs></svg>