<svg xmlns="http://www.w3.org/2000/svg" width="40" height="40" fill="none"><path fill="url(#a)" d="M0 0h40v40H0z"/><path fill="#A23C2A" d="M14.97 33v-3.685h2.174v.49H15.55v1.025h1.35v.49h-1.35v1.185h1.65V33h-2.23Zm2.373 0 .885-1.435-.825-1.32h.625l.325.555.13.23.13.235h.025c.033-.08.068-.158.105-.235l.12-.23.29-.555h.6l-.825 1.38.885 1.375h-.625l-.36-.585-.135-.245a2.937 2.937 0 0 0-.15-.24h-.025l-.125.24c-.044.08-.087.162-.13.245l-.32.585h-.6Zm3.975.07c-.25 0-.474-.057-.67-.17a1.27 1.27 0 0 1-.47-.495 1.624 1.624 0 0 1-.175-.78c0-.307.063-.567.19-.78.126-.217.293-.382.5-.495.206-.113.43-.17.67-.17.176 0 .33.03.46.09s.245.135.345.225l-.285.375a.9.9 0 0 0-.23-.155.573.573 0 0 0-.26-.06.702.702 0 0 0-.41.125.823.823 0 0 0-.285.34c-.067.143-.1.312-.1.505s.033.363.1.51a.809.809 0 0 0 .275.335.758.758 0 0 0 .725.05c.1-.05.191-.11.275-.18l.24.385c-.127.113-.269.2-.425.26a1.373 1.373 0 0 1-.47.085Zm2.461 0c-.25 0-.476-.057-.68-.17a1.283 1.283 0 0 1-.485-.495 1.587 1.587 0 0 1-.18-.78c0-.223.035-.423.105-.6a1.338 1.338 0 0 1 .69-.745c.15-.067.304-.1.46-.1.244 0 .449.055.615.165.167.107.294.258.38.455a1.65 1.65 0 0 1 .12.845.666.666 0 0 1-.02.13H23c.017.173.062.323.135.45.077.123.175.22.295.29.124.067.264.1.42.1.124 0 .239-.018.345-.055.107-.037.21-.087.31-.15l.2.365a2.02 2.02 0 0 1-.425.21 1.43 1.43 0 0 1-.5.085Zm-.785-1.695h1.32c0-.233-.053-.415-.16-.545-.103-.13-.255-.195-.455-.195a.639.639 0 0 0-.32.085.73.73 0 0 0-.255.25c-.066.11-.11.245-.13.405Zm3.037 1.695a.586.586 0 0 1-.335-.085.497.497 0 0 1-.18-.25 1.218 1.218 0 0 1-.055-.385v-3.335h.575v3.365c0 .077.014.132.04.165.03.03.062.045.095.045h.04a.545.545 0 0 1 .06-.01l.07.435a.73.73 0 0 1-.125.035.731.731 0 0 1-.185.02ZM29.167 8.25c.227 0 .422.083.583.25.167.161.25.356.25.583v15.834a.782.782 0 0 1-.25.583.782.782 0 0 1-.583.25H15.833a.782.782 0 0 1-.583-.25.782.782 0 0 1-.25-.583V22h-4.167a.782.782 0 0 1-.583-.25.782.782 0 0 1-.25-.583v-8.334c0-.227.083-.422.25-.583a.765.765 0 0 1 .583-.25H15V9.083c0-.227.083-.422.25-.583a.782.782 0 0 1 .583-.25h13.334ZM15 18.067l1.183 2.216h1.784l-1.984-3.225 1.95-3.166h-1.716l-1.084 2-.041.066-.034.075-.533-1.066-.55-1.075h-1.817l1.892 3.183-2.067 3.208h1.8L15 18.067Zm6.875 6.433V22H16.25v2.5h5.625Zm0-3.75v-3.125H20v3.125h1.875Zm0-4.375V13.25H20v3.125h1.875Zm0-4.375V9.5H16.25V12h5.625Zm6.875 12.5V22h-5.625v2.5h5.625Zm0-3.75v-3.125h-5.625v3.125h5.625Zm0-4.375V13.25h-5.625v3.125h5.625Zm0-4.375V9.5h-5.625V12h5.625Z"/><defs><linearGradient id="a" x1="20" x2="20" y1="0" y2="40" gradientUnits="userSpaceOnUse"><stop stop-color="#fff"/><stop offset="1" stop-color="#F1F5F9"/></linearGradient></defs></svg>