<svg xmlns="http://www.w3.org/2000/svg" width="40" height="40" fill="none"><path fill="url(#a)" d="M0 0h40v40H0z"/><path fill="#15796E" d="M4.812 33v-3.705h1.215c.274 0 .519.037.735.11.22.073.394.195.52.365.13.167.195.397.195.69 0 .28-.065.512-.195.695-.126.18-.298.313-.515.4-.213.087-.453.13-.72.13h-.495V33h-.74Zm.74-1.9h.445c.254 0 .442-.053.565-.16.127-.107.19-.267.19-.48 0-.213-.066-.362-.2-.445-.13-.087-.323-.13-.58-.13h-.42V31.1ZM8.087 33v-2.8h.6l.055.495h.015c.104-.183.225-.323.365-.42a.749.749 0 0 1 .62-.125c.05.01.095.023.135.04l-.12.635a1.642 1.642 0 0 0-.3-.045.604.604 0 0 0-.34.125c-.116.083-.215.225-.295.425V33h-.735Zm3.32.07c-.26 0-.495-.058-.705-.175a1.313 1.313 0 0 1-.505-.505 1.592 1.592 0 0 1-.185-.79c0-.227.035-.43.105-.61.073-.18.172-.333.295-.46a1.32 1.32 0 0 1 .42-.295c.157-.07.318-.105.485-.105.257 0 .472.058.645.175.173.113.303.272.39.475.09.2.135.43.135.69 0 .067-.003.132-.01.195a.99.99 0 0 1-.025.145h-1.725c.02.15.065.277.135.38a.68.68 0 0 0 .27.235c.11.05.235.075.375.075.113 0 .22-.015.32-.045.1-.033.202-.082.305-.145l.25.45c-.137.093-.29.168-.46.225-.17.057-.342.085-.515.085Zm-.695-1.755h1.145c0-.187-.043-.335-.13-.445-.083-.113-.217-.17-.4-.17a.571.571 0 0 0-.275.07.56.56 0 0 0-.22.205.82.82 0 0 0-.12.34ZM13.092 33v-2.8h.6l.055.375h.015c.117-.12.244-.223.38-.31a.852.852 0 0 1 .48-.135c.2 0 .36.043.48.13a.797.797 0 0 1 .285.36c.134-.137.27-.252.41-.345a.847.847 0 0 1 .485-.145c.3 0 .519.1.655.3.14.197.21.472.21.825V33h-.73v-1.655c0-.217-.031-.368-.095-.455-.063-.087-.161-.13-.295-.13a.504.504 0 0 0-.255.08c-.086.05-.181.128-.285.235V33h-.735v-1.655c0-.217-.031-.368-.095-.455-.063-.087-.161-.13-.295-.13a.523.523 0 0 0-.255.08c-.09.05-.183.128-.28.235V33h-.735Zm4.82 0v-2.8h.735V33h-.735Zm.37-3.255a.442.442 0 0 1-.31-.105.389.389 0 0 1-.115-.295c0-.12.038-.217.115-.29a.43.43 0 0 1 .31-.11c.123 0 .225.037.305.11.08.073.12.17.12.29a.38.38 0 0 1-.12.295.446.446 0 0 1-.305.105Zm2.368 3.325c-.26 0-.495-.058-.705-.175a1.312 1.312 0 0 1-.505-.505 1.59 1.59 0 0 1-.185-.79c0-.227.035-.43.105-.61.073-.18.172-.333.295-.46.127-.13.267-.228.42-.295.157-.07.319-.105.485-.105.257 0 .472.058.645.175.174.113.304.272.39.475.09.2.135.43.135.69 0 .067-.003.132-.01.195a.99.99 0 0 1-.025.145H19.97c.02.15.065.277.135.38a.68.68 0 0 0 .27.235c.11.05.235.075.375.075.113 0 .22-.015.32-.045.1-.033.202-.082.305-.145l.25.45c-.137.093-.29.168-.46.225-.17.057-.341.085-.515.085Zm-.695-1.755H21.1c0-.187-.043-.335-.13-.445-.083-.113-.216-.17-.4-.17a.571.571 0 0 0-.275.07.56.56 0 0 0-.22.205.82.82 0 0 0-.12.34ZM22.335 33v-2.8h.6l.055.495h.015c.104-.183.225-.323.365-.42a.749.749 0 0 1 .62-.125c.05.01.095.023.135.04l-.12.635a1.635 1.635 0 0 0-.3-.045.604.604 0 0 0-.34.125c-.116.083-.215.225-.295.425V33h-.735Zm3.32.07c-.26 0-.495-.058-.705-.175a1.313 1.313 0 0 1-.505-.505 1.592 1.592 0 0 1-.185-.79c0-.227.035-.43.105-.61.073-.18.172-.333.295-.46a1.32 1.32 0 0 1 .42-.295c.157-.07.318-.105.485-.105.257 0 .472.058.645.175.173.113.303.272.39.475.09.2.135.43.135.69 0 .067-.003.132-.01.195a.976.976 0 0 1-.025.145h-1.725c.02.15.065.277.135.38a.68.68 0 0 0 .27.235c.11.05.235.075.375.075.113 0 .22-.015.32-.045.1-.033.202-.082.305-.145l.25.45c-.137.093-.29.168-.46.225-.17.057-.342.085-.515.085Zm-.695-1.755h1.145c0-.187-.043-.335-.13-.445-.083-.113-.217-.17-.4-.17a.572.572 0 0 0-.275.07.56.56 0 0 0-.22.205.82.82 0 0 0-.12.34ZM28.533 33v-3.705h1.215c.273 0 .518.037.735.11.22.073.393.195.52.365.13.167.195.397.195.69 0 .28-.065.512-.195.695-.127.18-.298.313-.515.4-.213.087-.453.13-.72.13h-.495V33h-.74Zm.74-1.9h.445c.253 0 .442-.053.565-.16.127-.107.19-.267.19-.48 0-.213-.066-.362-.2-.445-.13-.087-.323-.13-.58-.13h-.42V31.1Zm2.535 1.9v-2.8h.6l.055.495h.015c.103-.183.225-.323.365-.42a.748.748 0 0 1 .62-.125c.05.01.095.023.135.04l-.12.635a1.643 1.643 0 0 0-.3-.045.604.604 0 0 0-.34.125c-.117.083-.215.225-.295.425V33h-.735Zm3.27.07a1.322 1.322 0 0 1-1.155-.675 1.568 1.568 0 0 1-.19-.795c0-.31.063-.573.19-.79.126-.22.291-.388.495-.505a1.322 1.322 0 0 1 1.595.215c.126.123.226.277.3.46.073.18.11.387.11.62 0 .31-.064.575-.19.795a1.333 1.333 0 0 1-1.155.675Zm0-.6a.493.493 0 0 0 .32-.105.644.644 0 0 0 .2-.305c.046-.13.07-.283.07-.46 0-.177-.024-.33-.07-.46a.613.613 0 0 0-.2-.3.479.479 0 0 0-.32-.11.498.498 0 0 0-.325.11.661.661 0 0 0-.2.3 1.46 1.46 0 0 0-.065.46c0 .177.021.33.065.46.046.13.113.232.2.305.09.07.198.105.325.105Z"/><g clip-path="url(#b)"><path fill="#15796E" fill-rule="evenodd" d="M26.458 7.25H13.542A3.539 3.539 0 0 0 10 10.792v12.416a3.539 3.539 0 0 0 3.542 3.542h12.916A3.539 3.539 0 0 0 30 23.208V10.792a3.539 3.539 0 0 0-3.542-3.542Zm-11.708 5.1v8.575c0 .075.033.108.1.108h1.617a.104.104 0 0 0 .091-.117v-2.675h.145l.074.002.045.001.04.002c.019 0 .037.002.055.004l.028.002.031.002.035.002.06.001H17.4c.657-.004 1.26-.08 1.807-.282.542-.2 1.009-.55 1.342-1.017.333-.466.5-1.058.5-1.775a3.19 3.19 0 0 0-.192-1.083 2.656 2.656 0 0 0-.608-.95 2.977 2.977 0 0 0-1.117-.684c-.466-.175-1.033-.258-1.716-.258h-.25c-.168.001-.337.003-.509.008l-.085.003-.168.004-.241.004c-.079.002-.156.003-.23.006l-.084.003-.082.002-.24.005-.228.007-.04.002-.076.002-.07.002-.066.001-.094.001h-.12c-.059 0-.084.034-.084.092Zm1.817 4.316v-2.8h.01l.024-.003.013-.002.03-.002.034-.002h.019l.04-.002h.068l.05.001.053.002.115-.004.082-.002.087-.001h.09l.193-.001c.342-.008.675.042.983.167l.03.011c.229.094.418.256.554.463.133.225.2.482.191.742 0 .367-.083.65-.258.858a1.433 1.433 0 0 1-.683.442c-.309.1-.634.15-.959.15h-.441c-.076 0-.152-.004-.227-.01l-.098-.006Zm7.108-2.316h-1.458l-.004-.003c-.01-.005-.021-.004-.021.003a.077.077 0 0 0-.059.091l.002.024c.016.183.032.36.032.543l.005.163.006.325.005.162c.009.217.009.425.009.625v4.65c.008.067.066.108.133.1h1.642c.075 0 .108-.033.108-.117v-4.25c.117-.133.267-.233.425-.308.225-.1.458-.175.7-.225l.059-.013c.274-.057.561-.078.841-.07.092 0 .133-.025.133-.092V14.3c-.008-.059-.058-.1-.116-.092-.442 0-.884.108-1.267.325l-.046.026a3.1 3.1 0 0 0-.846.69c0-.077-.004-.15-.01-.219l-.006-.08a2.755 2.755 0 0 0-.042-.258.847.847 0 0 0-.05-.209l-.005-.012a.186.186 0 0 0-.17-.121Z" clip-rule="evenodd"/></g><defs><linearGradient id="a" x1="20" x2="20" y1="0" y2="40" gradientUnits="userSpaceOnUse"><stop stop-color="#fff"/><stop offset="1" stop-color="#F1F5F9"/></linearGradient><clipPath id="b"><path fill="#fff" d="M10 7h20v20H10z"/></clipPath></defs></svg>