<svg xmlns="http://www.w3.org/2000/svg" width="40" height="40" fill="none"><path fill="url(#a)" d="M0 0h40v40H0z"/><path fill="#1881F2" d="M8.594 33.07a1.961 1.961 0 0 1-1.35-.54l.425-.51c.13.123.278.223.445.3.17.073.335.11.495.11.193 0 .34-.038.44-.115a.37.37 0 0 0 .15-.31.309.309 0 0 0-.075-.22.616.616 0 0 0-.195-.15 3.078 3.078 0 0 0-.29-.13l-.49-.215a1.753 1.753 0 0 1-.36-.2 1.12 1.12 0 0 1-.285-.325.932.932 0 0 1-.11-.465.94.94 0 0 1 .165-.545c.11-.16.261-.287.455-.38.193-.097.413-.145.66-.145.22 0 .431.042.635.125.203.083.38.202.53.355l-.375.46a1.46 1.46 0 0 0-.365-.225 1.086 1.086 0 0 0-.425-.08.642.642 0 0 0-.385.105.33.33 0 0 0-.14.285c0 .087.026.158.08.215a.736.736 0 0 0 .21.15c.086.04.181.082.285.125l.485.195c.15.06.28.135.39.225.113.09.2.198.26.325.063.127.095.28.095.46 0 .2-.055.385-.165.555-.107.17-.262.307-.465.41-.2.103-.444.155-.73.155Zm2.64 0a.885.885 0 0 1-.435-.105.783.783 0 0 1-.29-.3.909.909 0 0 1-.1-.43c0-.297.128-.527.385-.69.256-.167.665-.28 1.225-.34a.68.68 0 0 0-.05-.245.364.364 0 0 0-.15-.175.501.501 0 0 0-.275-.065c-.13 0-.258.025-.385.075a2.46 2.46 0 0 0-.385.195l-.26-.49a2.494 2.494 0 0 1 .74-.315c.136-.037.278-.055.425-.055.236 0 .435.047.595.14.16.093.28.232.36.415.08.183.12.41.12.68V33h-.6l-.05-.3h-.025a1.79 1.79 0 0 1-.39.265c-.14.07-.292.105-.455.105Zm.245-.575a.563.563 0 0 0 .28-.07 1.27 1.27 0 0 0 .26-.205v-.56a2.38 2.38 0 0 0-.54.115.657.657 0 0 0-.285.18.338.338 0 0 0-.085.225c0 .11.033.19.1.24.07.05.16.075.27.075Zm2.824.575a1.6 1.6 0 0 1-.57-.11 1.823 1.823 0 0 1-.495-.28l.335-.465c.123.093.245.168.365.225a.96.96 0 0 0 .385.08c.14 0 .242-.027.305-.08a.27.27 0 0 0 .1-.215.218.218 0 0 0-.085-.175.769.769 0 0 0-.22-.13 5.456 5.456 0 0 0-.28-.115 2.808 2.808 0 0 1-.35-.17.953.953 0 0 1-.285-.255.659.659 0 0 1-.115-.395.76.76 0 0 1 .13-.44.876.876 0 0 1 .36-.305c.157-.073.342-.11.555-.11.203 0 .383.035.54.105.16.07.297.15.41.24l-.33.445c-.1-.073-.2-.132-.3-.175a.727.727 0 0 0-.3-.065c-.13 0-.225.025-.285.075a.242.242 0 0 0-.09.195c0 .067.025.123.075.17a.69.69 0 0 0 .205.115l.275.105c.093.033.185.073.275.12.093.043.178.097.255.16a.71.71 0 0 1 .25.565.824.824 0 0 1-.13.45.872.872 0 0 1-.375.32 1.433 1.433 0 0 1-.61.115Zm2.476 0a1.6 1.6 0 0 1-.57-.11 1.823 1.823 0 0 1-.495-.28l.335-.465c.123.093.245.168.364.225a.96.96 0 0 0 .386.08c.14 0 .241-.027.305-.08a.27.27 0 0 0 .1-.215.218.218 0 0 0-.085-.175.769.769 0 0 0-.22-.13 5.456 5.456 0 0 0-.28-.115 2.808 2.808 0 0 1-.35-.17.953.953 0 0 1-.285-.255.659.659 0 0 1-.116-.395.76.76 0 0 1 .13-.44.876.876 0 0 1 .36-.305c.157-.073.342-.11.555-.11.204 0 .384.035.54.105.16.07.297.15.41.24l-.33.445c-.1-.073-.2-.132-.3-.175a.727.727 0 0 0-.3-.065c-.13 0-.224.025-.285.075a.242.242 0 0 0-.09.195c0 .067.026.123.076.17a.69.69 0 0 0 .204.115l.275.105c.094.033.186.073.276.12.093.043.178.097.255.16a.71.71 0 0 1 .25.565.824.824 0 0 1-.13.45.872.872 0 0 1-.375.32 1.433 1.433 0 0 1-.61.115Zm2.483.835 1.245-4.935h.485l-1.24 4.935h-.49Zm4.556-.835a1.961 1.961 0 0 1-1.35-.54l.425-.51c.13.123.279.223.445.3.17.073.335.11.495.11.194 0 .34-.038.44-.115a.37.37 0 0 0 .15-.31.309.309 0 0 0-.075-.22.616.616 0 0 0-.195-.15 3.074 3.074 0 0 0-.29-.13l-.49-.215a1.755 1.755 0 0 1-.36-.2 1.121 1.121 0 0 1-.285-.325.932.932 0 0 1-.11-.465.94.94 0 0 1 .165-.545c.11-.16.262-.287.455-.38.194-.097.414-.145.66-.145.22 0 .432.042.635.125.204.083.38.202.53.355l-.375.46a1.46 1.46 0 0 0-.365-.225 1.086 1.086 0 0 0-.425-.08.642.642 0 0 0-.385.105.33.33 0 0 0-.14.285c0 .087.027.158.08.215a.736.736 0 0 0 .21.15c.087.04.182.082.285.125l.485.195c.15.06.28.135.39.225.114.09.2.198.26.325.064.127.095.28.095.46 0 .2-.055.385-.165.555-.106.17-.261.307-.465.41-.2.103-.443.155-.73.155Zm3.145 0c-.256 0-.488-.058-.695-.175a1.264 1.264 0 0 1-.49-.5c-.12-.22-.18-.485-.18-.795 0-.31.065-.573.195-.79.134-.22.309-.388.525-.505.22-.117.457-.175.71-.175.174 0 .327.03.46.09.134.057.252.132.355.225l-.35.465a.75.75 0 0 0-.205-.135.553.553 0 0 0-.22-.045.67.67 0 0 0-.63.41c-.056.13-.085.283-.085.46 0 .177.029.33.085.46.06.13.142.232.245.305a.682.682 0 0 0 .65.04c.094-.043.179-.097.255-.16l.29.485a1.334 1.334 0 0 1-.445.26c-.16.053-.316.08-.47.08Zm2.247 0c-.187 0-.377-.037-.57-.11a1.823 1.823 0 0 1-.495-.28l.335-.465c.123.093.245.168.365.225.123.053.252.08.385.08.14 0 .242-.027.305-.08a.27.27 0 0 0 .1-.215.218.218 0 0 0-.085-.175.767.767 0 0 0-.22-.13 5.456 5.456 0 0 0-.28-.115 2.815 2.815 0 0 1-.35-.17.953.953 0 0 1-.285-.255.66.66 0 0 1-.115-.395.76.76 0 0 1 .13-.44.876.876 0 0 1 .36-.305c.157-.073.342-.11.555-.11.204 0 .384.035.54.105.16.07.297.15.41.24l-.33.445c-.1-.073-.2-.132-.3-.175a.726.726 0 0 0-.3-.065c-.13 0-.225.025-.285.075a.242.242 0 0 0-.09.195c0 .067.025.123.075.17.05.043.118.082.205.115l.275.105c.093.033.185.073.275.12.093.043.178.097.255.16a.71.71 0 0 1 .25.565.824.824 0 0 1-.13.45.872.872 0 0 1-.375.32 1.432 1.432 0 0 1-.61.115Zm2.476 0c-.187 0-.377-.037-.57-.11a1.823 1.823 0 0 1-.495-.28l.335-.465c.123.093.245.168.365.225.123.053.251.08.385.08.14 0 .241-.027.305-.08a.27.27 0 0 0 .1-.215.218.218 0 0 0-.085-.175.767.767 0 0 0-.22-.13 5.456 5.456 0 0 0-.28-.115 2.815 2.815 0 0 1-.35-.17.953.953 0 0 1-.285-.255.66.66 0 0 1-.115-.395.76.76 0 0 1 .13-.44.876.876 0 0 1 .36-.305c.156-.073.341-.11.555-.11.203 0 .383.035.54.105.16.07.296.15.41.24l-.33.445c-.1-.073-.2-.132-.3-.175a.726.726 0 0 0-.3-.065c-.13 0-.225.025-.285.075a.242.242 0 0 0-.09.195c0 .067.025.123.075.17.05.043.118.082.205.115l.275.105c.093.033.185.073.275.12.093.043.178.097.255.16a.71.71 0 0 1 .25.565.824.824 0 0 1-.13.45.872.872 0 0 1-.375.32 1.432 1.432 0 0 1-.61.115Z"/><g clip-path="url(#b)"><path fill="#1881F2" fill-rule="evenodd" d="M25.556 8.685a10 10 0 1 0-11.112 16.63 10 10 0 0 0 11.112-16.63ZM20.088 9.91c2.787-.987 5.732-.406 6.185 1.37.445 1.746-1.07 3.836-3.014 4.585a6.143 6.143 0 0 1-3.756.371 1.9 1.9 0 0 1-1.158-.91l-.002-.005c-.037-.097-.098-.257.002-.313.063-.034.088-.026.257.16a2.408 2.408 0 0 0 2.023.513c3.204-.36 5.134-2.849 4.524-4.189-.427-.938-2.897-1.361-5.982.176-3.764 1.878-3.968 3.425-4 4.013-.061 1.117.916 1.869 1.897 2.624.438.337.877.674 1.225 1.045l.077.086a4.784 4.784 0 0 1 1.564-.215c1.822-.03 2.852 1.174 2.81 2.245a1.368 1.368 0 0 1-.955 1.22c-.105.017-.161.02-.176-.062-.011-.057.027-.083.15-.16a1.157 1.157 0 0 0 .556-.785c.066-.458-.278-1.553-2.033-1.758a4 4 0 0 0-1.53.088 3.443 3.443 0 0 1-.337 3.062 3.143 3.143 0 0 1-3.392 1.375c-.425-.118-1.066-.995-.513-2.218.526-1.157 2.766-2.292 3.072-2.442v-.005c-.26-.224-.614-.468-1.003-.736-1.164-.802-2.648-1.824-2.916-3.205-.1-.522.144-1.772 1.68-3.208a14 14 0 0 1 4.745-2.722Zm-2.096 11.915a2.57 2.57 0 0 0 .021-1.494l-.09.05a6.784 6.784 0 0 0-1.768 1.258c-.673.712-.861 1.606-.486 1.824.348.202 1.16-.038 1.741-.672a2.86 2.86 0 0 0 .527-.816c.02-.05.039-.1.055-.15Z" clip-rule="evenodd"/></g><defs><linearGradient id="a" x1="20" x2="20" y1="0" y2="40" gradientUnits="userSpaceOnUse"><stop stop-color="#fff"/><stop offset="1" stop-color="#F1F5F9"/></linearGradient><clipPath id="b"><path fill="#fff" d="M10 7h20v20H10z"/></clipPath></defs></svg>