<svg xmlns="http://www.w3.org/2000/svg" width="40" height="40" fill="none"><path fill="url(#a)" d="M0 0h40v40H0z"/><path fill="#1881F2" d="M14.812 33v-3.705h.74v1.465h1.4v-1.465h.735V33h-.735v-1.6h-1.4V33h-.74Zm4.75.07c-.22 0-.399-.043-.535-.13a.754.754 0 0 1-.295-.37 1.519 1.519 0 0 1-.09-.545V30.78h-.395v-.545l.435-.035.085-.755h.605v.755h.695v.58h-.695v1.24c0 .16.033.278.1.355a.357.357 0 0 0 .285.115.563.563 0 0 0 .145-.02 1.57 1.57 0 0 0 .13-.04l.125.535a4.193 4.193 0 0 1-.265.07 1.414 1.414 0 0 1-.33.035Zm1.08-.07v-2.8h.6l.054.375h.015c.117-.12.243-.223.38-.31a.853.853 0 0 1 .48-.135c.2 0 .36.043.48.13a.797.797 0 0 1 .285.36c.133-.137.27-.252.41-.345a.847.847 0 0 1 .485-.145c.3 0 .518.1.655.3.14.197.21.472.21.825V33h-.73v-1.655c0-.217-.032-.368-.095-.455-.063-.087-.162-.13-.295-.13a.504.504 0 0 0-.255.08c-.087.05-.182.128-.285.235V33h-.735v-1.655c0-.217-.032-.368-.095-.455-.063-.087-.162-.13-.295-.13a.523.523 0 0 0-.255.08c-.09.05-.183.128-.28.235V33h-.735Zm5.513.07a.704.704 0 0 1-.41-.105.632.632 0 0 1-.22-.3 1.423 1.423 0 0 1-.065-.45V29.01h.735v3.235c0 .083.015.142.045.175.034.033.067.05.1.05h.045a.578.578 0 0 1 .055-.01l.09.545a1.051 1.051 0 0 1-.375.065Z"/><path fill="#1881F2" fill-rule="evenodd" d="m11.182 7 1.605 18 7.202 2 7.222-2.002L28.818 7H11.182Zm8.81 8.148H17.08l-.202-2.26h8.448l.044-.497.101-1.119.053-.593H14.464l.053.593.542 6.084h7.651l-.255 2.863-2.455.662H20l-.007.003h-.002l-2.458-.663-.158-1.761h-2.216l.31 3.466 4.522 1.255.01-.003 4.519-1.252.033-.373.518-5.812.054-.593h-5.132Z" clip-rule="evenodd"/><defs><linearGradient id="a" x1="20" x2="20" y1="0" y2="40" gradientUnits="userSpaceOnUse"><stop stop-color="#fff"/><stop offset="1" stop-color="#F1F5F9"/></linearGradient></defs></svg>