<svg xmlns="http://www.w3.org/2000/svg" width="40" height="40" fill="none"><path fill="url(#a)" d="M0 0h40v40H0z"/><path fill="#1881F2" d="M8.887 33v-3.705h1.225c.254 0 .48.028.68.085a.961.961 0 0 1 .48.285c.12.133.18.315.18.545a.906.906 0 0 1-.065.335.91.91 0 0 1-.17.285.664.664 0 0 1-.27.185v.02c.2.047.365.143.495.29.13.143.195.338.195.585a.973.973 0 0 1-.19.615 1.11 1.11 0 0 1-.51.36 2.15 2.15 0 0 1-.73.115h-1.32Zm.74-2.195h.435c.234 0 .404-.043.51-.13a.442.442 0 0 0 .16-.355c0-.163-.055-.28-.165-.35-.11-.07-.277-.105-.5-.105h-.44v.94Zm0 1.625h.515c.254 0 .445-.045.575-.135.133-.093.2-.237.2-.43 0-.18-.066-.31-.2-.39-.13-.083-.322-.125-.575-.125h-.515v1.08Zm3.773.64a1.322 1.322 0 0 1-1.155-.675 1.569 1.569 0 0 1-.19-.795c0-.31.064-.573.19-.79.127-.22.292-.388.495-.505a1.322 1.322 0 0 1 1.595.215c.127.123.227.277.3.46.074.18.11.387.11.62 0 .31-.063.575-.19.795a1.332 1.332 0 0 1-1.155.675Zm0-.6a.493.493 0 0 0 .32-.105.644.644 0 0 0 .2-.305c.047-.13.07-.283.07-.46 0-.177-.023-.33-.07-.46a.613.613 0 0 0-.2-.3.478.478 0 0 0-.32-.11.498.498 0 0 0-.325.11.662.662 0 0 0-.2.3 1.46 1.46 0 0 0-.065.46c0 .177.022.33.065.46.047.13.114.232.2.305.09.07.199.105.325.105Zm3.13.6a1.322 1.322 0 0 1-1.155-.675 1.569 1.569 0 0 1-.19-.795c0-.31.064-.573.19-.79.127-.22.292-.388.495-.505a1.322 1.322 0 0 1 1.595.215c.127.123.227.277.3.46.074.18.11.387.11.62 0 .31-.063.575-.19.795a1.332 1.332 0 0 1-1.155.675Zm0-.6a.493.493 0 0 0 .32-.105.644.644 0 0 0 .2-.305c.047-.13.07-.283.07-.46 0-.177-.023-.33-.07-.46a.613.613 0 0 0-.2-.3.478.478 0 0 0-.32-.11.498.498 0 0 0-.325.11.662.662 0 0 0-.2.3 1.46 1.46 0 0 0-.065.46c0 .177.022.33.065.46.047.13.114.232.2.305.09.07.199.105.325.105Zm2.824.6c-.22 0-.398-.043-.535-.13a.754.754 0 0 1-.295-.37 1.519 1.519 0 0 1-.09-.545V30.78h-.395v-.545l.435-.035.085-.755h.605v.755h.695v.58h-.695v1.24c0 .16.033.278.1.355a.357.357 0 0 0 .285.115.564.564 0 0 0 .145-.02 1.57 1.57 0 0 0 .13-.04l.125.535a4.193 4.193 0 0 1-.265.07 1.414 1.414 0 0 1-.33.035Zm1.797 0a1.6 1.6 0 0 1-.57-.11 1.823 1.823 0 0 1-.495-.28l.335-.465c.123.093.245.168.365.225a.96.96 0 0 0 .385.08c.14 0 .241-.027.305-.08a.27.27 0 0 0 .1-.215.218.218 0 0 0-.085-.175.769.769 0 0 0-.22-.13 5.493 5.493 0 0 0-.28-.115 2.801 2.801 0 0 1-.35-.17.95.95 0 0 1-.285-.255.659.659 0 0 1-.115-.395.76.76 0 0 1 .13-.44.874.874 0 0 1 .36-.305c.156-.073.341-.11.555-.11.203 0 .383.035.54.105.16.07.296.15.41.24l-.33.445c-.1-.073-.2-.132-.3-.175a.727.727 0 0 0-.3-.065c-.13 0-.225.025-.285.075a.242.242 0 0 0-.09.195c0 .067.025.123.075.17a.69.69 0 0 0 .205.115l.275.105c.093.033.185.073.275.12.093.043.178.097.255.16a.711.711 0 0 1 .25.565.824.824 0 0 1-.13.45.873.873 0 0 1-.375.32 1.433 1.433 0 0 1-.61.115Zm2.559 0c-.22 0-.399-.043-.535-.13a.754.754 0 0 1-.295-.37 1.519 1.519 0 0 1-.09-.545V30.78h-.395v-.545l.435-.035.085-.755h.605v.755h.695v.58h-.695v1.24c0 .16.033.278.1.355.066.077.161.115.285.115a.564.564 0 0 0 .145-.02 1.57 1.57 0 0 0 .13-.04l.125.535a4.193 4.193 0 0 1-.265.07 1.414 1.414 0 0 1-.33.035Zm1.079-.07v-2.8h.6l.055.495h.015c.103-.183.225-.323.365-.42a.749.749 0 0 1 .62-.125c.05.01.095.023.135.04l-.12.635a1.635 1.635 0 0 0-.3-.045.604.604 0 0 0-.34.125c-.117.083-.215.225-.295.425V33h-.735Zm2.687.07a.885.885 0 0 1-.435-.105.783.783 0 0 1-.29-.3.909.909 0 0 1-.1-.43c0-.297.128-.527.385-.69.257-.167.665-.28 1.225-.34a.68.68 0 0 0-.05-.245.364.364 0 0 0-.15-.175.501.501 0 0 0-.275-.065c-.13 0-.258.025-.385.075a2.46 2.46 0 0 0-.385.195l-.26-.49a2.494 2.494 0 0 1 .74-.315c.137-.037.278-.055.425-.055.237 0 .435.047.595.14.16.093.28.232.36.415.08.183.12.41.12.68V33h-.6l-.05-.3h-.025a1.79 1.79 0 0 1-.39.265c-.14.07-.292.105-.455.105Zm.245-.575a.563.563 0 0 0 .28-.07 1.27 1.27 0 0 0 .26-.205v-.56a2.38 2.38 0 0 0-.54.115.657.657 0 0 0-.285.18.338.338 0 0 0-.085.225c0 .11.033.19.1.24.07.05.16.075.27.075Zm2.024 1.58V30.2h.6l.055.29h.015c.117-.1.245-.185.385-.255a.992.992 0 0 1 .44-.105c.23 0 .427.06.59.18.163.117.288.282.375.495.09.21.135.46.135.75 0 .32-.057.593-.17.82-.113.227-.262.4-.445.52-.18.117-.372.175-.575.175a.88.88 0 0 1-.36-.08 1.311 1.311 0 0 1-.335-.225l.025.455v.855h-.735Zm1.245-1.61a.51.51 0 0 0 .3-.095.672.672 0 0 0 .215-.3c.053-.133.08-.302.08-.505 0-.177-.02-.327-.06-.45a.57.57 0 0 0-.18-.285.493.493 0 0 0-.315-.095.591.591 0 0 0-.275.07 1.22 1.22 0 0 0-.275.215v1.235a.75.75 0 0 0 .51.21ZM14.154 9.034c-1.141 0-1.986.999-1.948 2.082.037 1.04-.01 2.389-.35 3.488-.34 1.102-.916 1.8-1.856 1.89v1.012c.94.09 1.516.788 1.856 1.89.34 1.1.387 2.447.35 3.488-.038 1.083.807 2.082 1.948 2.082h11.693c1.142 0 1.986-.999 1.948-2.082-.036-1.04.01-2.388.35-3.488.34-1.102.915-1.8 1.855-1.89v-1.012c-.94-.09-1.514-.788-1.855-1.89-.34-1.1-.386-2.447-.35-3.488.038-1.083-.806-2.082-1.948-2.082H14.154Zm9.405 9.807c0 1.492-1.112 2.396-2.958 2.396h-3.143a.34.34 0 0 1-.34-.339v-7.796a.34.34 0 0 1 .34-.34h3.125c1.54 0 2.55.835 2.55 2.115 0 .899-.68 1.703-1.546 1.844v.047c1.179.13 1.972.946 1.972 2.073Zm-3.301-5.004h-1.792v2.532h1.51c1.166 0 1.81-.47 1.81-1.31 0-.787-.554-1.222-1.528-1.222Zm-1.792 3.536v2.79h1.858c1.215 0 1.858-.488 1.858-1.404 0-.916-.661-1.386-1.936-1.386h-1.78Z"/><defs><linearGradient id="a" x1="20" x2="20" y1="0" y2="40" gradientUnits="userSpaceOnUse"><stop stop-color="#fff"/><stop offset="1" stop-color="#F1F5F9"/></linearGradient></defs></svg>