<svg xmlns="http://www.w3.org/2000/svg" width="40" height="40" fill="none"><path fill="url(#a)" d="M0 0h40v40H0z"/><path fill="#1881F2" d="M18.442 33.07c-.334 0-.636-.073-.905-.22a1.6 1.6 0 0 1-.636-.645c-.156-.283-.235-.63-.235-1.04 0-.307.046-.578.136-.815.093-.24.221-.443.384-.61.164-.167.352-.293.566-.38.213-.087.443-.13.69-.13.266 0 .493.05.68.15.19.097.345.205.465.325l-.395.47a1.45 1.45 0 0 0-.31-.22.86.86 0 0 0-.416-.09.967.967 0 0 0-.91.59c-.086.19-.13.418-.13.685 0 .27.04.502.12.695.084.19.207.337.37.44.164.103.366.155.605.155a.96.96 0 0 0 .26-.035.566.566 0 0 0 .2-.105v-.73h-.655v-.605h1.32v1.67a1.58 1.58 0 0 1-.505.315c-.21.087-.443.13-.7.13Zm1.933-.07v-2.8h.735V33h-.735Zm.37-3.255a.442.442 0 0 1-.31-.105.389.389 0 0 1-.114-.295c0-.12.038-.217.114-.29a.43.43 0 0 1 .31-.11c.124 0 .226.037.305.11.08.073.12.17.12.29a.38.38 0 0 1-.12.295.446.446 0 0 1-.305.105Zm2.174 3.325c-.22 0-.398-.043-.535-.13a.755.755 0 0 1-.295-.37 1.519 1.519 0 0 1-.09-.545V30.78h-.395v-.545l.435-.035.085-.755h.605v.755h.695v.58h-.695v1.24c0 .16.033.278.1.355a.357.357 0 0 0 .285.115.563.563 0 0 0 .145-.02c.05-.013.093-.027.13-.04l.125.535a4.175 4.175 0 0 1-.265.07 1.413 1.413 0 0 1-.33.035Z"/><g clip-path="url(#b)"><path fill="#1881F2" fill-rule="evenodd" d="m20.89 7.378 8.732 8.731v-.003a1.284 1.284 0 0 1 0 1.822l-8.691 8.693a1.284 1.284 0 0 1-1.822 0l-8.73-8.728a1.284 1.284 0 0 1 0-1.822l5.987-5.989 2.264 2.266a1.532 1.532 0 0 0 .832 2.01v5.49a1.529 1.529 0 1 0 1.26.044v-5.44l2.067 2.067a1.531 1.531 0 1 0 .918-.864l-2.214-2.214a1.53 1.53 0 0 0-1.937-1.95l-2.3-2.3 1.813-1.813a1.286 1.286 0 0 1 1.822 0Z" clip-rule="evenodd"/></g><defs><linearGradient id="a" x1="20" x2="20" y1="0" y2="40" gradientUnits="userSpaceOnUse"><stop stop-color="#fff"/><stop offset="1" stop-color="#F1F5F9"/></linearGradient><clipPath id="b"><path fill="#fff" d="M10 7h20v20H10z"/></clipPath></defs></svg>