<svg xmlns="http://www.w3.org/2000/svg" width="40" height="40" fill="none"><path fill="url(#a)" d="M0 0h40v40H0z"/><g clip-path="url(#b)"><path fill="#242938" d="M25.313 7H14.688A4.688 4.688 0 0 0 10 11.688v10.624A4.688 4.688 0 0 0 14.688 27h10.624A4.688 4.688 0 0 0 30 22.312V11.688A4.688 4.688 0 0 0 25.312 7Z"/><mask id="c" width="12" height="16" x="14" y="9" maskUnits="userSpaceOnUse" style="mask-type:luminance"><path fill="#fff" d="M14.766 9.188h10.418v15.624H14.766V9.188Z"/></mask><g mask="url(#c)"><path fill="#0ACF83" d="M17.37 24.812a2.605 2.605 0 0 0 2.605-2.604v-2.604h-2.604a2.605 2.605 0 0 0 0 5.208Z"/><path fill="#A259FF" d="M14.767 17a2.605 2.605 0 0 1 2.604-2.604h2.604v5.208h-2.604A2.605 2.605 0 0 1 14.767 17Z"/><path fill="#F24E1E" d="M14.767 11.792a2.605 2.605 0 0 1 2.604-2.604h2.604v5.208h-2.604a2.605 2.605 0 0 1-2.604-2.604Z"/><path fill="#FF7262" d="M19.975 9.188h2.604a2.605 2.605 0 0 1 0 5.208h-2.604V9.187Z"/><path fill="#1ABCFE" d="M25.183 17a2.605 2.605 0 0 1-5.208 0 2.605 2.605 0 0 1 5.208 0Z"/></g></g><path fill="#4B5563" d="M12.855 33v-3.705h2.28v.62h-1.54v.965h1.315v.62h-1.315V33h-.74Zm2.865 0v-2.8h.735V33h-.735Zm.37-3.255a.442.442 0 0 1-.31-.105.389.389 0 0 1-.115-.295c0-.12.038-.217.115-.29a.43.43 0 0 1 .31-.11c.123 0 .225.037.305.11.08.073.12.17.12.29a.38.38 0 0 1-.12.295.446.446 0 0 1-.305.105Zm2.133 4.47c-.22 0-.418-.027-.595-.08a.918.918 0 0 1-.42-.235.558.558 0 0 1-.15-.405c0-.117.034-.225.1-.325a.791.791 0 0 1 .3-.255v-.025a.611.611 0 0 1-.185-.185.55.55 0 0 1-.07-.29c0-.103.03-.2.09-.29a.906.906 0 0 1 .22-.23v-.02a.987.987 0 0 1-.26-.295.833.833 0 0 1-.115-.44c0-.22.052-.405.155-.555.107-.15.247-.263.42-.34a1.344 1.344 0 0 1 .78-.095c.074.013.14.03.2.05h1.005v.54h-.475c.037.05.067.112.09.185a.789.789 0 0 1 .035.24c0 .21-.048.387-.145.53a.888.888 0 0 1-.39.315 1.383 1.383 0 0 1-.72.09 1.98 1.98 0 0 1-.19-.05.516.516 0 0 0-.09.105.273.273 0 0 0-.03.14c0 .07.032.125.095.165.067.04.182.06.345.06h.48c.337 0 .595.057.775.17.18.11.27.287.27.53a.75.75 0 0 1-.19.505c-.123.15-.3.268-.53.355-.226.09-.495.135-.805.135Zm.04-2.555c.084 0 .159-.02.225-.06a.43.43 0 0 0 .16-.175.63.63 0 0 0 .06-.285c0-.11-.02-.202-.06-.275a.429.429 0 0 0-.385-.23.42.42 0 0 0-.38.23.612.612 0 0 0-.055.275c0 .11.019.205.055.285a.42.42 0 0 0 .38.235Zm.07 2.085c.144 0 .267-.018.37-.055a.644.644 0 0 0 .25-.145c.06-.06.09-.127.09-.2 0-.1-.04-.168-.12-.205a.932.932 0 0 0-.345-.05h-.345a1.973 1.973 0 0 1-.385-.035.541.541 0 0 0-.14.155.406.406 0 0 0-.04.175c0 .113.06.202.18.265s.282.095.485.095ZM20.222 33v-2.8h.6l.055.375h.015c.116-.12.243-.223.38-.31a.852.852 0 0 1 .48-.135c.2 0 .36.043.48.13a.797.797 0 0 1 .285.36c.133-.137.27-.252.41-.345a.847.847 0 0 1 .485-.145c.3 0 .518.1.655.3.14.197.21.472.21.825V33h-.73v-1.655c0-.217-.032-.368-.095-.455-.064-.087-.162-.13-.295-.13a.504.504 0 0 0-.255.08c-.087.05-.182.128-.285.235V33h-.735v-1.655c0-.217-.032-.368-.095-.455-.064-.087-.162-.13-.295-.13a.523.523 0 0 0-.255.08c-.09.05-.184.128-.28.235V33h-.735Zm5.504.07a.885.885 0 0 1-.435-.105.783.783 0 0 1-.29-.3.909.909 0 0 1-.1-.43c0-.297.128-.527.385-.69.257-.167.665-.28 1.225-.34a.68.68 0 0 0-.05-.245.364.364 0 0 0-.15-.175.501.501 0 0 0-.275-.065c-.13 0-.258.025-.385.075a2.46 2.46 0 0 0-.385.195l-.26-.49a2.494 2.494 0 0 1 .74-.315c.137-.037.278-.055.425-.055.237 0 .435.047.595.14.16.093.28.232.36.415.08.183.12.41.12.68V33h-.6l-.05-.3h-.025a1.79 1.79 0 0 1-.39.265c-.14.07-.292.105-.455.105Zm.245-.575a.563.563 0 0 0 .28-.07 1.27 1.27 0 0 0 .26-.205v-.56a2.38 2.38 0 0 0-.54.115.657.657 0 0 0-.285.18.338.338 0 0 0-.085.225c0 .11.033.19.1.24.07.05.16.075.27.075Z"/><defs><linearGradient id="a" x1="20" x2="20" y1="0" y2="40" gradientUnits="userSpaceOnUse"><stop stop-color="#F9FAFB"/><stop offset="1" stop-color="#E5E7EB"/></linearGradient><clipPath id="b"><path fill="#fff" d="M10 7h20v20H10z"/></clipPath></defs></svg>