<svg xmlns="http://www.w3.org/2000/svg" width="40" height="40" fill="none"><path fill="url(#a)" d="M0 0h40v40H0z"/><path fill="#00DC82" d="M21.22 23.787h7.434A1.345 1.345 0 0 0 30 22.43c0-.238-.062-.472-.18-.679l-4.995-8.723a1.335 1.335 0 0 0-2.329 0L21.22 15.26l-2.495-4.365a1.337 1.337 0 0 0-2.33 0L10.18 21.75a1.364 1.364 0 0 0 .493 1.854c.204.119.436.182.672.182h4.667c1.849 0 3.212-.82 4.15-2.418l2.279-3.98 1.22-2.13 3.661 6.398h-4.881l-1.221 2.13Zm-5.284-2.132H12.68l4.883-8.53 2.435 4.264-1.63 2.85c-.624 1.038-1.332 1.416-2.43 1.416Z"/><path fill="#4B5563" d="M14.625 33v-3.705h.755l1.075 1.975.375.8h.025l-.065-.635a6.557 6.557 0 0 1-.035-.66v-1.48h.7V33H16.7l-1.065-1.98-.375-.795h-.025c.017.2.037.412.06.635.023.223.035.442.035.655V33h-.705Zm4.52.07c-.303 0-.523-.098-.66-.295-.137-.2-.205-.477-.205-.83V30.2h.73v1.655c0 .217.032.368.095.455.063.087.165.13.305.13a.535.535 0 0 0 .295-.08c.087-.057.177-.147.27-.27V30.2h.735V33h-.6l-.055-.405h-.02c-.12.143-.25.258-.39.345a.93.93 0 0 1-.5.13Zm2.034-.07.875-1.455-.82-1.345h.79l.28.495.12.24c.043.08.086.158.13.235h.02l.1-.235.11-.24.23-.495h.76l-.82 1.425.875 1.375h-.79l-.31-.515a5.708 5.708 0 0 0-.135-.245 4.078 4.078 0 0 0-.135-.24h-.025a8.13 8.13 0 0 0-.235.485l-.255.515h-.765Zm3.967.07c-.22 0-.399-.043-.535-.13a.754.754 0 0 1-.295-.37 1.519 1.519 0 0 1-.09-.545V30.78h-.395v-.545l.435-.035.085-.755h.605v.755h.695v.58h-.695v1.24c0 .16.033.278.1.355a.357.357 0 0 0 .285.115.563.563 0 0 0 .145-.02 1.57 1.57 0 0 0 .13-.04l.125.535a4.193 4.193 0 0 1-.265.07 1.414 1.414 0 0 1-.33.035Z"/><defs><linearGradient id="a" x1="20" x2="20" y1="0" y2="40" gradientUnits="userSpaceOnUse"><stop stop-color="#F9FAFB"/><stop offset="1" stop-color="#E5E7EB"/></linearGradient></defs></svg>