<svg xmlns="http://www.w3.org/2000/svg" width="40" height="40" fill="none"><path fill="url(#a)" d="M0 0h40v40H0z"/><path fill="#1881F2" d="M8.231 33v-3.085h-1.04v-.62h2.825v.62H8.971V33h-.74Zm2.4 1.12a1.266 1.266 0 0 1-.385-.055l.134-.56.09.02a.4.4 0 0 0 .105.015.47.47 0 0 0 .34-.12.723.723 0 0 0 .185-.305l.05-.17-1.09-2.745h.74l.445 1.3c.044.127.084.257.12.39.037.133.075.267.115.4h.025a13.823 13.823 0 0 1 .2-.79l.385-1.3h.705l-.995 2.885c-.08.22-.171.407-.275.56a1.069 1.069 0 0 1-.37.355c-.14.08-.315.12-.525.12Zm2.625-.045V30.2h.6l.055.29h.015c.117-.1.245-.185.385-.255a.993.993 0 0 1 .44-.105c.23 0 .427.06.59.18.164.117.289.282.375.495.09.21.135.46.135.75 0 .32-.056.593-.17.82-.113.227-.261.4-.445.52-.18.117-.371.175-.575.175a.88.88 0 0 1-.36-.08 1.313 1.313 0 0 1-.335-.225l.025.455v.855h-.735Zm1.245-1.61a.51.51 0 0 0 .3-.095.672.672 0 0 0 .215-.3 1.37 1.37 0 0 0 .08-.505c0-.177-.02-.327-.06-.45a.57.57 0 0 0-.18-.285.493.493 0 0 0-.315-.095.591.591 0 0 0-.275.07 1.222 1.222 0 0 0-.275.215v1.235a.75.75 0 0 0 .51.21Zm3.193.605c-.26 0-.495-.058-.705-.175a1.313 1.313 0 0 1-.505-.505 1.592 1.592 0 0 1-.185-.79c0-.227.035-.43.105-.61.073-.18.172-.333.295-.46a1.32 1.32 0 0 1 .42-.295c.157-.07.318-.105.485-.105.257 0 .472.058.645.175.173.113.303.272.39.475.09.2.135.43.135.69 0 .067-.003.132-.01.195a.99.99 0 0 1-.025.145h-1.725c.02.15.065.277.135.38a.68.68 0 0 0 .27.235c.11.05.235.075.375.075.113 0 .22-.015.32-.045.1-.033.202-.082.305-.145l.25.45c-.137.093-.29.168-.46.225-.17.057-.342.085-.515.085ZM17 31.315h1.145c0-.187-.043-.335-.13-.445-.083-.113-.217-.17-.4-.17a.571.571 0 0 0-.275.07.56.56 0 0 0-.22.205.82.82 0 0 0-.12.34Zm3.18 1.755a1.6 1.6 0 0 1-.57-.11 1.823 1.823 0 0 1-.495-.28l.335-.465c.124.093.245.168.365.225a.96.96 0 0 0 .385.08c.14 0 .242-.027.305-.08a.27.27 0 0 0 .1-.215.218.218 0 0 0-.085-.175.769.769 0 0 0-.22-.13 5.493 5.493 0 0 0-.28-.115 2.801 2.801 0 0 1-.35-.17.95.95 0 0 1-.285-.255.659.659 0 0 1-.115-.395.76.76 0 0 1 .13-.44.874.874 0 0 1 .36-.305c.157-.073.342-.11.555-.11.204 0 .384.035.54.105.16.07.297.15.41.24l-.33.445c-.1-.073-.2-.132-.3-.175a.727.727 0 0 0-.3-.065c-.13 0-.225.025-.285.075a.242.242 0 0 0-.09.195c0 .067.025.123.075.17a.69.69 0 0 0 .205.115l.275.105c.094.033.185.073.275.12.094.043.179.097.255.16a.711.711 0 0 1 .25.565.824.824 0 0 1-.13.45.873.873 0 0 1-.375.32 1.433 1.433 0 0 1-.61.115Zm2.866 0c-.257 0-.488-.058-.695-.175a1.263 1.263 0 0 1-.49-.5c-.12-.22-.18-.485-.18-.795 0-.31.065-.573.195-.79.133-.22.308-.388.525-.505.22-.117.457-.175.71-.175.173 0 .327.03.46.09.133.057.252.132.355.225l-.35.465a.751.751 0 0 0-.205-.135.553.553 0 0 0-.22-.045.67.67 0 0 0-.63.41c-.057.13-.085.283-.085.46 0 .177.028.33.085.46.06.13.142.232.245.305a.682.682 0 0 0 .65.04c.093-.043.178-.097.255-.16l.29.485a1.336 1.336 0 0 1-.445.26c-.16.053-.317.08-.47.08Zm1.447-.07v-2.8h.6l.055.495h.015c.103-.183.225-.323.365-.42a.748.748 0 0 1 .62-.125c.05.01.095.023.135.04l-.12.635a1.65 1.65 0 0 0-.3-.045.604.604 0 0 0-.34.125c-.117.083-.215.225-.295.425V33h-.735Zm2.182 0v-2.8h.735V33h-.735Zm.37-3.255a.442.442 0 0 1-.31-.105.389.389 0 0 1-.115-.295c0-.12.039-.217.115-.29a.43.43 0 0 1 .31-.11c.124 0 .225.037.305.11.08.073.12.17.12.29a.38.38 0 0 1-.12.295.446.446 0 0 1-.305.105Zm1.149 4.33V30.2h.6l.055.29h.015c.117-.1.245-.185.385-.255a.992.992 0 0 1 .44-.105c.23 0 .427.06.59.18.163.117.288.282.375.495.09.21.135.46.135.75 0 .32-.057.593-.17.82-.113.227-.262.4-.445.52-.18.117-.372.175-.575.175a.88.88 0 0 1-.36-.08 1.31 1.31 0 0 1-.335-.225l.025.455v.855h-.735Zm1.245-1.61a.51.51 0 0 0 .3-.095.672.672 0 0 0 .215-.3c.053-.133.08-.302.08-.505 0-.177-.02-.327-.06-.45a.57.57 0 0 0-.18-.285.493.493 0 0 0-.315-.095.59.59 0 0 0-.275.07 1.218 1.218 0 0 0-.275.215v1.235a.75.75 0 0 0 .51.21Zm2.837.605c-.22 0-.399-.043-.535-.13a.754.754 0 0 1-.295-.37 1.519 1.519 0 0 1-.09-.545V30.78h-.396v-.545l.436-.035.085-.755h.604v.755h.695v.58h-.695v1.24c0 .16.034.278.1.355a.357.357 0 0 0 .285.115.563.563 0 0 0 .145-.02 1.57 1.57 0 0 0 .13-.04l.126.535a4.193 4.193 0 0 1-.265.07 1.414 1.414 0 0 1-.33.035Z"/><g clip-path="url(#b)"><path fill="#fff" d="M15.963 17.93H31.91v11.788H15.963V17.931Z"/><path fill="#1881F2" d="M10 17v10h20V7H10v10Zm16.117-.8a2.49 2.49 0 0 1 1.251.72c.185.193.347.408.48.64 0 .026-.864.61-1.39.936-.02.013-.096-.07-.181-.197a1.133 1.133 0 0 0-.94-.565c-.606-.041-.996.277-.993.8-.005.13.025.26.086.375.133.277.381.441 1.159.777 1.432.616 2.045 1.023 2.425 1.6.426.64.52 1.674.232 2.439-.32.832-1.104 1.397-2.212 1.584a6.128 6.128 0 0 1-1.524-.016 3.68 3.68 0 0 1-2.035-1.061c-.184-.203-.542-.733-.52-.771a1.44 1.44 0 0 1 .184-.117l.741-.41.574-.332.12.177c.203.29.46.537.759.727.64.336 1.513.29 1.945-.1a.87.87 0 0 0 .11-1.107c-.16-.222-.48-.41-1.374-.8-1.032-.445-1.476-.72-1.883-1.158-.253-.29-.44-.63-.549-1a4 4 0 0 1-.035-1.28c.213-.997.96-1.693 2.051-1.9a5.073 5.073 0 0 1 1.519.042V16.2Zm-4.695.838v.82h-2.596v7.396h-1.842v-7.398h-2.603v-.8a7.819 7.819 0 0 1 .019-.827c.013-.015 1.6-.015 3.52-.015h3.493l.01.824Z"/></g><defs><linearGradient id="a" x1="20" x2="20" y1="0" y2="40" gradientUnits="userSpaceOnUse"><stop stop-color="#fff"/><stop offset="1" stop-color="#F1F5F9"/></linearGradient><clipPath id="b"><path fill="#fff" d="M10 7h20v20H10z"/></clipPath></defs></svg>