<svg xmlns="http://www.w3.org/2000/svg" width="40" height="40" fill="none"><path fill="url(#a)" d="M0 0h40v40H0z"/><path fill="#15796E" d="M7.662 33v-3.705h1.215c.273 0 .518.037.735.11.22.073.393.195.52.365.13.167.194.397.194.69 0 .28-.065.512-.194.695-.127.18-.299.313-.515.4-.214.087-.454.13-.72.13h-.495V33h-.74Zm.74-1.9h.445c.253 0 .441-.053.565-.16.126-.107.19-.267.19-.48 0-.213-.067-.362-.2-.445-.13-.087-.324-.13-.58-.13h-.42V31.1Zm2.535 1.9v-3.99h.735v1.005l-.036.525a1.95 1.95 0 0 1 .38-.285.977.977 0 0 1 .5-.125c.304 0 .524.1.66.3.137.197.206.472.206.825V33h-.736v-1.655c0-.217-.031-.368-.095-.455-.06-.087-.16-.13-.3-.13a.561.561 0 0 0-.3.08 1.739 1.739 0 0 0-.28.235V33h-.734Zm4.368.07a1.322 1.322 0 0 1-1.155-.675 1.569 1.569 0 0 1-.19-.795c0-.31.063-.573.19-.79.126-.22.291-.388.495-.505a1.322 1.322 0 0 1 1.595.215c.126.123.226.277.3.46.073.18.11.387.11.62 0 .31-.064.575-.19.795a1.332 1.332 0 0 1-1.155.675Zm0-.6a.493.493 0 0 0 .32-.105.644.644 0 0 0 .2-.305c.046-.13.07-.283.07-.46 0-.177-.024-.33-.07-.46a.613.613 0 0 0-.2-.3.478.478 0 0 0-.32-.11.498.498 0 0 0-.325.11.662.662 0 0 0-.2.3 1.46 1.46 0 0 0-.065.46c0 .177.021.33.065.46.046.13.113.232.2.305.09.07.198.105.325.105Zm2.823.6c-.22 0-.398-.043-.535-.13a.754.754 0 0 1-.294-.37 1.519 1.519 0 0 1-.09-.545V30.78h-.395v-.545l.434-.035.085-.755h.606v.755h.695v.58h-.695v1.24c0 .16.033.278.1.355a.357.357 0 0 0 .284.115.563.563 0 0 0 .145-.02 1.57 1.57 0 0 0 .13-.04l.126.535a4.193 4.193 0 0 1-.265.07 1.414 1.414 0 0 1-.33.035Zm2.128 0a1.322 1.322 0 0 1-1.155-.675 1.569 1.569 0 0 1-.19-.795c0-.31.063-.573.19-.79.127-.22.292-.388.495-.505a1.322 1.322 0 0 1 1.595.215c.127.123.227.277.3.46.073.18.11.387.11.62 0 .31-.063.575-.19.795a1.332 1.332 0 0 1-1.155.675Zm0-.6a.493.493 0 0 0 .32-.105.644.644 0 0 0 .2-.305c.047-.13.07-.283.07-.46 0-.177-.023-.33-.07-.46a.613.613 0 0 0-.2-.3.478.478 0 0 0-.32-.11.498.498 0 0 0-.325.11.662.662 0 0 0-.2.3 1.46 1.46 0 0 0-.065.46c0 .177.022.33.065.46.047.13.113.232.2.305.09.07.198.105.325.105Zm2.711.6a1.6 1.6 0 0 1-.57-.11 1.823 1.823 0 0 1-.495-.28l.335-.465c.123.093.245.168.365.225a.96.96 0 0 0 .385.08c.14 0 .242-.027.305-.08a.27.27 0 0 0 .1-.215.218.218 0 0 0-.085-.175.769.769 0 0 0-.22-.13 5.493 5.493 0 0 0-.28-.115 2.801 2.801 0 0 1-.35-.17.95.95 0 0 1-.285-.255.659.659 0 0 1-.115-.395.76.76 0 0 1 .13-.44.874.874 0 0 1 .36-.305c.157-.073.342-.11.555-.11.203 0 .383.035.54.105.16.07.297.15.41.24l-.33.445c-.1-.073-.2-.132-.3-.175a.727.727 0 0 0-.3-.065c-.13 0-.225.025-.285.075a.242.242 0 0 0-.09.195c0 .067.025.123.075.17a.69.69 0 0 0 .205.115l.275.105c.093.033.185.073.275.12.093.043.178.097.255.16a.711.711 0 0 1 .25.565.824.824 0 0 1-.13.45.873.873 0 0 1-.375.32 1.433 1.433 0 0 1-.61.115Zm1.676-.07v-3.99h.735v1.005l-.035.525c.11-.107.236-.202.38-.285a.977.977 0 0 1 .5-.125c.303 0 .523.1.66.3.136.197.205.472.205.825V33h-.735v-1.655c0-.217-.032-.368-.095-.455-.06-.087-.16-.13-.3-.13a.56.56 0 0 0-.3.08 1.735 1.735 0 0 0-.28.235V33h-.735Zm4.368.07a1.322 1.322 0 0 1-1.155-.675 1.568 1.568 0 0 1-.19-.795c0-.31.063-.573.19-.79.127-.22.291-.388.495-.505a1.322 1.322 0 0 1 1.595.215c.127.123.226.277.3.46.073.18.11.387.11.62 0 .31-.064.575-.19.795a1.333 1.333 0 0 1-1.155.675Zm0-.6a.493.493 0 0 0 .32-.105.644.644 0 0 0 .2-.305c.047-.13.07-.283.07-.46 0-.177-.023-.33-.07-.46a.613.613 0 0 0-.2-.3.479.479 0 0 0-.32-.11.498.498 0 0 0-.325.11.661.661 0 0 0-.2.3 1.46 1.46 0 0 0-.065.46c0 .177.021.33.065.46.046.13.113.232.2.305.09.07.198.105.325.105Zm1.96 1.605V30.2h.6l.055.29h.015c.116-.1.245-.185.385-.255a.992.992 0 0 1 .44-.105c.23 0 .426.06.59.18.163.117.288.282.375.495.09.21.135.46.135.75 0 .32-.057.593-.17.82-.114.227-.262.4-.445.52-.18.117-.372.175-.575.175a.88.88 0 0 1-.36-.08 1.311 1.311 0 0 1-.335-.225l.025.455v.855h-.735Zm1.245-1.61a.51.51 0 0 0 .3-.095.672.672 0 0 0 .215-.3c.053-.133.08-.302.08-.505 0-.177-.02-.327-.06-.45a.57.57 0 0 0-.18-.285.493.493 0 0 0-.315-.095.591.591 0 0 0-.275.07 1.22 1.22 0 0 0-.275.215v1.235a.75.75 0 0 0 .51.21Z"/><g clip-path="url(#b)"><path fill="#15796E" fill-rule="evenodd" d="M13.32 7.25h13.36A3.32 3.32 0 0 1 30 10.57v12.86a3.32 3.32 0 0 1-3.32 3.32H13.32A3.32 3.32 0 0 1 10 23.43V10.57a3.32 3.32 0 0 1 3.32-3.32Zm1.183 5.101v8.573c0 .072.032.108.094.108h1.598a.105.105 0 0 0 .09-.03.105.105 0 0 0 .03-.091v-2.677h.032l.142.001.095.002.077.003.031.002.052.002.086.002h.077l.152.002h.103c.662-.005 1.265-.079 1.81-.282l.045-.016a2.805 2.805 0 0 0 1.297-.997c.33-.465.496-1.055.496-1.77a3.14 3.14 0 0 0-.188-1.08 2.624 2.624 0 0 0-.61-.947 2.976 2.976 0 0 0-1.12-.684c-.466-.17-1.038-.255-1.718-.255-.25 0-.503.002-.758.007l-.725.013-.675.014-.202.005-.145.001h-.085c-.054 0-.08.032-.08.094Zm1.813 4.312v-2.796l.012-.001.013-.002.031-.003.036-.003.062-.004.073-.003.055-.002.105-.003.145-.003.102-.001.108-.001h.17c.334-.011.667.046.98.167.238.095.442.262.583.477.134.222.202.478.194.737v.04c-.006.348-.093.62-.261.819-.181.21-.419.364-.684.443l-.059.018a3.147 3.147 0 0 1-.9.135h-.444c-.098 0-.205-.005-.321-.014Zm8.943-.777c.256.059.505.149.739.27a.13.13 0 0 0 .115 0 .09.09 0 0 0 .04-.081V14.72a.367.367 0 0 0-.013-.101.122.122 0 0 0-.08-.074 2.71 2.71 0 0 0-.72-.194 6.52 6.52 0 0 0-1.033-.074c-.59 0-1.082.098-1.476.295a2.047 2.047 0 0 0-.872.765 1.923 1.923 0 0 0-.282 1.006c-.004.295.063.587.195.852.152.28.368.522.63.704.367.254.767.457 1.188.604l.078.03.074.028.036.014.07.028.033.013.064.027.03.013.06.027.028.012.053.026.05.024c.106.053.186.102.242.147.135.108.202.22.202.335a.38.38 0 0 1-.222.35c-.147.08-.378.12-.69.12a4.251 4.251 0 0 1-.98-.127 3.585 3.585 0 0 1-1.033-.41.065.065 0 0 0-.074-.006.078.078 0 0 0-.034.073v1.463a.173.173 0 0 0 .094.147c.272.125.558.215.852.269l.075.014c.35.066.704.097 1.06.093h.059c.573-.006 1.056-.095 1.45-.268.375-.154.699-.412.932-.745a1.93 1.93 0 0 0 .322-1.107 1.843 1.843 0 0 0-.195-.858 1.948 1.948 0 0 0-.657-.691c-.4-.255-.831-.46-1.281-.61a5.627 5.627 0 0 1-.59-.276l-.03-.015a.91.91 0 0 1-.253-.206.356.356 0 0 1-.08-.215c0-.08.023-.16.067-.228a.453.453 0 0 1 .262-.168c.164-.044.333-.065.503-.06h.072c.29.007.578.043.86.107l.06.013Z" clip-rule="evenodd"/></g><defs><linearGradient id="a" x1="20" x2="20" y1="0" y2="40" gradientUnits="userSpaceOnUse"><stop stop-color="#fff"/><stop offset="1" stop-color="#F1F5F9"/></linearGradient><clipPath id="b"><path fill="#fff" d="M10 7h20v20H10z"/></clipPath></defs></svg>