<svg xmlns="http://www.w3.org/2000/svg" width="40" height="40" fill="none"><path fill="url(#a)" d="M0 0h40v40H0z"/><path fill="#1881F2" d="M18.344 33.07c-.234 0-.452-.04-.655-.12a1.564 1.564 0 0 1-.54-.37 1.798 1.798 0 0 1-.365-.6 2.362 2.362 0 0 1-.13-.815c0-.307.045-.578.135-.815.09-.24.213-.443.37-.61a1.63 1.63 0 0 1 .55-.38c.21-.087.431-.13.665-.13.236 0 .447.048.63.145.186.093.338.203.455.33l-.385.47a1.19 1.19 0 0 0-.31-.225.807.807 0 0 0-.375-.085.87.87 0 0 0-.505.155.991.991 0 0 0-.345.435 1.7 1.7 0 0 0-.125.685c0 .27.038.502.115.695.08.19.192.337.335.44a.863.863 0 0 0 .51.155.88.88 0 0 0 .425-.1c.127-.07.238-.158.335-.265l.395.46c-.154.18-.328.317-.525.41-.197.09-.417.135-.66.135Zm2.516 0c-.187 0-.377-.037-.57-.11a1.823 1.823 0 0 1-.495-.28l.335-.465c.123.093.245.168.365.225.123.053.252.08.385.08.14 0 .242-.027.305-.08a.27.27 0 0 0 .1-.215.218.218 0 0 0-.085-.175.767.767 0 0 0-.22-.13 5.456 5.456 0 0 0-.28-.115 2.815 2.815 0 0 1-.35-.17.953.953 0 0 1-.285-.255.66.66 0 0 1-.115-.395.76.76 0 0 1 .13-.44.876.876 0 0 1 .36-.305c.157-.073.342-.11.555-.11.203 0 .383.035.54.105.16.07.297.15.41.24l-.33.445c-.1-.073-.2-.132-.3-.175a.726.726 0 0 0-.3-.065c-.13 0-.225.025-.285.075a.242.242 0 0 0-.09.195c0 .067.025.123.075.17.05.043.118.082.205.115l.275.105c.093.033.185.073.275.12.093.043.178.097.255.16a.71.71 0 0 1 .25.565.824.824 0 0 1-.13.45.872.872 0 0 1-.375.32 1.432 1.432 0 0 1-.61.115Zm2.476 0c-.187 0-.377-.037-.57-.11a1.823 1.823 0 0 1-.495-.28l.335-.465c.123.093.245.168.365.225.123.053.251.08.385.08.14 0 .241-.027.305-.08a.27.27 0 0 0 .1-.215.218.218 0 0 0-.085-.175.767.767 0 0 0-.22-.13 5.456 5.456 0 0 0-.28-.115 2.815 2.815 0 0 1-.35-.17.953.953 0 0 1-.285-.255.66.66 0 0 1-.115-.395.76.76 0 0 1 .13-.44.876.876 0 0 1 .36-.305c.156-.073.341-.11.555-.11.203 0 .383.035.54.105.16.07.296.15.41.24l-.33.445c-.1-.073-.2-.132-.3-.175a.726.726 0 0 0-.3-.065c-.13 0-.225.025-.285.075a.242.242 0 0 0-.09.195c0 .067.025.123.075.17.05.043.118.082.205.115l.275.105c.093.033.185.073.275.12.093.043.178.097.255.16a.71.71 0 0 1 .25.565.824.824 0 0 1-.13.45.872.872 0 0 1-.375.32 1.432 1.432 0 0 1-.61.115Z"/><path fill="#1881F2" fill-rule="evenodd" d="m11.183 7 1.604 18 7.202 2 7.222-2.002L28.818 7H11.182ZM20 12.733h-5.325l-.044-.497-.1-1.119-.054-.592h11.059l-.053.592-.543 6.084-.375 4.197-.034.373-4.518 1.253-.01.003-4.522-1.255-.31-3.467h2.217l.157 1.761 2.459.664h.002v-.001l2.462-.665.258-2.863H17.572l-.045-.496-.1-1.119-.053-.592H22.922l.201-2.261H20Z" clip-rule="evenodd"/><defs><linearGradient id="a" x1="20" x2="20" y1="0" y2="40" gradientUnits="userSpaceOnUse"><stop stop-color="#fff"/><stop offset="1" stop-color="#F1F5F9"/></linearGradient></defs></svg>