<svg xmlns="http://www.w3.org/2000/svg" width="40" height="40" fill="none"><path fill="url(#a)" d="M0 0h40v40H0z"/><path fill="#15796E" d="M5.114 33 6.3 29.295h.875L8.36 33h-.78l-.525-1.93a19.053 19.053 0 0 1-.165-.6c-.05-.21-.103-.413-.16-.61h-.02c-.046.2-.098.403-.155.61-.053.207-.106.407-.16.6L5.864 33h-.75Zm.735-.95v-.575h1.76v.575H5.85Zm2.925.95v-3.025c0-.193.032-.368.095-.525a.803.803 0 0 1 .31-.37c.144-.093.332-.14.565-.14.114 0 .215.01.305.03.09.02.167.042.23.065l-.135.55a.704.704 0 0 0-.3-.065.312.312 0 0 0-.25.105c-.06.07-.09.182-.09.335V33h-.73Zm-.38-2.22v-.545l.42-.035h1.225v.58H8.394Zm3.14 2.29c-.22 0-.398-.043-.534-.13a.755.755 0 0 1-.295-.37 1.519 1.519 0 0 1-.09-.545V30.78h-.395v-.545l.435-.035.085-.755h.605v.755h.695v.58h-.695v1.24c0 .16.033.278.1.355a.357.357 0 0 0 .285.115.563.563 0 0 0 .145-.02c.05-.013.093-.027.13-.04l.125.535a4.175 4.175 0 0 1-.265.07 1.413 1.413 0 0 1-.33.035Zm2.178 0c-.26 0-.495-.058-.705-.175a1.312 1.312 0 0 1-.505-.505 1.59 1.59 0 0 1-.185-.79c0-.227.035-.43.105-.61.073-.18.172-.333.295-.46.127-.13.267-.228.42-.295.157-.07.319-.105.485-.105.257 0 .472.058.645.175.174.113.303.272.39.475.09.2.135.43.135.69 0 .067-.003.132-.01.195a.99.99 0 0 1-.025.145h-1.725c.02.15.065.277.135.38a.68.68 0 0 0 .27.235c.11.05.235.075.375.075.114 0 .22-.015.32-.045.1-.033.202-.082.305-.145l.25.45c-.136.093-.29.168-.46.225-.17.057-.341.085-.515.085Zm-.695-1.755h1.145c0-.187-.043-.335-.13-.445-.083-.113-.216-.17-.4-.17a.571.571 0 0 0-.275.07.56.56 0 0 0-.22.205.82.82 0 0 0-.12.34ZM15.397 33v-2.8h.6l.055.495h.015c.104-.183.225-.323.365-.42a.749.749 0 0 1 .62-.125c.05.01.095.023.135.04l-.12.635a1.635 1.635 0 0 0-.3-.045.604.604 0 0 0-.34.125c-.116.083-.215.225-.295.425V33h-.735Zm3.376 0v-3.705h2.27v.62h-1.53v.855h1.295v.62h-1.295v.99h1.585V33h-2.325Zm3.141 0v-2.99c0-.19.033-.362.1-.515a.82.82 0 0 1 .325-.365c.15-.09.345-.135.585-.135a1.528 1.528 0 0 1 .565.105l-.14.545a.792.792 0 0 0-.34-.07.351.351 0 0 0-.265.11c-.067.07-.1.178-.1.325V33h-.73Zm1.74 0v-3.025c0-.193.033-.368.1-.525a.803.803 0 0 1 .31-.37c.143-.093.332-.14.565-.14.113 0 .215.01.305.03.09.02.167.042.23.065l-.135.55a.726.726 0 0 0-.3-.065.312.312 0 0 0-.25.105c-.06.07-.09.182-.09.335V33h-.735Zm-2.12-2.22v-.545l.42-.035h2.965v.58h-3.385Zm4.99 2.29c-.26 0-.494-.058-.704-.175a1.312 1.312 0 0 1-.505-.505 1.59 1.59 0 0 1-.185-.79c0-.227.035-.43.105-.61.073-.18.171-.333.295-.46.126-.13.266-.228.42-.295.156-.07.318-.105.485-.105.256 0 .471.058.645.175.173.113.303.272.39.475.09.2.135.43.135.69 0 .067-.004.132-.01.195a.99.99 0 0 1-.025.145h-1.725c.02.15.065.277.135.38a.68.68 0 0 0 .27.235c.11.05.235.075.375.075.113 0 .22-.015.32-.045.1-.033.201-.082.305-.145l.25.45c-.137.093-.29.168-.46.225-.17.057-.342.085-.515.085Zm-.694-1.755h1.145c0-.187-.044-.335-.13-.445-.084-.113-.217-.17-.4-.17a.571.571 0 0 0-.275.07.56.56 0 0 0-.22.205.82.82 0 0 0-.12.34Zm3.57 1.755c-.257 0-.488-.058-.695-.175a1.264 1.264 0 0 1-.49-.5c-.12-.22-.18-.485-.18-.795 0-.31.065-.573.195-.79.133-.22.308-.388.525-.505.22-.117.457-.175.71-.175.173 0 .327.03.46.09.133.057.252.132.355.225l-.35.465a.75.75 0 0 0-.205-.135.553.553 0 0 0-.22-.045.67.67 0 0 0-.63.41c-.057.13-.085.283-.085.46 0 .177.028.33.085.46.06.13.142.232.245.305a.682.682 0 0 0 .65.04c.093-.043.178-.097.255-.16l.29.485a1.334 1.334 0 0 1-.445.26c-.16.053-.317.08-.47.08Zm2.389 0c-.22 0-.399-.043-.535-.13a.754.754 0 0 1-.295-.37 1.519 1.519 0 0 1-.09-.545V30.78h-.395v-.545l.435-.035.085-.755h.605v.755h.695v.58h-.695v1.24c0 .16.033.278.1.355.066.077.161.115.285.115a.564.564 0 0 0 .145-.02 1.57 1.57 0 0 0 .13-.04l.125.535a4.193 4.193 0 0 1-.265.07 1.414 1.414 0 0 1-.33.035Zm1.796 0c-.187 0-.377-.037-.57-.11a1.823 1.823 0 0 1-.495-.28l.335-.465c.123.093.245.168.365.225.123.053.252.08.385.08.14 0 .242-.027.305-.08a.27.27 0 0 0 .1-.215.218.218 0 0 0-.085-.175.767.767 0 0 0-.22-.13 5.456 5.456 0 0 0-.28-.115 2.815 2.815 0 0 1-.35-.17.953.953 0 0 1-.285-.255.66.66 0 0 1-.115-.395.76.76 0 0 1 .13-.44.876.876 0 0 1 .36-.305c.157-.073.342-.11.555-.11.203 0 .383.035.54.105.16.07.297.15.41.24l-.33.445c-.1-.073-.2-.132-.3-.175a.726.726 0 0 0-.3-.065c-.13 0-.225.025-.285.075a.242.242 0 0 0-.09.195c0 .067.025.123.075.17.05.043.119.082.205.115l.275.105c.093.033.185.073.275.12.093.043.178.097.255.16a.71.71 0 0 1 .25.565.824.824 0 0 1-.13.45.872.872 0 0 1-.375.32 1.432 1.432 0 0 1-.61.115Z"/><g clip-path="url(#b)"><path fill="#15796E" fill-rule="evenodd" d="M13.32 7.25h13.36A3.32 3.32 0 0 1 30 10.57v12.86a3.32 3.32 0 0 1-3.32 3.32H13.32A3.32 3.32 0 0 1 10 23.43V10.57a3.32 3.32 0 0 1 3.32-3.32Zm1.615 11.667h3.1l.684 1.99a.125.125 0 0 0 .134.093h1.744c.08 0 .107-.045.08-.134l-3.045-8.542c-.009-.045-.045-.067-.107-.067h-2.133a.083.083 0 0 0-.094.094c-.001.182-.019.364-.054.543a3.026 3.026 0 0 1-.027.096l-.018.058-.009.027-.027.081-2.683 7.696c-.027.099.004.148.094.148h1.582a.157.157 0 0 0 .149-.12l.63-1.963Zm2.603-1.655h-2.12c.03-.083.058-.167.087-.253l.059-.174.059-.178.059-.183.059-.188.06-.191.11-.359.218-.703.09-.29c.097-.315.179-.634.246-.956h.013l.068.246.074.265.069.242c.06.213.125.424.192.636l.241.764.13.41.136.428.071.226.049.158.03.1Zm5.434.89h2.643c.07.001.14.004.211.01l.136.01c.09.006.178.01.264.009l.086-.003h.042l.08-.004.075-.004.071-.005.067-.005.062-.006.073-.007.083-.007.036-.003.046-.002.037-.001a.121.121 0 0 0 .12-.107l.002-.014.007-.067.013-.13.012-.138c.013-.161.02-.34.02-.537a3.37 3.37 0 0 0-.161-1.02 3.047 3.047 0 0 0-.496-.945 2.281 2.281 0 0 0-.88-.664 3.031 3.031 0 0 0-1.294-.255c-.537 0-1.002.069-1.395.261a3 3 0 0 0-1.006.792c-.279.337-.49.724-.624 1.14a4.309 4.309 0 0 0-.034 2.536c.117.4.313.771.577 1.093.282.342.64.613 1.046.792l.041.018c.422.185.94.277 1.556.277.396.006.791-.027 1.18-.1.287-.047.567-.13.832-.248a.192.192 0 0 0 .06-.06.198.198 0 0 0 .02-.101v-1.275c0-.08-.022-.103-.067-.067-.239.095-.489.16-.744.194a4.84 4.84 0 0 1-.865.095 2.547 2.547 0 0 1-1.067-.209 1.38 1.38 0 0 1-.61-.503 1.883 1.883 0 0 1-.255-.74Zm1.827-1.222h-1.827c.028-.206.09-.407.181-.594a1.166 1.166 0 0 1 1.107-.63 1.096 1.096 0 0 1 1.087.764c.033.1.05.204.053.309v.08a.47.47 0 0 1-.194.065l-.077.003-.069.001-.105.002h-.156Z" clip-rule="evenodd"/></g><defs><linearGradient id="a" x1="20" x2="20" y1="0" y2="40" gradientUnits="userSpaceOnUse"><stop stop-color="#fff"/><stop offset="1" stop-color="#F1F5F9"/></linearGradient><clipPath id="b"><path fill="#fff" d="M10 7h20v20H10z"/></clipPath></defs></svg>