<svg xmlns="http://www.w3.org/2000/svg" width="40" height="40" fill="none"><path fill="url(#a)" d="M0 0h40v40H0z"/><g clip-path="url(#b)"><path fill="#001E36" d="M26.68 7.25H13.32A3.32 3.32 0 0 0 10 10.57v12.86a3.32 3.32 0 0 0 3.32 3.32h13.36A3.32 3.32 0 0 0 30 23.43V10.57a3.32 3.32 0 0 0-3.32-3.32Z"/><path fill="#31A8FF" d="M14.503 20.924v-8.573c0-.062.027-.094.081-.094h.085l.145-.002.202-.004.675-.014.725-.013c.255-.005.508-.007.758-.007.68 0 1.252.085 1.718.255.42.142.802.376 1.12.684.27.268.478.59.61.946.126.346.19.712.188 1.08 0 .716-.165 1.306-.496 1.771-.324.454-.776.8-1.297.997l-.045.016c-.545.203-1.148.277-1.81.281h-.255l-.077-.001-.086-.002-.052-.002-.03-.002-.078-.003-.095-.002h-.174v2.676a.105.105 0 0 1-.03.09.106.106 0 0 1-.09.03h-1.598c-.062 0-.094-.035-.094-.107Zm1.813-7.057v2.796c.116.01.223.014.322.014h.442c.306-.001.61-.046.901-.135l.059-.018c.265-.08.503-.233.684-.443.168-.198.255-.471.261-.82v-.039c.008-.26-.06-.515-.194-.737a1.25 1.25 0 0 0-.584-.477 2.484 2.484 0 0 0-.98-.167h-.277l-.102.002-.145.003-.105.003-.055.002-.073.003-.062.004-.036.003-.03.003-.014.002-.012.001Zm9.682 2.288a3.14 3.14 0 0 0-.74-.269l-.059-.013c-.282-.064-.57-.1-.86-.106l-.072-.001c-.17-.005-.34.016-.503.06a.453.453 0 0 0-.262.168.421.421 0 0 0-.067.228c.003.079.03.154.08.215a.912.912 0 0 0 .253.206l.03.015c.19.103.388.195.59.275.45.151.88.356 1.28.61.274.173.5.41.658.692.134.266.2.56.195.858a1.93 1.93 0 0 1-.322 1.107c-.233.333-.557.591-.933.745-.393.173-.876.262-1.45.268h-.059a5.469 5.469 0 0 1-1.059-.093l-.075-.014a3.618 3.618 0 0 1-.852-.269.174.174 0 0 1-.094-.147v-1.463a.078.078 0 0 1 .034-.073.064.064 0 0 1 .074.006c.32.19.67.328 1.033.41.32.08.649.123.98.127.312 0 .543-.04.69-.12a.38.38 0 0 0 .222-.35c0-.116-.067-.227-.202-.335a1.426 1.426 0 0 0-.241-.147l-.05-.024-.054-.026-.029-.012-.058-.027-.031-.013-.064-.027-.034-.013-.069-.028-.036-.014-.074-.029-.078-.029a4.918 4.918 0 0 1-1.187-.604 2.047 2.047 0 0 1-.631-.704 1.851 1.851 0 0 1-.195-.852c0-.355.097-.703.282-1.006.211-.334.514-.6.872-.765.394-.197.886-.295 1.476-.295a6.52 6.52 0 0 1 1.033.074c.248.031.49.096.72.194.036.01.066.038.08.074.009.033.014.066.013.1v1.356a.09.09 0 0 1-.04.08.13.13 0 0 1-.115 0Z"/></g><path fill="#4B5563" d="M7.662 33v-3.705h1.215c.273 0 .518.037.735.11.22.073.393.195.52.365.13.167.194.397.194.69 0 .28-.065.512-.194.695-.127.18-.299.313-.515.4-.214.087-.454.13-.72.13h-.495V33h-.74Zm.74-1.9h.445c.253 0 .441-.053.565-.16.126-.107.19-.267.19-.48 0-.213-.067-.362-.2-.445-.13-.087-.324-.13-.58-.13h-.42V31.1Zm2.535 1.9v-3.99h.735v1.005l-.036.525a1.95 1.95 0 0 1 .38-.285.977.977 0 0 1 .5-.125c.304 0 .524.1.66.3.137.197.206.472.206.825V33h-.736v-1.655c0-.217-.031-.368-.095-.455-.06-.087-.16-.13-.3-.13a.561.561 0 0 0-.3.08 1.739 1.739 0 0 0-.28.235V33h-.734Zm4.368.07a1.322 1.322 0 0 1-1.155-.675 1.569 1.569 0 0 1-.19-.795c0-.31.063-.573.19-.79.126-.22.291-.388.495-.505a1.322 1.322 0 0 1 1.595.215c.126.123.226.277.3.46.073.18.11.387.11.62 0 .31-.064.575-.19.795a1.332 1.332 0 0 1-1.155.675Zm0-.6a.493.493 0 0 0 .32-.105.644.644 0 0 0 .2-.305c.046-.13.07-.283.07-.46 0-.177-.024-.33-.07-.46a.613.613 0 0 0-.2-.3.478.478 0 0 0-.32-.11.498.498 0 0 0-.325.11.662.662 0 0 0-.2.3 1.46 1.46 0 0 0-.065.46c0 .177.021.33.065.46.046.13.113.232.2.305.09.07.198.105.325.105Zm2.823.6c-.22 0-.398-.043-.535-.13a.754.754 0 0 1-.294-.37 1.519 1.519 0 0 1-.09-.545V30.78h-.395v-.545l.434-.035.085-.755h.606v.755h.695v.58h-.695v1.24c0 .16.033.278.1.355a.357.357 0 0 0 .284.115.563.563 0 0 0 .145-.02 1.57 1.57 0 0 0 .13-.04l.126.535a4.193 4.193 0 0 1-.265.07 1.414 1.414 0 0 1-.33.035Zm2.128 0a1.322 1.322 0 0 1-1.155-.675 1.569 1.569 0 0 1-.19-.795c0-.31.063-.573.19-.79.127-.22.292-.388.495-.505a1.322 1.322 0 0 1 1.595.215c.127.123.227.277.3.46.073.18.11.387.11.62 0 .31-.063.575-.19.795a1.332 1.332 0 0 1-1.155.675Zm0-.6a.493.493 0 0 0 .32-.105.644.644 0 0 0 .2-.305c.047-.13.07-.283.07-.46 0-.177-.023-.33-.07-.46a.613.613 0 0 0-.2-.3.478.478 0 0 0-.32-.11.498.498 0 0 0-.325.11.662.662 0 0 0-.2.3 1.46 1.46 0 0 0-.065.46c0 .177.022.33.065.46.047.13.113.232.2.305.09.07.198.105.325.105Zm2.711.6a1.6 1.6 0 0 1-.57-.11 1.823 1.823 0 0 1-.495-.28l.335-.465c.123.093.245.168.365.225a.96.96 0 0 0 .385.08c.14 0 .242-.027.305-.08a.27.27 0 0 0 .1-.215.218.218 0 0 0-.085-.175.769.769 0 0 0-.22-.13 5.493 5.493 0 0 0-.28-.115 2.801 2.801 0 0 1-.35-.17.95.95 0 0 1-.285-.255.659.659 0 0 1-.115-.395.76.76 0 0 1 .13-.44.874.874 0 0 1 .36-.305c.157-.073.342-.11.555-.11.203 0 .383.035.54.105.16.07.297.15.41.24l-.33.445c-.1-.073-.2-.132-.3-.175a.727.727 0 0 0-.3-.065c-.13 0-.225.025-.285.075a.242.242 0 0 0-.09.195c0 .067.025.123.075.17a.69.69 0 0 0 .205.115l.275.105c.093.033.185.073.275.12.093.043.178.097.255.16a.711.711 0 0 1 .25.565.824.824 0 0 1-.13.45.873.873 0 0 1-.375.32 1.433 1.433 0 0 1-.61.115Zm1.676-.07v-3.99h.735v1.005l-.035.525c.11-.107.236-.202.38-.285a.977.977 0 0 1 .5-.125c.303 0 .523.1.66.3.136.197.205.472.205.825V33h-.735v-1.655c0-.217-.032-.368-.095-.455-.06-.087-.16-.13-.3-.13a.56.56 0 0 0-.3.08 1.735 1.735 0 0 0-.28.235V33h-.735Zm4.368.07a1.322 1.322 0 0 1-1.155-.675 1.568 1.568 0 0 1-.19-.795c0-.31.063-.573.19-.79.127-.22.291-.388.495-.505a1.322 1.322 0 0 1 1.595.215c.127.123.226.277.3.46.073.18.11.387.11.62 0 .31-.064.575-.19.795a1.333 1.333 0 0 1-1.155.675Zm0-.6a.493.493 0 0 0 .32-.105.644.644 0 0 0 .2-.305c.047-.13.07-.283.07-.46 0-.177-.023-.33-.07-.46a.613.613 0 0 0-.2-.3.479.479 0 0 0-.32-.11.498.498 0 0 0-.325.11.661.661 0 0 0-.2.3 1.46 1.46 0 0 0-.065.46c0 .177.021.33.065.46.046.13.113.232.2.305.09.07.198.105.325.105Zm1.96 1.605V30.2h.6l.055.29h.015c.116-.1.245-.185.385-.255a.992.992 0 0 1 .44-.105c.23 0 .426.06.59.18.163.117.288.282.375.495.09.21.135.46.135.75 0 .32-.057.593-.17.82-.114.227-.262.4-.445.52-.18.117-.372.175-.575.175a.88.88 0 0 1-.36-.08 1.311 1.311 0 0 1-.335-.225l.025.455v.855h-.735Zm1.245-1.61a.51.51 0 0 0 .3-.095.672.672 0 0 0 .215-.3c.053-.133.08-.302.08-.505 0-.177-.02-.327-.06-.45a.57.57 0 0 0-.18-.285.493.493 0 0 0-.315-.095.591.591 0 0 0-.275.07 1.22 1.22 0 0 0-.275.215v1.235a.75.75 0 0 0 .51.21Z"/><defs><linearGradient id="a" x1="20" x2="20" y1="0" y2="40" gradientUnits="userSpaceOnUse"><stop stop-color="#F9FAFB"/><stop offset="1" stop-color="#E5E7EB"/></linearGradient><clipPath id="b"><path fill="#fff" d="M10 7h20v20H10z"/></clipPath></defs></svg>