<svg xmlns="http://www.w3.org/2000/svg" width="40" height="40" fill="none"><path fill="url(#a)" d="M0 0h40v40H0z"/><g clip-path="url(#b)"><path fill="#00005B" d="M13.542 7.25h12.916A3.539 3.539 0 0 1 30 10.792v12.416a3.539 3.539 0 0 1-3.542 3.542H13.542A3.539 3.539 0 0 1 10 23.208V10.792a3.539 3.539 0 0 1 3.542-3.542Z"/><path fill="#99F" d="M14.75 20.925V12.35c0-.059.025-.092.083-.092h.215l.066-.002.07-.002.076-.002.04-.002.229-.007.239-.005.082-.002.083-.003c.075-.003.152-.005.23-.006l.242-.004.168-.004.085-.002c.172-.006.341-.008.508-.008h.25c.684 0 1.25.082 1.717.258.419.142.8.375 1.117.683.268.27.476.593.608.95.125.35.192.708.192 1.083 0 .717-.167 1.309-.5 1.775-.333.467-.8.817-1.342 1.017-.547.201-1.15.278-1.806.283h-.239l-.093-.001-.059-.001-.035-.002-.031-.002-.028-.002a1.214 1.214 0 0 0-.054-.004l-.041-.002-.045-.001-.074-.001h-.145v2.674a.104.104 0 0 1-.091.117H14.85c-.067 0-.1-.033-.1-.108Zm1.817-7.059v2.8l.098.008c.075.005.15.009.227.01h.441c.325 0 .65-.05.959-.15.266-.076.5-.234.683-.442.175-.209.258-.492.258-.859a1.372 1.372 0 0 0-.191-.742 1.211 1.211 0 0 0-.554-.463l-.03-.011a2.445 2.445 0 0 0-.983-.167H17.192l-.087.002-.082.002c-.04 0-.078.002-.115.004l-.053-.002-.05-.001h-.068l-.04.001h-.019l-.034.003-.03.002-.013.002-.024.002-.01.002Zm5.65.484h1.458c.079 0 .143.052.17.12l.005.013a.847.847 0 0 1 .05.208c.017.084.033.175.042.259l.007.08c.005.07.01.143.01.22a3.1 3.1 0 0 1 .845-.691l.046-.026a2.581 2.581 0 0 1 1.267-.325c.058-.008.108.034.116.092v1.658c0 .067-.041.092-.133.092a3.665 3.665 0 0 0-.841.07l-.059.013c-.242.05-.475.125-.7.225a1.296 1.296 0 0 0-.425.308v4.25c0 .084-.033.117-.108.117h-1.642c-.067.008-.125-.033-.133-.1v-4.65c0-.2 0-.408-.009-.625l-.005-.162-.006-.325a9.76 9.76 0 0 0-.005-.163c0-.191-.017-.375-.034-.566a.077.077 0 0 1 .059-.092c0-.007.012-.008.02-.003l.005.003Z"/></g><path fill="#4B5563" d="M4.812 33v-3.705h1.215c.274 0 .519.037.735.11.22.073.394.195.52.365.13.167.195.397.195.69 0 .28-.065.512-.195.695-.126.18-.298.313-.515.4-.213.087-.453.13-.72.13h-.495V33h-.74Zm.74-1.9h.445c.254 0 .442-.053.565-.16.127-.107.19-.267.19-.48 0-.213-.066-.362-.2-.445-.13-.087-.323-.13-.58-.13h-.42V31.1ZM8.087 33v-2.8h.6l.055.495h.015c.104-.183.225-.323.365-.42a.749.749 0 0 1 .62-.125c.05.01.095.023.135.04l-.12.635a1.642 1.642 0 0 0-.3-.045.604.604 0 0 0-.34.125c-.116.083-.215.225-.295.425V33h-.735Zm3.32.07c-.26 0-.495-.058-.705-.175a1.313 1.313 0 0 1-.505-.505 1.592 1.592 0 0 1-.185-.79c0-.227.035-.43.105-.61.073-.18.172-.333.295-.46a1.32 1.32 0 0 1 .42-.295c.157-.07.318-.105.485-.105.257 0 .472.058.645.175.173.113.303.272.39.475.09.2.135.43.135.69 0 .067-.003.132-.01.195a.99.99 0 0 1-.025.145h-1.725c.02.15.065.277.135.38a.68.68 0 0 0 .27.235c.11.05.235.075.375.075.113 0 .22-.015.32-.045.1-.033.202-.082.305-.145l.25.45c-.137.093-.29.168-.46.225-.17.057-.342.085-.515.085Zm-.695-1.755h1.145c0-.187-.043-.335-.13-.445-.083-.113-.217-.17-.4-.17a.571.571 0 0 0-.275.07.56.56 0 0 0-.22.205.82.82 0 0 0-.12.34ZM13.092 33v-2.8h.6l.055.375h.015c.117-.12.244-.223.38-.31a.852.852 0 0 1 .48-.135c.2 0 .36.043.48.13a.797.797 0 0 1 .285.36c.134-.137.27-.252.41-.345a.847.847 0 0 1 .485-.145c.3 0 .519.1.655.3.14.197.21.472.21.825V33h-.73v-1.655c0-.217-.031-.368-.095-.455-.063-.087-.161-.13-.295-.13a.504.504 0 0 0-.255.08c-.086.05-.181.128-.285.235V33h-.735v-1.655c0-.217-.031-.368-.095-.455-.063-.087-.161-.13-.295-.13a.523.523 0 0 0-.255.08c-.09.05-.183.128-.28.235V33h-.735Zm4.82 0v-2.8h.735V33h-.735Zm.37-3.255a.442.442 0 0 1-.31-.105.389.389 0 0 1-.115-.295c0-.12.038-.217.115-.29a.43.43 0 0 1 .31-.11c.123 0 .225.037.305.11.08.073.12.17.12.29a.38.38 0 0 1-.12.295.446.446 0 0 1-.305.105Zm2.368 3.325c-.26 0-.495-.058-.705-.175a1.312 1.312 0 0 1-.505-.505 1.59 1.59 0 0 1-.185-.79c0-.227.035-.43.105-.61.073-.18.172-.333.295-.46.127-.13.267-.228.42-.295.157-.07.319-.105.485-.105.257 0 .472.058.645.175.174.113.304.272.39.475.09.2.135.43.135.69 0 .067-.003.132-.01.195a.99.99 0 0 1-.025.145H19.97c.02.15.065.277.135.38a.68.68 0 0 0 .27.235c.11.05.235.075.375.075.113 0 .22-.015.32-.045.1-.033.202-.082.305-.145l.25.45c-.137.093-.29.168-.46.225-.17.057-.341.085-.515.085Zm-.695-1.755H21.1c0-.187-.043-.335-.13-.445-.083-.113-.216-.17-.4-.17a.571.571 0 0 0-.275.07.56.56 0 0 0-.22.205.82.82 0 0 0-.12.34ZM22.335 33v-2.8h.6l.055.495h.015c.104-.183.225-.323.365-.42a.749.749 0 0 1 .62-.125c.05.01.095.023.135.04l-.12.635a1.635 1.635 0 0 0-.3-.045.604.604 0 0 0-.34.125c-.116.083-.215.225-.295.425V33h-.735Zm3.32.07c-.26 0-.495-.058-.705-.175a1.313 1.313 0 0 1-.505-.505 1.592 1.592 0 0 1-.185-.79c0-.227.035-.43.105-.61.073-.18.172-.333.295-.46a1.32 1.32 0 0 1 .42-.295c.157-.07.318-.105.485-.105.257 0 .472.058.645.175.173.113.303.272.39.475.09.2.135.43.135.69 0 .067-.003.132-.01.195a.976.976 0 0 1-.025.145h-1.725c.02.15.065.277.135.38a.68.68 0 0 0 .27.235c.11.05.235.075.375.075.113 0 .22-.015.32-.045.1-.033.202-.082.305-.145l.25.45c-.137.093-.29.168-.46.225-.17.057-.342.085-.515.085Zm-.695-1.755h1.145c0-.187-.043-.335-.13-.445-.083-.113-.217-.17-.4-.17a.572.572 0 0 0-.275.07.56.56 0 0 0-.22.205.82.82 0 0 0-.12.34ZM28.533 33v-3.705h1.215c.273 0 .518.037.735.11.22.073.393.195.52.365.13.167.195.397.195.69 0 .28-.065.512-.195.695-.127.18-.298.313-.515.4-.213.087-.453.13-.72.13h-.495V33h-.74Zm.74-1.9h.445c.253 0 .442-.053.565-.16.127-.107.19-.267.19-.48 0-.213-.066-.362-.2-.445-.13-.087-.323-.13-.58-.13h-.42V31.1Zm2.535 1.9v-2.8h.6l.055.495h.015c.103-.183.225-.323.365-.42a.748.748 0 0 1 .62-.125c.05.01.095.023.135.04l-.12.635a1.643 1.643 0 0 0-.3-.045.604.604 0 0 0-.34.125c-.117.083-.215.225-.295.425V33h-.735Zm3.27.07a1.322 1.322 0 0 1-1.155-.675 1.568 1.568 0 0 1-.19-.795c0-.31.063-.573.19-.79.126-.22.291-.388.495-.505a1.322 1.322 0 0 1 1.595.215c.126.123.226.277.3.46.073.18.11.387.11.62 0 .31-.064.575-.19.795a1.333 1.333 0 0 1-1.155.675Zm0-.6a.493.493 0 0 0 .32-.105.644.644 0 0 0 .2-.305c.046-.13.07-.283.07-.46 0-.177-.024-.33-.07-.46a.613.613 0 0 0-.2-.3.479.479 0 0 0-.32-.11.498.498 0 0 0-.325.11.661.661 0 0 0-.2.3 1.46 1.46 0 0 0-.065.46c0 .177.021.33.065.46.046.13.113.232.2.305.09.07.198.105.325.105Z"/><defs><linearGradient id="a" x1="20" x2="20" y1="0" y2="40" gradientUnits="userSpaceOnUse"><stop stop-color="#F9FAFB"/><stop offset="1" stop-color="#E5E7EB"/></linearGradient><clipPath id="b"><path fill="#fff" d="M10 7h20v20H10z"/></clipPath></defs></svg>