<svg xmlns="http://www.w3.org/2000/svg" width="40" height="40" fill="none"><path fill="url(#a)" d="M0 0h40v40H0z"/><g clip-path="url(#b)"><path fill="#300" d="M26.68 7.25H13.32A3.32 3.32 0 0 0 10 10.57v12.86a3.32 3.32 0 0 0 3.32 3.32h13.36A3.32 3.32 0 0 0 30 23.43V10.57a3.32 3.32 0 0 0-3.32-3.32Z"/><path fill="#FF9A00" d="M19.692 18.952h-3.1l-.63 1.959a.157.157 0 0 1-.161.12h-1.57c-.09 0-.12-.048-.094-.147l2.684-7.728c.026-.08.053-.172.08-.275.035-.179.053-.36.054-.543a.083.083 0 0 1 .094-.094h2.133c.062 0 .098.022.107.067l3.046 8.587c.027.09 0 .134-.08.134H20.51a.124.124 0 0 1-.134-.094l-.684-1.986Zm-2.616-1.69h2.12l-.03-.1-.05-.158-.034-.11-.055-.176-.118-.367-.103-.326-.268-.85c-.067-.21-.131-.423-.192-.635l-.05-.173-.057-.204-.087-.317-.017-.06h-.013c-.067.323-.149.642-.245.956l-.2.64-.109.354-.11.358-.06.192-.06.188-.058.183-.06.178-.057.174-.059.17-.028.083Zm7.07-3.596a.972.972 0 0 1-.738-.295 1.062 1.062 0 0 1-.282-.765.986.986 0 0 1 .302-.744c.193-.185.45-.289.716-.29l.029.001c.322 0 .574.096.758.288a1.035 1.035 0 0 1 .275.745 1.048 1.048 0 0 1-.289.765 1.03 1.03 0 0 1-.742.296l-.03-.001Zm-.926 7.232v-6.413c0-.081.036-.121.108-.121h1.65c.071 0 .107.04.107.12v6.414c0 .09-.036.134-.107.134H23.34c-.076 0-.117-.04-.12-.12v-.014Z"/></g><path fill="#4B5563" d="M8.677 33v-3.705h.74V33h-.74Zm2.286.07a.704.704 0 0 1-.41-.105.632.632 0 0 1-.22-.3 1.42 1.42 0 0 1-.065-.45V29.01h.735v3.235c0 .083.015.142.045.175.033.033.066.05.1.05h.045a.567.567 0 0 1 .055-.01l.09.545a1.058 1.058 0 0 1-.375.065Zm1.577 0a.704.704 0 0 1-.41-.105.632.632 0 0 1-.22-.3 1.423 1.423 0 0 1-.065-.45V29.01h.735v3.235c0 .083.015.142.045.175.033.033.066.05.1.05h.045a.573.573 0 0 1 .055-.01l.09.545a1.054 1.054 0 0 1-.375.065Zm1.717 0c-.303 0-.524-.098-.66-.295-.137-.2-.205-.477-.205-.83V30.2h.73v1.655c0 .217.031.368.095.455.063.087.165.13.305.13a.536.536 0 0 0 .295-.08c.086-.057.176-.147.27-.27V30.2h.735V33h-.6l-.055-.405h-.02c-.12.143-.25.258-.39.345a.93.93 0 0 1-.5.13Zm3.148 0c-.186 0-.376-.037-.57-.11a1.823 1.823 0 0 1-.495-.28l.335-.465c.124.093.245.168.365.225.124.053.252.08.385.08.14 0 .242-.027.305-.08a.27.27 0 0 0 .1-.215.218.218 0 0 0-.085-.175.767.767 0 0 0-.22-.13 5.456 5.456 0 0 0-.28-.115 2.815 2.815 0 0 1-.35-.17.953.953 0 0 1-.285-.255.66.66 0 0 1-.115-.395.76.76 0 0 1 .13-.44.876.876 0 0 1 .36-.305c.157-.073.342-.11.555-.11.204 0 .384.035.54.105.16.07.297.15.41.24l-.33.445c-.1-.073-.2-.132-.3-.175a.726.726 0 0 0-.3-.065c-.13 0-.225.025-.285.075a.242.242 0 0 0-.09.195c0 .067.025.123.075.17.05.043.119.082.205.115l.275.105c.094.033.185.073.275.12.094.043.179.097.255.16a.71.71 0 0 1 .25.565.824.824 0 0 1-.13.45.872.872 0 0 1-.375.32 1.432 1.432 0 0 1-.61.115Zm2.56 0c-.22 0-.399-.043-.536-.13a.755.755 0 0 1-.295-.37 1.519 1.519 0 0 1-.09-.545V30.78h-.395v-.545l.435-.035.085-.755h.605v.755h.695v.58h-.695v1.24c0 .16.034.278.1.355a.357.357 0 0 0 .285.115.563.563 0 0 0 .145-.02c.05-.013.094-.027.13-.04l.125.535a4.175 4.175 0 0 1-.265.07 1.413 1.413 0 0 1-.33.035Zm1.079-.07v-2.8h.6l.055.495h.015c.103-.183.225-.323.365-.42a.749.749 0 0 1 .62-.125c.05.01.095.023.135.04l-.12.635a1.635 1.635 0 0 0-.3-.045.604.604 0 0 0-.34.125c-.117.083-.215.225-.295.425V33h-.735Zm2.687.07a.884.884 0 0 1-.435-.105.783.783 0 0 1-.29-.3.909.909 0 0 1-.1-.43c0-.297.128-.527.385-.69.256-.167.665-.28 1.225-.34a.682.682 0 0 0-.05-.245.364.364 0 0 0-.15-.175.501.501 0 0 0-.275-.065c-.13 0-.259.025-.385.075a2.46 2.46 0 0 0-.385.195l-.26-.49a2.488 2.488 0 0 1 .74-.315c.136-.037.278-.055.425-.055.237 0 .435.047.595.14.16.093.28.232.36.415.08.183.12.41.12.68V33h-.6l-.05-.3h-.025a1.79 1.79 0 0 1-.39.265c-.14.07-.292.105-.455.105Zm.245-.575a.563.563 0 0 0 .28-.07c.087-.05.173-.118.26-.205v-.56a2.38 2.38 0 0 0-.54.115.656.656 0 0 0-.285.18.338.338 0 0 0-.085.225c0 .11.033.19.1.24.07.05.16.075.27.075Zm2.927.575c-.22 0-.398-.043-.535-.13a.754.754 0 0 1-.295-.37 1.519 1.519 0 0 1-.09-.545V30.78h-.395v-.545l.435-.035.085-.755h.605v.755h.695v.58h-.695v1.24c0 .16.033.278.1.355a.357.357 0 0 0 .285.115.563.563 0 0 0 .145-.02 1.57 1.57 0 0 0 .13-.04l.125.535a4.193 4.193 0 0 1-.265.07 1.414 1.414 0 0 1-.33.035Zm2.127 0a1.322 1.322 0 0 1-1.155-.675 1.569 1.569 0 0 1-.19-.795c0-.31.064-.573.19-.79.127-.22.292-.388.495-.505a1.322 1.322 0 0 1 1.595.215c.127.123.227.277.3.46.074.18.11.387.11.62 0 .31-.063.575-.19.795a1.332 1.332 0 0 1-1.155.675Zm0-.6a.493.493 0 0 0 .32-.105.644.644 0 0 0 .2-.305c.047-.13.07-.283.07-.46 0-.177-.023-.33-.07-.46a.613.613 0 0 0-.2-.3.478.478 0 0 0-.32-.11.498.498 0 0 0-.325.11.662.662 0 0 0-.2.3 1.46 1.46 0 0 0-.065.46c0 .177.022.33.065.46.047.13.114.232.2.305.09.07.199.105.325.105Zm1.96.53v-2.8h.6l.055.495h.015c.104-.183.225-.323.365-.42a.748.748 0 0 1 .62-.125c.05.01.095.023.135.04l-.12.635a1.643 1.643 0 0 0-.3-.045.604.604 0 0 0-.34.125c-.117.083-.215.225-.295.425V33h-.735Z"/><defs><linearGradient id="a" x1="20" x2="20" y1="0" y2="40" gradientUnits="userSpaceOnUse"><stop stop-color="#F9FAFB"/><stop offset="1" stop-color="#E5E7EB"/></linearGradient><clipPath id="b"><path fill="#fff" d="M10 7h20v20H10z"/></clipPath></defs></svg>