<svg xmlns="http://www.w3.org/2000/svg" width="40" height="40" fill="none"><path fill="url(#a)" d="M0 0h40v40H0z"/><path fill="#15796E" d="M12.855 33v-3.705h2.28v.62h-1.54v.965h1.315v.62h-1.315V33h-.74Zm2.865 0v-2.8h.735V33h-.735Zm.37-3.255a.442.442 0 0 1-.31-.105.389.389 0 0 1-.115-.295c0-.12.038-.217.115-.29a.43.43 0 0 1 .31-.11c.123 0 .225.037.305.11.08.073.12.17.12.29a.38.38 0 0 1-.12.295.446.446 0 0 1-.305.105Zm2.133 4.47c-.22 0-.418-.027-.595-.08a.918.918 0 0 1-.42-.235.558.558 0 0 1-.15-.405c0-.117.034-.225.1-.325a.791.791 0 0 1 .3-.255v-.025a.611.611 0 0 1-.185-.185.55.55 0 0 1-.07-.29c0-.103.03-.2.09-.29a.906.906 0 0 1 .22-.23v-.02a.987.987 0 0 1-.26-.295.833.833 0 0 1-.115-.44c0-.22.052-.405.155-.555.107-.15.247-.263.42-.34a1.344 1.344 0 0 1 .78-.095c.074.013.14.03.2.05h1.005v.54h-.475c.037.05.067.112.09.185a.789.789 0 0 1 .035.24c0 .21-.048.387-.145.53a.888.888 0 0 1-.39.315 1.383 1.383 0 0 1-.72.09 1.98 1.98 0 0 1-.19-.05.516.516 0 0 0-.09.105.273.273 0 0 0-.03.14c0 .07.032.125.095.165.067.04.182.06.345.06h.48c.337 0 .595.057.775.17.18.11.27.287.27.53a.75.75 0 0 1-.19.505c-.123.15-.3.268-.53.355-.226.09-.495.135-.805.135Zm.04-2.555c.084 0 .159-.02.225-.06a.43.43 0 0 0 .16-.175.63.63 0 0 0 .06-.285c0-.11-.02-.202-.06-.275a.429.429 0 0 0-.385-.23.42.42 0 0 0-.38.23.612.612 0 0 0-.055.275c0 .11.019.205.055.285a.42.42 0 0 0 .38.235Zm.07 2.085c.144 0 .267-.018.37-.055a.644.644 0 0 0 .25-.145c.06-.06.09-.127.09-.2 0-.1-.04-.168-.12-.205a.932.932 0 0 0-.345-.05h-.345a1.973 1.973 0 0 1-.385-.035.541.541 0 0 0-.14.155.406.406 0 0 0-.04.175c0 .113.06.202.18.265s.282.095.485.095ZM20.222 33v-2.8h.6l.055.375h.015c.116-.12.243-.223.38-.31a.852.852 0 0 1 .48-.135c.2 0 .36.043.48.13a.797.797 0 0 1 .285.36c.133-.137.27-.252.41-.345a.847.847 0 0 1 .485-.145c.3 0 .518.1.655.3.14.197.21.472.21.825V33h-.73v-1.655c0-.217-.032-.368-.095-.455-.064-.087-.162-.13-.295-.13a.504.504 0 0 0-.255.08c-.087.05-.182.128-.285.235V33h-.735v-1.655c0-.217-.032-.368-.095-.455-.064-.087-.162-.13-.295-.13a.523.523 0 0 0-.255.08c-.09.05-.184.128-.28.235V33h-.735Zm5.504.07a.885.885 0 0 1-.435-.105.783.783 0 0 1-.29-.3.909.909 0 0 1-.1-.43c0-.297.128-.527.385-.69.257-.167.665-.28 1.225-.34a.68.68 0 0 0-.05-.245.364.364 0 0 0-.15-.175.501.501 0 0 0-.275-.065c-.13 0-.258.025-.385.075a2.46 2.46 0 0 0-.385.195l-.26-.49a2.494 2.494 0 0 1 .74-.315c.137-.037.278-.055.425-.055.237 0 .435.047.595.14.16.093.28.232.36.415.08.183.12.41.12.68V33h-.6l-.05-.3h-.025a1.79 1.79 0 0 1-.39.265c-.14.07-.292.105-.455.105Zm.245-.575a.563.563 0 0 0 .28-.07 1.27 1.27 0 0 0 .26-.205v-.56a2.38 2.38 0 0 0-.54.115.657.657 0 0 0-.285.18.338.338 0 0 0-.085.225c0 .11.033.19.1.24.07.05.16.075.27.075Z"/><g clip-path="url(#b)"><path fill="#15796E" fill-rule="evenodd" d="M14.688 7h10.624A4.688 4.688 0 0 1 30 11.688v10.624A4.688 4.688 0 0 1 25.312 27H14.688A4.688 4.688 0 0 1 10 22.312V11.688A4.688 4.688 0 0 1 14.688 7Zm7.956 8.036a1.968 1.968 0 0 0-1.966 1.967c0 1.083.883 1.966 1.966 1.966h.064a1.968 1.968 0 0 0 1.966-1.966 1.97 1.97 0 0 0-1.966-1.967h-.064Zm1.666-.479a2.925 2.925 0 0 0-1.602-5.37H17.69a2.924 2.924 0 0 0-1.602 5.37 2.924 2.924 0 0 0 0 4.89 2.924 2.924 0 0 0-1.322 2.446 2.936 2.936 0 0 0 2.94 2.924 2.967 2.967 0 0 0 2.972-2.956v-2.695c.52.472 1.21.76 1.966.76h.064a2.924 2.924 0 0 0 1.602-5.37Zm-4.59 2.383a3.217 3.217 0 0 0 0 .125v1.904h-2.03a1.969 1.969 0 0 1-1.966-1.966c0-1.084.882-1.967 1.966-1.967h2.03v1.904Zm.958-2.862h2.03a1.968 1.968 0 0 0 1.966-1.966 1.969 1.969 0 0 0-1.966-1.966h-2.03v3.932Zm-.958-3.932h-2.03a1.968 1.968 0 0 0-1.966 1.966 1.97 1.97 0 0 0 1.966 1.966h2.03v-3.932Zm.001 9.78h-2.03a1.97 1.97 0 0 0-1.967 1.967c0 1.084.89 1.966 1.983 1.966 1.11 0 2.014-.896 2.014-1.998v-1.934Z" clip-rule="evenodd"/></g><defs><linearGradient id="a" x1="20" x2="20" y1="0" y2="40" gradientUnits="userSpaceOnUse"><stop stop-color="#fff"/><stop offset="1" stop-color="#F1F5F9"/></linearGradient><clipPath id="b"><path fill="#fff" d="M10 7h20v20H10z"/></clipPath></defs></svg>