<svg xmlns="http://www.w3.org/2000/svg" width="40" height="40" fill="none"><path fill="url(#a)" d="M0 0h40v40H0z"/><path fill="#A23C2A" d="m15.03 33-.746-3.685h.595l.345 1.915a1210.69 1210.69 0 0 1 .2 1.185h.02l.12-.595.13-.59.47-1.915h.515l.475 1.915c.044.193.085.39.125.59.04.197.082.395.125.595h.025c.034-.2.065-.398.095-.595l.09-.59.35-1.915h.555L17.794 33h-.715l-.495-2.045c-.03-.147-.06-.288-.09-.425l-.08-.42h-.02c-.026.14-.055.28-.085.42-.03.137-.06.278-.09.425L15.734 33h-.705Zm5.147.07c-.226 0-.44-.057-.64-.17a1.343 1.343 0 0 1-.48-.495 1.587 1.587 0 0 1-.18-.78c0-.307.06-.567.18-.78.123-.217.284-.382.48-.495.2-.113.414-.17.64-.17.167 0 .329.033.485.1.157.063.295.157.415.28.12.123.215.275.285.455.07.177.105.38.105.61 0 .303-.061.563-.185.78-.12.213-.278.378-.475.495-.193.113-.403.17-.63.17Zm0-.48c.143 0 .267-.04.37-.12a.752.752 0 0 0 .245-.335 1.41 1.41 0 0 0 .085-.51c0-.193-.028-.362-.085-.505a.75.75 0 0 0-.245-.34.571.571 0 0 0-.37-.125.6.6 0 0 0-.38.125.767.767 0 0 0-.24.34 1.369 1.369 0 0 0-.085.505c0 .193.028.363.085.51a.77.77 0 0 0 .24.335c.107.08.233.12.38.12Zm1.971.41v-2.755h.47l.05.495h.01c.1-.177.219-.313.355-.41.137-.1.28-.15.43-.15a.826.826 0 0 1 .305.055l-.1.505a.902.902 0 0 0-.135-.035.603.603 0 0 0-.495.125c-.123.087-.228.24-.315.46V33h-.575Zm2.913.07c-.227 0-.425-.057-.595-.17a1.096 1.096 0 0 1-.395-.495 1.964 1.964 0 0 1-.14-.78c0-.297.055-.553.165-.77a1.31 1.31 0 0 1 .435-.5c.18-.117.372-.175.575-.175.16 0 .295.028.405.085.114.053.225.128.335.225l-.02-.455v-1.02h.575V33h-.47l-.05-.31h-.015a1.456 1.456 0 0 1-.36.27.927.927 0 0 1-.445.11Zm.14-.485a.68.68 0 0 0 .325-.08c.1-.053.2-.138.3-.255v-1.34a.939.939 0 0 0-.3-.19.815.815 0 0 0-.305-.06.57.57 0 0 0-.35.12.803.803 0 0 0-.25.33c-.063.14-.095.31-.095.51 0 .207.027.383.08.53.053.143.13.252.23.325.104.073.225.11.365.11Z"/><g clip-path="url(#b)"><path fill="#A23C2A" fill-rule="evenodd" d="M21.811 9.047V7.229L10 9.051v15.9l11.812 1.82v-1.82H23.28c1.783 0 3.567-.001 5.351.008a9.52 9.52 0 0 1 .224-.007 5.29 5.29 0 0 0 .523-.027c.365-.05.527-.12.583-.483.029-.184.03-.463.032-.715 0-.138.001-.267.006-.368-.015-2.152-.012-4.362-.01-6.574a719.11 719.11 0 0 0-.013-7.11.56.56 0 0 0-.651-.614 243.818 243.818 0 0 0-4.503-.014c-1.021.003-2.035.005-3.012 0Zm7.5.681h-7.5v1.59h5.907v.91h-5.907v1.135h5.907v.91h-5.907v1.135h5.907v.91h-5.907v1.135h5.907v.91h-5.907v1.135h5.907v.91h-5.907v1.135h5.907v.909h-5.907v1.817h7.5V9.73Zm-13.852 3.976c-.256.012-.511.025-.764.04-.178.833-.36 1.667-.541 2.5l-.425 1.957c-.134-.955-.296-1.907-.457-2.859-.084-.492-.167-.985-.247-1.478-.39.014-.778.03-1.168.048.204 1.16.439 2.315.673 3.47.17.838.34 1.677.5 2.519.439.03.877.056 1.313.08.102-.492.21-.982.317-1.473.21-.966.422-1.934.598-2.91.168.935.367 1.866.566 2.796.122.57.245 1.141.36 1.713.166-.011.35.01.533.03.311.036.625.072.864-.053.355-1.389.667-2.79.978-4.193.18-.806.358-1.612.546-2.416-.453.031-.907.055-1.36.071l-.21 1.188c-.207 1.178-.415 2.355-.607 3.536a284.092 284.092 0 0 1-.938-4.592l-.531.026Z" clip-rule="evenodd"/></g><defs><linearGradient id="a" x1="20" x2="20" y1="0" y2="40" gradientUnits="userSpaceOnUse"><stop stop-color="#fff"/><stop offset="1" stop-color="#F1F5F9"/></linearGradient><clipPath id="b"><path fill="#fff" d="M10 7h20v20H10z"/></clipPath></defs></svg>