<svg xmlns="http://www.w3.org/2000/svg" width="40" height="40" fill="none"><path fill="url(#a)" d="M0 0h40v40H0z"/><g clip-path="url(#b)"><path fill="#49021F" d="M26.68 7.25H13.32A3.32 3.32 0 0 0 10 10.57v12.86a3.32 3.32 0 0 0 3.32 3.32h13.36A3.32 3.32 0 0 0 30 23.43V10.57a3.32 3.32 0 0 0-3.32-3.32Z"/><path fill="#F36" d="M17.263 12.351v8.547c0 .09-.04.134-.12.134h-1.624c-.072 0-.107-.045-.107-.134V12.35c0-.071.04-.107.12-.107h1.624a.094.094 0 0 1 .076.023.094.094 0 0 1 .032.073v.011Zm4.89 8.814-.086.001a4.157 4.157 0 0 1-1.792-.375 2.848 2.848 0 0 1-1.254-1.134c-.297-.493-.449-1.108-.456-1.843v-.056a3.503 3.503 0 0 1 .456-1.757c.305-.531.749-.969 1.285-1.265l.043-.023c.581-.322 1.284-.483 2.107-.483h.056l.043.002.049.003.053.003.06.005.132.01.036.004v-2.643c0-.063.027-.094.08-.095h1.69a.071.071 0 0 1 .08.08v7.93c.002.166.009.331.022.497l.012.173.011.16.01.15a.14.14 0 0 1-.08.134c-.437.182-.89.317-1.355.402a7.263 7.263 0 0 1-1.202.12m.732-1.663V15.84a1.331 1.331 0 0 0-.221-.04 2.661 2.661 0 0 0-.275-.014 2.072 2.072 0 0 0-.94.215 1.836 1.836 0 0 0-.704.617c-.183.268-.275.622-.275 1.06-.006.292.041.583.14.858.082.222.21.423.377.59.159.155.352.27.563.336.223.072.456.109.691.108.125 0 .241-.005.349-.014.085-.006.17-.02.254-.042l.041-.012Z"/></g><path fill="#4B5563" d="M9.7 33v-3.705h.74V33H9.7Zm1.591 0v-2.8h.6l.055.37h.015a2.14 2.14 0 0 1 .405-.31.974.974 0 0 1 .505-.13c.303 0 .523.1.66.3.137.197.205.472.205.825V33h-.735v-1.655c0-.217-.032-.368-.095-.455-.06-.087-.16-.13-.3-.13a.561.561 0 0 0-.3.08 1.739 1.739 0 0 0-.28.235V33h-.735Zm3.263 0v-3.705h1.015c.38 0 .705.067.975.2a1.4 1.4 0 0 1 .63.605c.15.27.225.613.225 1.03 0 .417-.073.763-.22 1.04a1.457 1.457 0 0 1-.62.625 2.058 2.058 0 0 1-.95.205h-1.055Zm.74-.6h.225c.233 0 .434-.042.6-.125.17-.087.3-.223.39-.41.09-.19.135-.435.135-.735s-.045-.54-.135-.72a.817.817 0 0 0-.39-.395 1.329 1.329 0 0 0-.6-.125h-.225v2.51Zm3.99.67c-.26 0-.495-.058-.706-.175a1.312 1.312 0 0 1-.505-.505 1.59 1.59 0 0 1-.184-.79c0-.227.035-.43.105-.61.073-.18.171-.333.294-.46.127-.13.267-.228.42-.295.157-.07.319-.105.486-.105.256 0 .471.058.645.175.173.113.303.272.39.475.09.2.134.43.134.69 0 .067-.003.132-.01.195a.99.99 0 0 1-.025.145h-1.724c.02.15.065.277.134.38a.68.68 0 0 0 .27.235c.11.05.236.075.376.075.113 0 .22-.015.32-.045.1-.033.201-.082.305-.145l.25.45c-.137.093-.29.168-.46.225-.17.057-.342.085-.515.085Zm-.695-1.755h1.145c0-.187-.044-.335-.13-.445-.084-.113-.217-.17-.4-.17a.571.571 0 0 0-.276.07.56.56 0 0 0-.22.205.82.82 0 0 0-.12.34Zm3.18 1.755c-.187 0-.377-.037-.57-.11a1.823 1.823 0 0 1-.495-.28l.335-.465c.123.093.245.168.365.225.123.053.251.08.385.08.14 0 .241-.027.305-.08a.27.27 0 0 0 .1-.215.218.218 0 0 0-.085-.175.767.767 0 0 0-.22-.13 5.456 5.456 0 0 0-.28-.115 2.815 2.815 0 0 1-.35-.17.953.953 0 0 1-.285-.255.66.66 0 0 1-.115-.395.76.76 0 0 1 .13-.44.876.876 0 0 1 .36-.305c.156-.073.341-.11.555-.11.203 0 .383.035.54.105.16.07.296.15.41.24l-.33.445c-.1-.073-.2-.132-.3-.175a.726.726 0 0 0-.3-.065c-.13 0-.225.025-.285.075a.242.242 0 0 0-.09.195c0 .067.025.123.075.17.05.043.118.082.205.115l.275.105c.093.033.185.073.275.12.093.043.178.097.255.16a.71.71 0 0 1 .25.565.824.824 0 0 1-.13.45.872.872 0 0 1-.375.32 1.432 1.432 0 0 1-.61.115Zm1.675-.07v-2.8h.735V33h-.735Zm.37-3.255a.442.442 0 0 1-.31-.105.389.389 0 0 1-.115-.295c0-.12.039-.217.115-.29a.43.43 0 0 1 .31-.11c.124 0 .225.037.305.11.08.073.12.17.12.29a.38.38 0 0 1-.12.295.446.446 0 0 1-.305.105Zm2.134 4.47c-.22 0-.419-.027-.595-.08a.918.918 0 0 1-.42-.235.558.558 0 0 1-.15-.405c0-.117.033-.225.1-.325a.791.791 0 0 1 .3-.255v-.025a.611.611 0 0 1-.185-.185.55.55 0 0 1-.07-.29c0-.103.03-.2.09-.29a.906.906 0 0 1 .22-.23v-.02a.987.987 0 0 1-.26-.295.833.833 0 0 1-.115-.44c0-.22.052-.405.155-.555.107-.15.247-.263.42-.34a1.344 1.344 0 0 1 .78-.095c.073.013.14.03.2.05h1.005v.54h-.475c.037.05.067.112.09.185a.789.789 0 0 1 .035.24c0 .21-.049.387-.145.53a.888.888 0 0 1-.39.315 1.383 1.383 0 0 1-.72.09 1.98 1.98 0 0 1-.19-.05.516.516 0 0 0-.09.105.273.273 0 0 0-.03.14c0 .07.032.125.095.165.066.04.181.06.345.06h.48c.337 0 .595.057.775.17.18.11.27.287.27.53a.75.75 0 0 1-.19.505c-.123.15-.3.268-.53.355-.227.09-.495.135-.805.135Zm.04-2.555c.083 0 .158-.02.225-.06a.43.43 0 0 0 .16-.175.63.63 0 0 0 .06-.285c0-.11-.02-.202-.06-.275a.429.429 0 0 0-.385-.23.42.42 0 0 0-.38.23.612.612 0 0 0-.055.275c0 .11.018.205.055.285a.42.42 0 0 0 .38.235Zm.07 2.085c.143 0 .267-.018.37-.055a.644.644 0 0 0 .25-.145c.06-.06.09-.127.09-.2 0-.1-.04-.168-.12-.205a.932.932 0 0 0-.345-.05h-.345a1.973 1.973 0 0 1-.385-.035.541.541 0 0 0-.14.155.406.406 0 0 0-.04.175c0 .113.06.202.18.265s.282.095.485.095ZM27.946 33v-2.8h.6l.055.37h.015a2.14 2.14 0 0 1 .405-.31.973.973 0 0 1 .505-.13c.304 0 .524.1.66.3.137.197.205.472.205.825V33h-.735v-1.655c0-.217-.031-.368-.095-.455-.06-.087-.16-.13-.3-.13a.56.56 0 0 0-.3.08 1.735 1.735 0 0 0-.28.235V33h-.735Z"/><defs><linearGradient id="a" x1="20" x2="20" y1="0" y2="40" gradientUnits="userSpaceOnUse"><stop stop-color="#F9FAFB"/><stop offset="1" stop-color="#E5E7EB"/></linearGradient><clipPath id="b"><path fill="#fff" d="M10 7h20v20H10z"/></clipPath></defs></svg>