<svg xmlns="http://www.w3.org/2000/svg" width="40" height="40" fill="none"><path fill="url(#a)" d="M0 0h40v40H0z"/><g clip-path="url(#b)"><path fill="#283C82" fill-rule="evenodd" d="M21.811 9.047V7.229L10 9.051V24.95l11.812 1.82v-1.819H23.28c1.783 0 3.567-.001 5.351.008a9.52 9.52 0 0 1 .224-.007 5.26 5.26 0 0 0 .523-.027c.365-.05.527-.12.583-.483.029-.184.03-.463.032-.715 0-.138 0-.267.006-.368-.015-2.152-.012-4.362-.01-6.574a716.05 716.05 0 0 0-.013-7.11.559.559 0 0 0-.651-.614 243.815 243.815 0 0 0-4.503-.014c-1.021.003-2.035.005-3.012 0Zm7.5.681h-7.5v1.59h5.907v.91h-5.907v1.135h5.907v.91h-5.907v1.135h5.907v.91h-5.907v1.135h5.907v.91h-5.907v1.135h5.907v.91h-5.907v1.135h5.907v.909h-5.907v1.817h7.5V9.73Zm-13.852 3.976c-.256.012-.511.025-.764.04-.178.833-.36 1.667-.541 2.5l-.425 1.957c-.134-.955-.296-1.907-.457-2.859-.084-.492-.167-.985-.247-1.478-.39.014-.778.03-1.168.048.204 1.16.439 2.315.673 3.47.17.838.34 1.677.5 2.519.439.03.877.056 1.313.08.102-.492.21-.982.317-1.473.21-.966.422-1.934.598-2.91.168.935.367 1.866.566 2.796.122.57.245 1.141.36 1.713.166-.011.35.01.533.03.311.036.625.072.864-.053.355-1.389.667-2.79.978-4.193.18-.806.358-1.612.546-2.416-.453.031-.907.055-1.36.071l-.21 1.188c-.207 1.178-.415 2.355-.607 3.536a284.092 284.092 0 0 1-.938-4.592l-.531.026Z" clip-rule="evenodd"/></g><path fill="#4B5563" d="m14.294 33-.71-3.705h.755l.285 1.81c.033.193.063.388.09.585.03.197.058.395.085.595h.02l.12-.595c.04-.197.078-.392.115-.585l.425-1.81h.635l.43 1.81c.04.19.078.385.115.585l.12.595h.025l.08-.595c.03-.197.058-.392.085-.585l.295-1.81h.7L17.279 33h-.92l-.415-1.835c-.03-.143-.059-.285-.085-.425a10.18 10.18 0 0 1-.07-.425h-.02c-.027.14-.055.282-.085.425l-.08.425L15.199 33h-.905Zm5.335.07a1.321 1.321 0 0 1-1.155-.675 1.568 1.568 0 0 1-.19-.795c0-.31.063-.573.19-.79.127-.22.292-.388.495-.505a1.321 1.321 0 0 1 1.595.215c.127.123.227.277.3.46.073.18.11.387.11.62 0 .31-.063.575-.19.795a1.334 1.334 0 0 1-1.155.675Zm0-.6a.493.493 0 0 0 .32-.105.645.645 0 0 0 .2-.305c.047-.13.07-.283.07-.46 0-.177-.023-.33-.07-.46a.613.613 0 0 0-.2-.3.479.479 0 0 0-.32-.11.498.498 0 0 0-.325.11.66.66 0 0 0-.2.3c-.043.13-.065.283-.065.46 0 .177.022.33.065.46.047.13.113.232.2.305.09.07.198.105.325.105Zm1.96.53v-2.8h.6l.055.495h.015c.103-.183.225-.323.365-.42a.749.749 0 0 1 .62-.125c.05.01.095.023.135.04l-.12.635a1.635 1.635 0 0 0-.3-.045.604.604 0 0 0-.34.125c-.117.083-.215.225-.295.425V33h-.735Zm3.085.07c-.234 0-.437-.058-.61-.175a1.126 1.126 0 0 1-.395-.505 2.015 2.015 0 0 1-.14-.79c0-.303.055-.563.165-.78.113-.22.26-.39.44-.51s.37-.18.57-.18c.156 0 .288.028.395.085.11.053.215.127.314.22l-.024-.44v-.985h.735V33h-.6l-.056-.29h-.02a1.53 1.53 0 0 1-.355.255.892.892 0 0 1-.42.105Zm.19-.605c.1 0 .191-.022.274-.065a.816.816 0 0 0 .25-.225v-1.23a.725.725 0 0 0-.26-.16.733.733 0 0 0-.265-.05c-.103 0-.2.033-.29.1a.657.657 0 0 0-.21.285c-.053.127-.08.283-.08.47 0 .193.022.355.066.485.046.13.113.228.2.295a.52.52 0 0 0 .314.095Z"/><defs><linearGradient id="a" x1="20" x2="20" y1="0" y2="40" gradientUnits="userSpaceOnUse"><stop stop-color="#F9FAFB"/><stop offset="1" stop-color="#E5E7EB"/></linearGradient><clipPath id="b"><path fill="#fff" d="M10 7h20v20H10z"/></clipPath></defs></svg>