<svg xmlns="http://www.w3.org/2000/svg" width="40" height="40" fill="none"><path fill="url(#a)" d="M0 0h40v40H0z"/><g clip-path="url(#b)"><path fill="#ED6C47" d="M22.093 17.928 20.698 7.714h-.104a9.214 9.214 0 0 0-9.199 9.181V17l10.698.928Z"/><path fill="#FF8F6B" d="M20.802 7.714h-.104V17l4.65 1.857L30 17v-.105a9.214 9.214 0 0 0-9.198-9.18Z"/><path fill="#D35230" d="M30 17v.102a9.218 9.218 0 0 1-9.2 9.183h-.205a9.22 9.22 0 0 1-9.2-9.183V17H30Z"/><path fill="#000" d="M21.163 12.278v9.908a.857.857 0 0 1-.852.85h-6.72a9.1 9.1 0 0 1-2.196-5.934v-.204a9.072 9.072 0 0 1 1.498-5.005c.102-.16.21-.315.326-.465h7.092a.857.857 0 0 1 .852.85Z" opacity=".1"/><path fill="#000" d="M20.698 12.743v9.908a.86.86 0 0 1-.378.703.857.857 0 0 1-.473.146h-5.833a8.338 8.338 0 0 1-.423-.464 9.1 9.1 0 0 1-2.196-5.934v-.204a9.072 9.072 0 0 1 1.498-5.005h6.953a.857.857 0 0 1 .852.85Z" opacity=".2"/><path fill="#000" d="M20.698 12.743v8.98a.857.857 0 0 1-.852.848H13.22a9.1 9.1 0 0 1-1.824-5.469v-.204a9.072 9.072 0 0 1 1.498-5.005h6.953a.857.857 0 0 1 .852.85Z" opacity=".2"/><path fill="#000" d="M20.233 12.743v8.98a.857.857 0 0 1-.852.848H13.22a9.1 9.1 0 0 1-1.824-5.469v-.204a9.072 9.072 0 0 1 1.498-5.005h6.488a.857.857 0 0 1 .852.85Z" opacity=".2"/><path fill="url(#c)" d="M10.853 11.893h8.527a.852.852 0 0 1 .853.85v8.513a.852.852 0 0 1-.853.851h-8.527a.85.85 0 0 1-.853-.85v-8.514a.849.849 0 0 1 .853-.85Z"/><path fill="#fff" d="M15.21 14.163a2.357 2.357 0 0 1 1.552.454 1.622 1.622 0 0 1 .54 1.315 1.83 1.83 0 0 1-.266.983c-.183.29-.446.522-.757.668a2.571 2.571 0 0 1-1.136.238h-1.08v2h-1.105v-5.658h2.251Zm-1.148 2.794h.95c.302.021.6-.068.841-.25a.927.927 0 0 0 .286-.733c0-.623-.363-.935-1.09-.936h-.987v1.919Z"/></g><path fill="#4B5563" d="M6.58 33v-3.705h1.215c.273 0 .518.037.735.11.22.073.393.195.52.365.13.167.195.397.195.69 0 .28-.065.512-.195.695-.127.18-.298.313-.515.4-.213.087-.453.13-.72.13H7.32V33h-.74Zm.74-1.9h.445c.253 0 .442-.053.565-.16.127-.107.19-.267.19-.48 0-.213-.067-.362-.2-.445-.13-.087-.323-.13-.58-.13h-.42V31.1Zm3.549 1.97a1.322 1.322 0 0 1-1.155-.675 1.568 1.568 0 0 1-.19-.795c0-.31.063-.573.19-.79.126-.22.291-.388.495-.505a1.322 1.322 0 0 1 1.595.215c.126.123.226.277.3.46.073.18.11.387.11.62 0 .31-.064.575-.19.795a1.333 1.333 0 0 1-1.155.675Zm0-.6a.493.493 0 0 0 .32-.105.644.644 0 0 0 .2-.305c.046-.13.07-.283.07-.46 0-.177-.024-.33-.07-.46a.613.613 0 0 0-.2-.3.479.479 0 0 0-.32-.11.498.498 0 0 0-.325.11.661.661 0 0 0-.2.3 1.46 1.46 0 0 0-.065.46c0 .177.021.33.065.46.046.13.113.232.2.305.09.07.198.105.325.105Zm2.356.53-.72-2.8h.73l.31 1.38c.024.14.045.277.065.41.02.133.042.27.065.41h.025c.03-.14.059-.277.085-.41.027-.137.057-.273.09-.41l.34-1.38h.65l.35 1.38c.034.14.064.277.09.41.027.133.057.27.09.41h.02a29.812 29.812 0 0 1 .145-.82l.295-1.38h.685l-.69 2.8h-.865l-.295-1.22c-.03-.133-.058-.265-.085-.395a17.82 17.82 0 0 0-.08-.425H14.5c-.023.15-.046.292-.07.425-.023.133-.05.265-.08.395L14.065 33h-.84Zm5.003.07c-.26 0-.495-.058-.705-.175a1.312 1.312 0 0 1-.505-.505 1.59 1.59 0 0 1-.185-.79c0-.227.035-.43.105-.61.074-.18.172-.333.295-.46.127-.13.267-.228.42-.295.157-.07.319-.105.485-.105.257 0 .472.058.645.175.174.113.304.272.39.475.09.2.135.43.135.69 0 .067-.003.132-.01.195a.99.99 0 0 1-.025.145h-1.725c.02.15.065.277.135.38a.68.68 0 0 0 .27.235c.11.05.235.075.375.075.114 0 .22-.015.32-.045.1-.033.202-.082.305-.145l.25.45c-.136.093-.29.168-.46.225-.17.057-.341.085-.515.085Zm-.695-1.755h1.145c0-.187-.043-.335-.13-.445-.083-.113-.216-.17-.4-.17a.571.571 0 0 0-.275.07.56.56 0 0 0-.22.205.82.82 0 0 0-.12.34ZM19.913 33v-2.8h.6l.056.495h.015c.103-.183.225-.323.365-.42a.748.748 0 0 1 .62-.125c.05.01.095.023.135.04l-.12.635a1.65 1.65 0 0 0-.3-.045.604.604 0 0 0-.34.125c-.117.083-.215.225-.295.425V33h-.735Zm2.183 1.075V30.2h.6l.055.29h.015c.117-.1.245-.185.385-.255a.992.992 0 0 1 .44-.105c.23 0 .427.06.59.18.163.117.288.282.375.495.09.21.135.46.135.75 0 .32-.056.593-.17.82-.113.227-.262.4-.445.52-.18.117-.372.175-.575.175a.88.88 0 0 1-.36-.08 1.31 1.31 0 0 1-.335-.225l.025.455v.855h-.735Zm1.245-1.61a.51.51 0 0 0 .3-.095.672.672 0 0 0 .215-.3c.053-.133.08-.302.08-.505 0-.177-.02-.327-.06-.45a.57.57 0 0 0-.18-.285.493.493 0 0 0-.315-.095.59.59 0 0 0-.275.07 1.218 1.218 0 0 0-.275.215v1.235a.75.75 0 0 0 .51.21Zm3.143.605a1.322 1.322 0 0 1-1.155-.675 1.569 1.569 0 0 1-.19-.795c0-.31.063-.573.19-.79.127-.22.292-.388.495-.505a1.322 1.322 0 0 1 1.595.215c.127.123.227.277.3.46.073.18.11.387.11.62 0 .31-.063.575-.19.795a1.332 1.332 0 0 1-1.155.675Zm0-.6a.493.493 0 0 0 .32-.105.644.644 0 0 0 .2-.305c.047-.13.07-.283.07-.46 0-.177-.023-.33-.07-.46a.613.613 0 0 0-.2-.3.478.478 0 0 0-.32-.11.498.498 0 0 0-.325.11.662.662 0 0 0-.2.3 1.46 1.46 0 0 0-.065.46c0 .177.022.33.065.46.047.13.113.232.2.305.09.07.198.105.325.105Zm1.96.53v-2.8h.735V33h-.735Zm.37-3.255a.442.442 0 0 1-.31-.105.39.39 0 0 1-.115-.295c0-.12.038-.217.115-.29a.43.43 0 0 1 .31-.11c.123 0 .225.037.305.11.08.073.12.17.12.29a.38.38 0 0 1-.12.295.446.446 0 0 1-.305.105ZM29.962 33v-2.8h.6l.055.37h.015a2.14 2.14 0 0 1 .405-.31.973.973 0 0 1 .505-.13c.304 0 .524.1.66.3.137.197.205.472.205.825V33h-.735v-1.655c0-.217-.031-.368-.095-.455-.06-.087-.16-.13-.3-.13a.56.56 0 0 0-.3.08 1.735 1.735 0 0 0-.28.235V33h-.735Zm4.229.07c-.22 0-.399-.043-.535-.13a.754.754 0 0 1-.295-.37 1.519 1.519 0 0 1-.09-.545V30.78h-.395v-.545l.434-.035.085-.755H34v.755h.696v.58H34v1.24c0 .16.033.278.1.355a.357.357 0 0 0 .285.115.563.563 0 0 0 .145-.02 1.57 1.57 0 0 0 .13-.04l.124.535a4.193 4.193 0 0 1-.264.07 1.414 1.414 0 0 1-.33.035Z"/><defs><linearGradient id="a" x1="20" x2="20" y1="0" y2="40" gradientUnits="userSpaceOnUse"><stop stop-color="#F9FAFB"/><stop offset="1" stop-color="#E5E7EB"/></linearGradient><linearGradient id="c" x1="11.781" x2="18.451" y1="11.224" y2="22.776" gradientUnits="userSpaceOnUse"><stop stop-color="#CA4C28"/><stop offset=".5" stop-color="#C5401E"/><stop offset="1" stop-color="#B62F14"/></linearGradient><clipPath id="b"><path fill="#fff" d="M10 7h20v20H10z"/></clipPath></defs></svg>