<svg xmlns="http://www.w3.org/2000/svg" width="40" height="40" fill="none"><path fill="url(#a)" d="M0 0h40v40H0z"/><path fill="#1881F2" d="M8.528 33.07a1.35 1.35 0 0 1-.68-.16 1.295 1.295 0 0 1-.465-.49l.505-.375a.83.83 0 0 0 .25.295c.093.06.193.09.3.09.163 0 .287-.05.37-.15.083-.1.125-.278.125-.535v-2.45h.74v2.51c0 .233-.04.447-.12.64-.08.19-.205.342-.375.455-.167.113-.383.17-.65.17Zm2.662 0a.884.884 0 0 1-.435-.105.783.783 0 0 1-.29-.3.909.909 0 0 1-.1-.43c0-.297.128-.527.385-.69.257-.167.665-.28 1.225-.34a.682.682 0 0 0-.05-.245.364.364 0 0 0-.15-.175.501.501 0 0 0-.275-.065c-.13 0-.258.025-.385.075a2.46 2.46 0 0 0-.385.195l-.26-.49a2.488 2.488 0 0 1 .74-.315c.136-.037.278-.055.425-.055.236 0 .435.047.595.14.16.093.28.232.36.415.08.183.12.41.12.68V33h-.6l-.05-.3h-.025a1.79 1.79 0 0 1-.39.265c-.14.07-.292.105-.455.105Zm.245-.575a.563.563 0 0 0 .28-.07c.087-.05.173-.118.26-.205v-.56a2.38 2.38 0 0 0-.54.115.656.656 0 0 0-.285.18.338.338 0 0 0-.085.225c0 .11.033.19.1.24.07.05.16.075.27.075Zm2.654.505-.955-2.8h.74l.405 1.395c.04.14.078.282.115.425.04.14.078.282.115.425h.025a69.548 69.548 0 0 1 .225-.85l.41-1.395h.705l-.935 2.8h-.85Zm2.794.07a.885.885 0 0 1-.435-.105.783.783 0 0 1-.29-.3.91.91 0 0 1-.1-.43c0-.297.129-.527.385-.69.257-.167.665-.28 1.225-.34a.68.68 0 0 0-.05-.245.364.364 0 0 0-.15-.175.501.501 0 0 0-.275-.065c-.13 0-.258.025-.385.075-.126.05-.255.115-.385.195l-.26-.49a2.494 2.494 0 0 1 .74-.315c.137-.037.279-.055.425-.055.237 0 .435.047.595.14.16.093.28.232.36.415.08.183.12.41.12.68V33h-.6l-.05-.3h-.025a1.79 1.79 0 0 1-.39.265c-.14.07-.291.105-.455.105Zm.245-.575a.563.563 0 0 0 .28-.07c.087-.05.174-.118.26-.205v-.56a2.383 2.383 0 0 0-.54.115.657.657 0 0 0-.285.18.339.339 0 0 0-.085.225c0 .11.034.19.1.24.07.05.16.075.27.075Zm2.824.575c-.186 0-.376-.037-.57-.11a1.823 1.823 0 0 1-.495-.28l.335-.465c.124.093.245.168.365.225.124.053.252.08.385.08.14 0 .242-.027.305-.08a.27.27 0 0 0 .1-.215.218.218 0 0 0-.085-.175.767.767 0 0 0-.22-.13 5.456 5.456 0 0 0-.28-.115 2.815 2.815 0 0 1-.35-.17.953.953 0 0 1-.285-.255.66.66 0 0 1-.115-.395.76.76 0 0 1 .13-.44.876.876 0 0 1 .36-.305c.157-.073.342-.11.555-.11.204 0 .384.035.54.105.16.07.297.15.41.24l-.33.445c-.1-.073-.2-.132-.3-.175a.726.726 0 0 0-.3-.065c-.13 0-.225.025-.285.075a.242.242 0 0 0-.09.195c0 .067.025.123.075.17.05.043.119.082.205.115l.275.105c.094.033.185.073.275.12.094.043.179.097.255.16a.71.71 0 0 1 .25.565.824.824 0 0 1-.13.45.872.872 0 0 1-.375.32 1.432 1.432 0 0 1-.61.115Zm2.866 0c-.257 0-.488-.058-.695-.175a1.263 1.263 0 0 1-.49-.5c-.12-.22-.18-.485-.18-.795 0-.31.065-.573.195-.79.133-.22.308-.388.525-.505.22-.117.457-.175.71-.175.173 0 .327.03.46.09.133.057.252.132.355.225l-.35.465a.751.751 0 0 0-.205-.135.553.553 0 0 0-.22-.045.67.67 0 0 0-.63.41c-.057.13-.085.283-.085.46 0 .177.028.33.085.46.06.13.142.232.245.305a.682.682 0 0 0 .65.04c.093-.043.178-.097.255-.16l.29.485a1.335 1.335 0 0 1-.445.26c-.16.053-.317.08-.47.08Zm1.447-.07v-2.8h.6l.055.495h.015c.103-.183.225-.323.365-.42a.749.749 0 0 1 .62-.125c.05.01.095.023.135.04l-.12.635a1.635 1.635 0 0 0-.3-.045.604.604 0 0 0-.34.125c-.117.083-.215.225-.295.425V33h-.735Zm2.182 0v-2.8h.735V33h-.735Zm.37-3.255a.442.442 0 0 1-.31-.105.39.39 0 0 1-.115-.295c0-.12.039-.217.115-.29a.43.43 0 0 1 .31-.11c.124 0 .225.037.305.11.08.073.12.17.12.29a.38.38 0 0 1-.12.295.446.446 0 0 1-.305.105Zm1.149 4.33V30.2h.6l.055.29h.015c.117-.1.245-.185.385-.255a.992.992 0 0 1 .44-.105c.23 0 .427.06.59.18.163.117.288.282.375.495.09.21.135.46.135.75 0 .32-.057.593-.17.82-.113.227-.262.4-.445.52-.18.117-.372.175-.575.175a.88.88 0 0 1-.36-.08 1.311 1.311 0 0 1-.335-.225l.025.455v.855h-.735Zm1.245-1.61a.51.51 0 0 0 .3-.095.672.672 0 0 0 .215-.3c.053-.133.08-.302.08-.505 0-.177-.02-.327-.06-.45a.57.57 0 0 0-.18-.285.493.493 0 0 0-.315-.095.591.591 0 0 0-.275.07 1.22 1.22 0 0 0-.275.215v1.235a.75.75 0 0 0 .51.21Zm2.836.605c-.22 0-.398-.043-.535-.13a.755.755 0 0 1-.295-.37 1.519 1.519 0 0 1-.09-.545V30.78h-.395v-.545l.435-.035.085-.755h.605v.755h.695v.58h-.695v1.24c0 .16.034.278.1.355a.357.357 0 0 0 .285.115.563.563 0 0 0 .145-.02c.05-.013.094-.027.13-.04l.125.535a4.175 4.175 0 0 1-.265.07 1.413 1.413 0 0 1-.33.035Z"/><g clip-path="url(#b)"><path fill="#1881F2" fill-rule="evenodd" d="M30 7H10v20h20V7ZM16.79 22.787l-1.531.926c.443.94 1.315 1.719 2.819 1.719 1.665 0 2.806-.886 2.806-2.833v-6.417h-1.88v6.39c0 .94-.39 1.182-1.007 1.182-.644 0-.913-.443-1.208-.967Zm6.645-.161-1.53.886c.55 1.088 1.678 1.92 3.423 1.92 1.785 0 3.114-.926 3.114-2.618 0-1.57-.899-2.269-2.497-2.953l-.47-.202c-.805-.349-1.154-.577-1.154-1.141 0-.456.35-.806.9-.806.537 0 .886.229 1.208.806l1.463-.94c-.617-1.087-1.476-1.503-2.671-1.503-1.678 0-2.753 1.073-2.753 2.483 0 1.53.9 2.256 2.256 2.833l.47.201c.859.376 1.37.604 1.37 1.249 0 .537-.497.926-1.276.926-.927 0-1.45-.483-1.853-1.141Z" clip-rule="evenodd"/></g><defs><linearGradient id="a" x1="20" x2="20" y1="0" y2="40" gradientUnits="userSpaceOnUse"><stop stop-color="#fff"/><stop offset="1" stop-color="#F1F5F9"/></linearGradient><clipPath id="b"><path fill="#fff" d="M10 7h20v20H10z"/></clipPath></defs></svg>