<svg xmlns="http://www.w3.org/2000/svg" width="40" height="40" fill="none"><path fill="url(#a)" d="M0 0h40v40H0z"/><path fill="#A23C2A" d="M21.25 8.052c.807 0 1.584.104 2.33.313a8.741 8.741 0 0 1 3.857 2.25 8.762 8.762 0 0 1 2.25 3.858c.209.745.313 1.522.313 2.329 0 .807-.104 1.584-.313 2.33a8.763 8.763 0 0 1-.883 2.09 8.783 8.783 0 0 1-1.367 1.766 8.762 8.762 0 0 1-3.858 2.252 8.616 8.616 0 0 1-2.329.312 8.69 8.69 0 0 1-4.047-.99 8.79 8.79 0 0 1-3.13-2.76H10.83a.8.8 0 0 1-.587-.244.799.799 0 0 1-.244-.586v-8.34c0-.228.081-.423.244-.586a.799.799 0 0 1 .586-.244h3.242a8.83 8.83 0 0 1 3.13-2.76 8.748 8.748 0 0 1 4.047-.99Zm.625 1.28v6.845h6.846a7.342 7.342 0 0 0-.689-2.563 7.565 7.565 0 0 0-1.485-2.11 7.541 7.541 0 0 0-4.672-2.173Zm-4.385 6.307c0-.377-.063-.701-.19-.971a1.751 1.751 0 0 0-.523-.659 2.18 2.18 0 0 0-.781-.371 3.88 3.88 0 0 0-.977-.117h-2.646v6.553h1.534v-2.285h1.035c.319 0 .63-.048.932-.142.303-.094.575-.231.815-.41.241-.18.435-.402.582-.67.146-.266.22-.575.219-.928Zm3.76 8.663a7.463 7.463 0 0 0 3.598-.922 7.605 7.605 0 0 0 2.662-2.452 7.436 7.436 0 0 0 1.21-3.511h-8.085V9.331a7.356 7.356 0 0 0-2.725.757 7.53 7.53 0 0 0-2.246 1.714h3.506c.228 0 .423.081.586.244a.799.799 0 0 1 .244.586v8.34a.799.799 0 0 1-.244.586.799.799 0 0 1-.586.244h-3.506c.358.397.75.75 1.177 1.06.426.309.877.57 1.352.786.475.215.97.378 1.484.488.515.11 1.04.166 1.573.166ZM14.843 14.8c.32 0 .574.064.763.19.189.128.283.36.283.699 0 .15-.034.272-.103.366a.793.793 0 0 1-.258.23 1.109 1.109 0 0 1-.352.121c-.13.023-.254.034-.371.034h-.9V14.8h.938ZM6.557 33.198v-3.685h1.115c.276 0 .52.037.73.11a.98.98 0 0 1 .495.35c.123.16.185.38.185.66 0 .267-.06.487-.18.66-.12.17-.285.298-.495.385a1.902 1.902 0 0 1-.715.125h-.555v1.395h-.58Zm.58-1.865h.505c.29 0 .506-.057.65-.17.143-.113.215-.29.215-.53 0-.247-.075-.417-.225-.51-.15-.093-.372-.14-.665-.14h-.48v1.35Zm3.56 1.935c-.226 0-.44-.057-.64-.17a1.344 1.344 0 0 1-.48-.495 1.587 1.587 0 0 1-.18-.78c0-.307.06-.567.18-.78.124-.217.284-.382.48-.495.2-.113.414-.17.64-.17.167 0 .329.033.486.1.156.063.295.157.415.28.12.123.215.275.285.455.07.177.105.38.105.61 0 .303-.062.563-.185.78-.12.213-.279.378-.475.495-.194.113-.404.17-.63.17Zm0-.48c.144 0 .267-.04.37-.12a.752.752 0 0 0 .246-.335 1.41 1.41 0 0 0 .085-.51c0-.193-.029-.362-.085-.505a.75.75 0 0 0-.245-.34.571.571 0 0 0-.37-.125.6.6 0 0 0-.38.125.767.767 0 0 0-.24.34 1.369 1.369 0 0 0-.085.505c0 .193.028.363.085.51a.77.77 0 0 0 .24.335c.106.08.233.12.38.12Zm2.363.41-.74-2.755h.58l.365 1.49c.027.133.052.265.075.395.023.127.048.257.075.39h.025l.08-.39c.03-.13.062-.262.095-.395l.39-1.49h.53l.395 1.49a35.977 35.977 0 0 1 .185.785h.025c.027-.133.052-.263.075-.39l.08-.395.355-1.49h.545l-.715 2.755h-.69l-.35-1.36a8.06 8.06 0 0 1-.09-.39l-.085-.405h-.025l-.085.41c-.023.13-.052.26-.085.39l-.34 1.355h-.67Zm4.807.07c-.25 0-.477-.057-.68-.17a1.283 1.283 0 0 1-.485-.495 1.587 1.587 0 0 1-.18-.78c0-.223.035-.423.105-.6a1.338 1.338 0 0 1 .69-.745c.15-.067.303-.1.46-.1.243 0 .448.055.615.165.166.107.293.258.38.455a1.65 1.65 0 0 1 .12.845.666.666 0 0 1-.02.13h-1.785c.016.173.061.323.135.45.076.123.175.22.295.29.123.067.263.1.42.1.123 0 .238-.018.345-.055.106-.037.21-.087.31-.15l.2.365a2.02 2.02 0 0 1-.425.21 1.43 1.43 0 0 1-.5.085Zm-.785-1.695h1.32c0-.233-.054-.415-.16-.545-.104-.13-.255-.195-.455-.195a.639.639 0 0 0-.32.085.73.73 0 0 0-.255.25c-.067.11-.11.245-.13.405Zm2.467 1.625v-2.755h.47l.05.495h.01c.1-.177.218-.313.355-.41.136-.1.28-.15.43-.15a.826.826 0 0 1 .305.055l-.1.505a.902.902 0 0 0-.135-.035.603.603 0 0 0-.495.125c-.124.087-.229.24-.315.46v1.71h-.575Zm2.046 1.115v-3.87h.47l.05.305h.01c.123-.1.256-.187.4-.26a.976.976 0 0 1 .45-.11c.23 0 .426.058.59.175.163.117.286.28.37.49.083.207.125.452.125.735 0 .313-.057.582-.17.805-.11.223-.255.393-.435.51-.18.117-.374.175-.58.175a.915.915 0 0 1-.365-.08 1.456 1.456 0 0 1-.355-.235l.015.47v.89h-.575Zm1.17-1.53a.58.58 0 0 0 .355-.115.748.748 0 0 0 .25-.335 1.4 1.4 0 0 0 .095-.545c0-.193-.024-.358-.07-.495a.63.63 0 0 0-.205-.32.565.565 0 0 0-.37-.115.676.676 0 0 0-.32.085 1.43 1.43 0 0 0-.33.25v1.345c.106.09.211.153.315.19a.846.846 0 0 0 .28.055Zm3.084.485c-.227 0-.44-.057-.64-.17a1.343 1.343 0 0 1-.48-.495 1.587 1.587 0 0 1-.18-.78c0-.307.06-.567.18-.78.123-.217.283-.382.48-.495.2-.113.413-.17.64-.17.167 0 .328.033.485.1.157.063.295.157.415.28.12.123.215.275.285.455.07.177.105.38.105.61 0 .303-.062.563-.185.78-.12.213-.278.378-.475.495-.193.113-.403.17-.63.17Zm0-.48c.143 0 .267-.04.37-.12a.753.753 0 0 0 .245-.335c.057-.147.085-.317.085-.51a1.37 1.37 0 0 0-.085-.505.75.75 0 0 0-.245-.34.571.571 0 0 0-.37-.125.599.599 0 0 0-.38.125.765.765 0 0 0-.24.34 1.369 1.369 0 0 0-.085.505c0 .193.028.363.085.51a.768.768 0 0 0 .24.335c.107.08.233.12.38.12Zm1.971.41v-2.755h.575v2.755h-.575Zm.29-3.265a.369.369 0 0 1-.265-.095.344.344 0 0 1-.095-.255c0-.1.032-.182.095-.245a.369.369 0 0 1 .265-.095c.104 0 .189.032.255.095.067.063.1.145.1.245a.335.335 0 0 1-.1.255.356.356 0 0 1-.255.095Zm1.15 3.265v-2.755h.47l.05.385h.01a2.17 2.17 0 0 1 .41-.315.937.937 0 0 1 .5-.135c.294 0 .507.095.64.285.137.187.206.455.206.805v1.73h-.575v-1.66c0-.237-.037-.405-.11-.505-.074-.103-.192-.155-.355-.155a.622.622 0 0 0-.34.095 1.93 1.93 0 0 0-.33.275v1.95h-.575Zm4.046.07c-.207 0-.372-.04-.495-.12a.7.7 0 0 1-.26-.34 1.49 1.49 0 0 1-.08-.51v-1.39h-.4v-.43l.43-.035.065-.76h.48v.76h.715v.465h-.715v1.395c0 .163.032.288.095.375.063.083.166.125.31.125a.621.621 0 0 0 .15-.02.984.984 0 0 0 .14-.045l.105.425a4.154 4.154 0 0 1-.25.07c-.09.023-.187.035-.29.035Z"/><defs><linearGradient id="a" x1="20" x2="20" y1="0" y2="40" gradientUnits="userSpaceOnUse"><stop stop-color="#fff"/><stop offset="1" stop-color="#F1F5F9"/></linearGradient></defs></svg>