<svg xmlns="http://www.w3.org/2000/svg" width="40" height="40" fill="none"><path fill="url(#a)" d="M0 0h40v40H0z"/><path fill="#1881F2" d="m17.113 33-1.13-3.705h.78l.485 1.805c.06.203.111.402.155.595.047.19.098.39.155.6h.025c.06-.21.113-.41.16-.6.047-.193.098-.392.155-.595l.48-1.805h.75L17.998 33h-.885Zm3.02.07c-.303 0-.523-.098-.66-.295-.136-.2-.205-.477-.205-.83V30.2h.73v1.655c0 .217.032.368.095.455.064.087.165.13.305.13a.535.535 0 0 0 .295-.08c.087-.057.177-.147.27-.27V30.2h.735V33h-.6l-.055-.405h-.02c-.12.143-.25.258-.39.345a.93.93 0 0 1-.5.13Zm3.569 0c-.26 0-.495-.058-.705-.175a1.313 1.313 0 0 1-.505-.505 1.592 1.592 0 0 1-.185-.79c0-.227.035-.43.105-.61.073-.18.172-.333.295-.46a1.32 1.32 0 0 1 .42-.295c.157-.07.318-.105.485-.105.257 0 .472.058.645.175.173.113.303.272.39.475.09.2.135.43.135.69 0 .067-.003.132-.01.195a.99.99 0 0 1-.025.145h-1.725c.02.15.065.277.135.38a.68.68 0 0 0 .27.235c.11.05.235.075.375.075.113 0 .22-.015.32-.045.1-.033.202-.082.305-.145l.25.45c-.137.093-.29.168-.46.225-.17.057-.342.085-.515.085Zm-.695-1.755h1.145c0-.187-.043-.335-.13-.445-.083-.113-.217-.17-.4-.17a.571.571 0 0 0-.275.07.56.56 0 0 0-.22.205.82.82 0 0 0-.12.34ZM20 17.764l5.587-9.429h-3.273L20 12.334v.002l-2.31-4.001h-3.278L20 17.765Z"/><path fill="#1881F2" d="M26.456 8.339 20 19.233 13.544 8.34H10l10 17.326L30 8.339h-3.544Z"/><defs><linearGradient id="a" x1="20" x2="20" y1="0" y2="40" gradientUnits="userSpaceOnUse"><stop stop-color="#fff"/><stop offset="1" stop-color="#F1F5F9"/></linearGradient></defs></svg>